{"glyphs":{"0":{"ha":978,"x_min":81,"x_max":897,"o":"m 489 990 q 815 831 711 990 q 896 498 895 709 l 896 493 l 897 493 q 816 159 897 283 q 490 0 713 1 q 162 159 265 1 q 81 493 81 283 l 81 496 q 184 861 82 735 q 489 990 289 990 m 760 796 q 489 924 676 924 q 235 820 320 924 q 146 496 147 712 l 146 493 q 216 195 146 302 q 490 65 300 65 q 762 195 677 66 q 831 493 831 302 l 831 493 l 831 497 q 760 796 830 689 z "},"1":{"ha":505,"x_min":0,"x_max":342,"o":"m 342 0 l 277 0 l 277 924 l 0 924 l 0 990 l 342 990 l 342 0 z "},"2":{"ha":906,"x_min":81,"x_max":825,"o":"m 121 924 l 121 990 l 453 990 q 718 922 619 990 q 825 726 825 850 q 710 520 825 580 q 457 463 641 484 q 243 417 302 444 q 146 264 146 372 l 146 65 l 825 65 l 825 0 l 81 0 l 81 264 q 197 469 81 410 q 450 527 265 505 q 663 573 604 546 q 760 726 760 618 q 682 869 760 815 q 453 924 600 924 l 121 924 z "},"3":{"ha":906,"x_min":81,"x_max":825,"o":"m 81 924 l 81 990 l 552 990 q 732 921 664 990 q 800 741 800 853 q 732 562 800 629 q 690 529 714 543 q 753 486 726 512 q 825 279 825 414 q 753 73 825 144 q 546 0 680 0 l 81 0 l 81 65 l 546 65 q 707 119 653 65 q 760 279 760 172 q 707 439 760 387 q 546 493 653 493 l 149 493 l 149 558 l 552 558 q 686 608 637 558 q 735 741 735 656 q 686 875 735 827 q 552 924 637 924 l 81 924 z "},"4":{"ha":905,"x_min":81,"x_max":890,"o":"m 600 227 l 81 227 l 81 299 l 643 990 l 691 990 l 691 292 l 890 292 l 890 227 l 691 227 l 691 0 l 626 0 l 626 869 l 153 292 l 600 292 l 600 227 z "},"5":{"ha":906,"x_min":81,"x_max":825,"o":"m 761 990 l 761 924 l 146 924 l 146 577 l 448 577 q 723 504 624 577 q 825 288 825 428 q 715 76 825 159 q 453 0 614 0 l 81 0 l 81 65 l 453 65 q 676 128 592 65 q 760 288 760 191 q 684 452 760 395 q 448 512 603 512 l 81 512 l 81 990 l 761 990 z "},"6":{"ha":894,"x_min":81,"x_max":812,"o":"m 206 540 l 206 605 l 533 605 q 739 521 662 605 q 812 308 812 439 l 812 272 q 741 73 812 144 q 533 0 668 0 l 361 0 q 153 73 227 0 q 81 279 81 144 l 81 741 q 149 921 81 853 q 330 990 218 990 l 719 990 l 719 924 l 330 924 q 195 875 245 924 q 146 741 146 827 l 146 279 q 199 119 146 172 q 361 65 253 65 l 533 65 q 694 119 641 65 q 747 272 747 172 l 747 308 q 690 477 747 414 q 533 540 633 540 l 206 540 z "},"7":{"ha":720,"x_min":7,"x_max":627,"o":"m 627 0 l 562 0 l 562 924 l 7 924 l 7 990 l 627 990 l 627 0 z "},"8":{"ha":894,"x_min":81,"x_max":812,"o":"m 539 990 q 720 921 652 990 q 788 741 788 853 q 720 562 788 629 q 678 529 701 543 q 741 486 714 512 q 812 279 812 414 q 741 73 812 144 q 533 0 668 0 l 361 0 q 153 73 227 0 q 81 279 81 144 q 153 486 81 414 q 216 529 180 512 q 174 562 193 543 q 106 741 106 629 q 174 921 106 853 q 355 990 243 990 l 539 990 m 674 875 q 539 924 625 924 l 355 924 q 220 875 269 924 q 172 741 172 827 q 220 608 172 656 q 355 558 269 558 l 539 558 q 674 608 625 558 q 723 741 723 656 q 674 875 723 827 m 361 493 q 199 439 253 493 q 146 279 146 387 q 199 119 146 172 q 361 65 253 65 l 533 65 q 694 119 641 65 q 747 279 747 172 q 694 439 747 387 q 533 493 641 493 l 361 493 z "},"9":{"ha":894,"x_min":81,"x_max":812,"o":"m 690 422 l 690 357 l 361 357 q 155 441 232 357 q 81 661 81 523 l 81 711 q 153 917 81 845 q 361 990 227 990 l 533 990 q 741 917 668 990 q 812 711 812 845 l 812 248 q 745 68 812 136 q 564 0 676 0 l 149 0 l 149 65 l 564 65 q 699 115 649 65 q 747 248 747 163 l 747 711 q 694 871 747 818 q 533 924 641 924 l 361 924 q 199 871 253 924 q 146 711 146 818 l 146 661 q 203 486 146 548 q 361 422 260 422 l 690 422 z "},"\u0000":{"ha":0,"x_min":0,"x_max":0,"o":""}," ":{"ha":345,"x_min":0,"x_max":0,"o":""},"!":{"ha":228,"x_min":75,"x_max":153,"o":"m 146 990 l 146 264 l 81 264 l 81 990 l 146 990 m 75 79 l 153 79 l 153 0 l 75 0 l 75 79 z "},"\"":{"ha":406,"x_min":81,"x_max":325,"o":"m 146 990 l 146 696 l 81 696 l 81 990 l 146 990 m 325 990 l 325 696 l 260 696 l 260 990 l 325 990 z "},"#":{"ha":979,"x_min":81,"x_max":897,"o":"m 81 361 l 287 361 l 338 618 l 81 618 l 81 683 l 352 683 l 408 962 l 471 949 l 418 683 l 674 683 l 730 962 l 793 949 l 740 683 l 897 683 l 897 618 l 727 618 l 675 361 l 897 361 l 897 296 l 663 296 l 607 20 l 543 33 l 596 296 l 340 296 l 285 20 l 221 33 l 274 296 l 81 296 l 81 361 m 609 361 l 661 618 l 405 618 l 353 361 l 609 361 z "},"$":{"ha":810,"x_min":31,"x_max":784,"o":"m 674 998 l 674 939 l 441 939 l 441 589 l 374 589 l 374 939 l 298 939 q 157 880 216 939 q 97 734 97 819 q 157 588 97 648 q 298 529 216 529 l 517 529 q 707 450 628 529 q 784 265 784 373 q 707 79 784 157 q 517 1 628 1 l 441 1 l 441 -161 l 374 -161 l 374 1 l 66 1 l 66 60 l 517 60 q 658 119 599 60 q 718 265 718 180 q 658 411 718 351 q 517 470 599 470 l 441 470 l 441 120 l 374 120 l 374 470 l 298 470 q 108 549 186 470 q 31 734 31 626 q 108 920 31 842 q 298 998 186 998 l 374 998 l 374 1154 l 441 1154 l 441 998 l 674 998 z "},"%":{"ha":785,"x_min":68,"x_max":717,"o":"m 597 990 l 102 0 l 176 0 l 672 990 l 597 990 m 214 749 q 156 773 180 749 q 132 832 132 798 q 156 890 132 866 q 214 915 180 915 q 272 890 248 915 q 296 832 296 866 q 272 773 296 798 q 214 749 248 749 m 214 686 q 317 728 275 686 q 360 832 360 771 q 317 935 360 892 q 214 978 275 978 q 111 935 153 978 q 68 832 68 892 q 111 728 68 771 q 214 686 153 686 m 571 82 q 512 106 536 82 q 488 165 488 130 q 512 223 488 199 q 571 248 536 248 q 629 223 605 248 q 653 165 653 199 q 629 106 653 130 q 571 82 605 82 m 571 18 q 674 61 631 18 q 717 165 717 104 q 674 268 717 225 q 571 311 631 311 q 467 268 510 311 q 425 165 425 225 q 467 61 425 104 q 571 18 510 18 z "},"&":{"ha":847,"x_min":81,"x_max":861,"o":"m 479 669 q 537 794 538 731 q 496 896 536 859 q 385 934 453 935 q 276 895 318 933 q 236 802 237 860 q 263 695 235 746 q 338 595 281 663 l 399 523 q 630 277 497 408 q 597 218 617 243 q 342 489 446 366 q 172 298 212 407 q 161 182 149 237 q 214 92 172 129 q 385 39 276 39 q 604 140 505 39 q 722 393 687 239 l 786 381 q 720 190 766 272 l 861 52 l 813 7 l 684 134 q 650 94 668 113 q 385 -27 532 -27 q 172 43 252 -27 q 97 168 113 94 q 111 321 81 242 q 300 540 158 447 l 289 553 q 202 670 223 631 q 171 804 170 730 q 232 943 173 889 q 384 999 292 998 q 540 943 478 1000 q 602 795 600 888 q 528 624 604 706 q 444 554 494 589 l 404 604 q 479 669 450 636 z "},"'":{"ha":214,"x_min":68,"x_max":146,"o":"m 146 903 q 117 750 142 842 l 79 750 q 103 911 103 839 l 68 911 l 68 990 l 146 990 l 146 903 z "},"(":{"ha":498,"x_min":68,"x_max":430,"o":"m 430 45 l 430 -20 q 178 87 286 -20 q 68 382 68 197 l 68 621 q 178 916 68 806 q 430 1024 286 1024 l 430 958 q 224 869 313 958 q 133 621 133 779 l 133 382 q 224 133 133 224 q 430 45 312 45 z "},")":{"ha":498,"x_min":68,"x_max":430,"o":"m 68 45 q 274 133 186 45 q 365 382 365 224 l 365 621 q 273 869 365 779 q 68 958 184 958 l 68 1024 q 319 916 212 1024 q 430 621 430 806 l 430 382 q 320 87 430 197 q 68 -20 212 -20 l 68 45 z "},"*":{"ha":697,"x_min":81,"x_max":616,"o":"m 316 765 l 316 990 l 381 990 l 381 765 l 595 834 l 616 772 l 401 703 l 534 520 l 481 482 l 349 665 l 216 482 l 163 520 l 296 703 l 81 772 l 102 835 l 316 765 z "},"+":{"ha":817,"x_min":81,"x_max":736,"o":"m 81 496 l 376 496 l 376 790 l 441 790 l 441 496 l 736 496 l 736 431 l 441 431 l 441 136 l 376 136 l 376 431 l 81 431 l 81 496 z "},",":{"ha":241,"x_min":81,"x_max":160,"o":"m 160 -9 q 130 -127 156 -62 l 92 -127 q 117 0 117 -66 l 81 0 l 81 79 l 160 79 l 160 -9 z "},"-":{"ha":568,"x_min":102,"x_max":466,"o":"m 102 425 l 466 425 l 466 359 l 102 359 l 102 425 z "},".":{"ha":1049,"x_min":68,"x_max":973,"o":"m 68 -191 l 68 968 l 973 968 l 973 -191 l 68 -191 m 92 -164 l 949 -164 l 949 948 l 92 948 l 92 -164 m 492 319 l 494 319 l 501 319 l 501 307 q 503 221 503 259 l 498 220 l 494 220 q 492 313 492 268 l 492 315 l 492 319 m 830 319 l 831 319 l 840 319 q 840 310 840 313 q 842 221 840 273 l 834 220 l 831 220 q 829 307 830 259 q 830 319 830 315 m 536 316 l 538 316 q 543 308 538 315 q 541 288 541 296 l 541 275 q 551 236 541 245 l 551 236 q 575 315 566 236 l 576 315 q 585 313 585 313 q 581 254 581 273 q 589 233 581 233 q 591 220 591 222 l 585 220 q 572 241 576 220 l 571 241 q 553 222 564 222 l 549 222 q 531 264 536 222 q 530 279 530 267 l 530 286 q 536 316 530 303 m 742 316 l 746 316 q 765 297 754 316 q 773 267 773 282 l 773 261 q 746 222 773 236 q 736 220 741 220 l 732 220 q 708 249 711 220 l 708 255 q 735 315 708 289 q 742 316 741 316 m 169 313 l 175 313 q 194 286 194 310 q 172 253 194 263 q 153 248 163 250 l 153 223 l 153 223 q 143 225 149 223 l 143 248 l 140 248 l 136 249 q 140 262 136 256 l 143 262 l 143 262 q 139 290 143 290 q 135 297 135 294 q 169 313 147 313 m 718 255 l 718 250 q 735 233 718 235 q 760 252 750 233 q 764 264 764 257 l 764 266 q 746 302 764 284 q 744 303 744 302 q 720 269 732 303 q 718 255 718 262 m 152 295 q 153 263 153 271 q 153 262 153 263 q 178 273 173 266 q 184 286 184 280 q 174 300 184 298 l 170 300 q 152 295 152 298 m 274 297 q 293 264 287 297 q 283 261 292 264 q 274 283 279 283 q 260 233 262 277 q 261 222 261 223 q 251 221 254 221 q 242 280 242 268 q 252 281 250 281 l 252 281 q 254 268 252 278 l 255 268 q 274 297 262 297 m 364 293 q 387 271 378 293 q 388 260 388 265 l 388 258 q 364 222 388 233 q 358 221 361 221 q 340 247 340 224 q 357 291 340 281 q 364 293 358 292 m 416 293 q 441 233 429 293 q 441 228 441 233 q 433 223 436 223 q 418 277 423 265 q 406 230 412 269 q 402 223 405 230 l 397 223 q 391 262 393 223 q 390 277 390 271 q 399 279 395 279 q 401 265 401 267 l 402 265 q 416 293 407 293 m 804 293 q 827 228 814 293 q 819 223 821 223 q 802 277 808 268 q 789 227 798 269 q 787 223 787 223 l 783 223 q 776 277 778 223 q 786 279 780 279 q 787 264 787 266 l 787 264 q 804 293 792 293 m 320 292 q 332 280 332 288 l 332 279 q 326 274 332 278 l 325 274 q 316 279 322 279 q 305 271 307 279 q 325 267 305 268 q 338 244 338 260 q 325 221 338 227 l 319 220 l 316 220 q 293 235 300 220 l 293 236 q 299 243 294 238 l 300 243 q 319 233 308 233 q 328 244 328 236 q 314 254 326 254 q 295 269 295 254 l 295 271 q 320 292 295 292 m 618 292 q 632 279 627 292 l 632 279 q 623 274 625 274 q 615 279 623 278 q 604 272 607 279 l 604 271 q 623 267 604 268 q 636 243 636 261 q 620 220 636 225 l 614 220 q 591 235 599 220 l 591 236 q 597 243 596 243 l 598 243 q 616 233 606 233 q 626 244 626 236 q 615 254 626 252 q 595 262 598 254 q 593 271 593 269 q 618 292 593 292 m 847 291 l 847 291 q 857 290 856 290 q 856 272 856 277 l 856 266 q 865 242 857 242 l 865 242 q 878 288 878 251 l 878 288 l 888 288 l 888 286 q 892 226 892 233 q 872 188 892 195 q 869 188 871 188 l 865 188 q 850 201 853 188 q 849 208 849 204 l 849 208 q 851 218 849 218 l 852 218 q 860 214 858 214 l 859 208 q 865 201 859 202 l 867 201 q 882 230 882 201 q 882 244 882 233 l 881 244 q 863 228 876 228 l 863 228 q 846 260 850 228 l 846 271 q 847 291 846 278 m 224 290 q 240 275 240 288 l 240 271 q 214 247 240 258 l 207 247 q 218 236 207 239 q 233 248 226 236 l 235 248 q 241 238 241 240 q 220 223 229 223 l 216 223 q 195 254 198 223 q 217 290 195 281 l 224 290 m 462 290 l 469 290 q 488 260 488 284 q 487 236 487 245 q 488 225 487 236 q 479 220 482 220 l 479 220 l 477 227 q 462 222 469 222 l 457 222 q 442 236 442 224 l 442 241 q 464 265 442 262 q 477 261 471 264 l 477 262 q 466 279 475 279 q 454 272 460 279 l 452 272 q 446 279 450 273 l 446 281 q 462 290 454 290 m 667 290 q 683 275 683 288 q 654 247 683 255 l 650 247 l 650 245 q 661 236 654 236 q 676 248 667 236 l 677 248 q 683 240 677 248 q 669 225 683 234 q 663 223 666 223 l 658 223 q 638 253 642 223 q 659 290 638 280 l 667 290 m 350 248 q 358 235 351 235 l 360 235 q 378 259 376 240 l 378 261 q 364 279 374 279 l 363 279 q 351 257 354 279 q 350 248 350 252 m 207 261 q 229 273 220 261 l 229 275 q 223 276 224 276 q 207 263 212 276 l 207 261 m 650 261 l 652 261 q 673 274 663 261 q 667 276 669 276 l 665 276 q 650 262 654 276 l 650 261 m 452 240 l 452 238 q 459 234 452 236 q 476 245 471 234 q 463 250 471 250 q 452 240 452 248 m 419 172 q 429 149 428 172 l 429 147 l 425 146 l 424 146 q 418 161 422 161 q 413 148 414 161 q 414 145 414 146 q 415 119 414 138 q 421 121 418 121 l 423 121 l 423 111 l 416 109 q 419 62 419 70 l 412 62 q 409 106 409 98 l 408 106 q 401 104 405 104 l 401 116 q 408 117 406 116 q 406 153 406 132 q 418 172 408 172 l 419 172 m 553 172 q 564 147 562 172 l 559 146 l 557 146 l 557 147 q 553 161 557 157 q 547 151 547 157 q 549 119 547 145 q 549 119 549 119 q 556 121 553 121 l 557 121 l 557 115 l 557 111 q 549 109 557 111 l 551 106 q 553 62 551 98 l 546 62 q 543 106 546 66 q 535 104 537 104 l 535 116 l 543 117 q 541 152 541 148 q 553 172 541 172 m 481 161 l 484 161 l 488 161 l 488 155 q 490 65 488 113 l 482 65 q 481 134 481 109 l 481 161 m 498 161 l 499 161 l 505 161 l 505 140 q 507 65 505 119 l 499 65 q 497 157 497 110 l 497 159 q 498 161 497 161 m 359 159 q 366 157 364 157 q 364 129 364 138 l 366 129 l 374 130 l 374 119 q 364 117 373 119 l 367 67 l 366 66 l 360 66 q 357 117 358 85 l 348 117 l 348 127 l 355 128 l 357 128 l 357 140 q 359 159 357 159 m 674 159 q 682 157 676 159 q 680 138 680 149 l 680 129 l 682 129 l 690 130 l 690 119 l 688 119 l 680 117 l 684 67 l 680 66 l 676 66 q 674 117 674 108 l 664 117 l 665 122 l 665 127 l 672 128 l 673 128 l 673 129 q 674 159 673 143 m 773 159 q 781 157 775 159 q 780 134 780 145 l 780 129 l 781 129 l 789 130 l 789 125 l 789 119 q 780 117 789 119 l 780 113 q 783 67 780 103 l 781 66 l 775 66 l 772 117 l 764 117 l 764 127 l 771 128 l 772 128 l 773 159 m 274 157 l 281 157 q 296 141 290 157 q 292 135 292 137 l 290 135 q 276 145 284 145 q 252 127 264 145 q 246 104 246 115 l 246 101 q 262 77 246 81 q 268 77 264 77 q 289 90 289 79 l 289 97 q 281 99 286 99 l 274 99 l 274 111 q 296 104 293 111 q 298 98 298 100 q 296 79 296 81 q 299 61 296 71 q 294 58 298 61 l 293 58 q 289 73 290 58 q 269 64 285 67 l 268 64 q 239 99 242 64 l 239 102 q 269 155 239 141 l 274 157 m 587 135 q 610 109 603 135 l 610 100 q 587 66 610 77 l 583 65 q 566 79 572 65 q 565 90 565 86 l 565 93 q 578 132 565 121 q 587 135 583 135 m 640 135 q 663 71 650 135 l 662 71 q 656 68 659 68 q 640 122 646 114 q 624 68 635 117 l 623 68 l 620 68 q 614 119 616 68 l 619 121 l 621 121 q 623 98 623 110 l 623 98 q 640 135 629 135 m 330 132 q 344 119 344 130 q 345 117 345 119 q 321 93 345 102 q 311 91 317 91 l 311 90 q 322 79 311 83 l 323 79 q 338 90 330 79 l 340 90 q 345 83 340 88 l 345 83 q 325 68 335 68 l 321 68 q 302 90 308 68 l 302 100 q 320 131 302 122 q 330 132 323 132 m 734 132 l 742 132 q 758 113 753 132 q 760 101 760 102 q 758 83 760 97 q 760 68 760 81 l 755 65 l 753 65 l 751 73 q 734 66 745 66 l 732 66 q 718 79 718 68 l 718 85 q 738 106 720 106 q 752 101 746 106 l 752 103 q 740 123 752 120 l 738 123 q 726 117 734 123 l 726 117 q 722 122 725 117 l 722 123 q 734 132 728 132 m 430 131 q 437 129 431 131 q 447 79 437 79 q 466 123 460 87 q 467 131 467 127 l 467 131 q 474 129 469 131 q 472 98 472 113 l 472 90 q 475 77 472 84 q 472 70 472 73 l 471 70 q 465 87 466 73 l 464 87 q 451 68 461 77 l 445 68 q 431 119 431 68 l 431 125 l 430 131 m 572 93 q 582 77 573 77 l 583 77 q 601 94 593 77 q 603 102 603 100 q 588 123 599 123 l 585 123 q 572 93 575 123 m 310 102 q 336 117 326 102 q 329 121 335 121 l 327 121 q 310 102 314 121 m 724 83 q 732 77 726 77 l 736 77 q 751 90 745 77 q 739 95 745 95 l 738 95 q 724 83 724 93 m 344 31 q 355 28 345 31 q 352 -35 353 2 q 359 -81 352 -58 q 351 -88 351 -88 l 350 -88 q 346 -79 348 -88 l 345 -79 q 330 -90 345 -85 q 298 -62 308 -90 q 296 -43 296 -54 q 319 -3 296 -10 l 322 -3 q 342 -14 332 -3 l 342 -14 q 344 31 342 -8 m 214 26 l 224 23 q 223 -1 223 7 l 223 -11 q 233 -9 232 -9 q 235 -25 235 -22 l 233 -25 q 223 -26 227 -26 q 227 -87 225 -68 q 215 -89 218 -89 l 215 -88 q 212 -28 212 -47 l 210 -27 l 201 -27 l 201 -11 l 211 -11 l 211 -5 q 214 26 211 26 m 457 26 l 458 26 l 468 23 q 467 -7 467 4 l 467 -11 q 477 -9 476 -9 l 478 -18 l 478 -25 q 467 -26 467 -26 q 471 -87 467 -42 q 459 -89 462 -89 l 459 -88 q 456 -27 456 -37 l 444 -27 l 444 -11 l 455 -11 q 457 26 455 12 m 370 24 q 378 15 376 24 l 378 14 q 372 3 378 7 l 368 3 q 362 15 362 7 q 370 24 363 24 m 412 -3 q 439 -29 429 -3 q 441 -41 441 -37 l 441 -47 q 414 -87 441 -74 q 406 -89 412 -89 q 384 -61 387 -89 l 384 -52 q 404 -5 384 -17 q 412 -3 411 -3 m 543 -3 l 546 -3 q 553 -5 553 -3 l 553 -7 q 566 -3 559 -3 q 589 -33 583 -3 q 589 -43 589 -41 q 568 -86 587 -78 l 563 -87 l 556 -87 l 557 -92 q 557 -119 557 -96 l 546 -119 q 543 -3 543 -30 m 621 -3 q 647 -27 636 -3 q 650 -43 650 -36 q 624 -87 650 -73 q 614 -89 618 -89 q 593 -71 600 -89 q 592 -55 592 -62 q 612 -5 592 -18 q 621 -3 620 -3 m 758 -3 q 784 -27 774 -3 q 787 -40 787 -33 l 787 -45 q 760 -87 787 -75 q 751 -89 758 -89 q 730 -61 732 -89 l 730 -52 q 750 -5 730 -17 q 758 -3 757 -3 m 821 -3 q 840 -43 833 -3 l 840 -43 q 859 -3 846 -3 l 859 -3 q 886 -83 876 -3 l 885 -83 q 876 -87 878 -87 l 876 -87 q 859 -20 863 -20 q 847 -76 852 -35 q 840 -83 845 -83 q 833 -73 835 -83 q 820 -21 824 -21 q 809 -84 809 -60 q 798 -87 802 -87 l 798 -86 l 789 -16 q 801 -12 798 -12 q 804 -33 802 -17 l 805 -33 q 821 -3 811 -3 m 175 -4 q 191 -18 191 -7 l 191 -19 q 183 -25 191 -20 l 181 -25 q 172 -20 181 -20 l 172 -20 q 158 -26 163 -20 l 158 -29 q 179 -33 158 -33 q 197 -59 197 -41 l 197 -62 q 182 -88 197 -81 q 176 -90 179 -90 l 170 -90 q 143 -73 154 -90 q 151 -62 143 -70 l 153 -62 q 173 -75 158 -75 q 185 -61 185 -75 q 171 -49 185 -51 q 149 -41 153 -49 q 146 -33 146 -35 l 146 -27 q 175 -4 146 -4 m 484 -5 q 494 -7 492 -7 q 493 -31 493 -23 l 493 -35 q 501 -64 493 -57 l 505 -64 q 519 -16 519 -52 l 519 -9 l 531 -9 l 531 -9 q 536 -79 536 -70 l 536 -86 q 517 -127 536 -116 q 507 -130 511 -130 q 487 -116 492 -130 q 486 -110 486 -113 l 486 -104 q 488 -94 486 -94 l 498 -98 l 497 -104 l 497 -106 q 505 -113 497 -112 l 507 -113 q 524 -91 521 -113 q 525 -83 525 -88 l 525 -69 l 524 -60 l 524 -60 q 504 -81 517 -81 l 503 -81 q 482 -47 487 -81 q 481 -33 481 -41 l 481 -27 q 484 -5 481 -5 m 701 -5 l 706 -5 q 716 -12 710 -5 q 724 -24 724 -20 q 715 -33 716 -33 l 715 -33 q 703 -22 708 -22 l 702 -22 q 690 -41 694 -26 l 687 -56 q 696 -72 687 -71 l 699 -72 q 722 -61 706 -72 l 722 -61 q 726 -76 726 -75 q 694 -88 709 -88 q 675 -57 679 -88 q 688 -14 675 -34 q 701 -5 696 -5 m 364 -7 l 372 -7 l 376 -7 q 376 -13 376 -9 q 378 -87 376 -58 l 366 -87 l 366 -81 q 364 -7 364 -35 m 237 -7 q 249 -12 249 -11 l 249 -25 q 257 -71 249 -71 l 260 -71 q 277 -33 272 -58 q 281 -7 280 -26 l 282 -7 q 292 -12 292 -9 q 290 -52 290 -40 l 290 -58 q 294 -72 290 -65 q 287 -84 294 -76 l 287 -84 q 279 -67 279 -76 l 278 -67 q 259 -87 271 -87 l 257 -87 q 237 -24 237 -87 l 237 -7 m 308 -45 q 328 -73 308 -68 l 330 -73 q 340 -55 338 -73 l 340 -53 q 326 -20 340 -28 l 322 -20 l 321 -20 q 308 -43 309 -20 l 308 -45 m 395 -56 q 406 -73 395 -71 l 408 -73 q 428 -53 418 -73 q 429 -47 429 -50 l 429 -41 q 413 -20 425 -20 l 412 -20 q 395 -56 397 -20 m 553 -25 q 555 -71 553 -27 l 560 -71 q 578 -43 575 -71 q 566 -20 576 -20 l 566 -20 q 553 -25 559 -20 m 604 -56 l 604 -59 q 614 -73 604 -71 l 615 -73 q 635 -55 626 -73 q 638 -43 638 -50 q 619 -20 634 -20 q 604 -56 606 -20 m 741 -56 q 752 -73 741 -73 l 754 -73 q 774 -52 764 -73 q 775 -45 775 -48 l 775 -41 q 758 -20 770 -20 l 758 -20 q 741 -56 744 -20 m 663 -65 q 671 -75 669 -65 l 671 -78 q 663 -87 669 -87 q 655 -77 656 -87 q 663 -65 656 -65 m 486 928 l 486 764 l 309 764 q 239 738 273 764 l 239 745 q 486 928 339 928 m 543 928 l 549 928 q 739 827 639 928 q 777 764 777 781 l 543 764 l 543 928 m 290 707 l 486 707 l 486 643 q 435 656 463 656 l 290 656 q 277 669 277 656 l 277 694 q 290 707 279 707 m 543 707 l 802 707 l 808 643 l 808 631 q 720 429 808 505 l 606 429 q 543 492 543 437 l 543 707 m 220 656 l 227 656 q 321 599 227 607 l 441 599 q 486 555 486 599 l 486 485 q 416 429 486 429 l 309 429 q 220 618 220 510 l 220 656 m 511 410 l 517 410 q 644 372 559 372 l 644 365 q 517 340 571 340 l 511 340 q 385 365 457 340 l 385 372 q 511 410 474 372 z "},"/":{"ha":351,"x_min":7,"x_max":345,"o":"m 345 990 l 77 0 l 7 0 l 274 990 l 345 990 z "},":":{"ha":241,"x_min":81,"x_max":160,"o":"m 81 79 l 160 79 l 160 0 l 81 0 l 81 79 m 81 682 l 160 682 l 160 603 l 81 603 l 81 682 z "},";":{"ha":241,"x_min":81,"x_max":160,"o":"m 160 -9 q 130 -127 156 -62 l 92 -127 q 117 0 117 -66 l 81 0 l 81 79 l 160 79 l 160 -9 m 81 682 l 160 682 l 160 603 l 81 603 l 81 682 z "},"<":{"ha":667,"x_min":65,"x_max":613,"o":"m 65 475 l 613 739 l 613 667 l 138 438 l 613 209 l 613 136 l 65 401 l 65 475 z "},"=":{"ha":716,"x_min":81,"x_max":635,"o":"m 81 614 l 635 614 l 635 549 l 81 549 l 81 614 m 81 343 l 635 343 l 635 278 l 81 278 l 81 343 z "},">":{"ha":667,"x_min":65,"x_max":613,"o":"m 613 401 l 65 136 l 65 209 l 540 438 l 65 667 l 65 739 l 613 475 l 613 401 z "},"?":{"ha":696,"x_min":81,"x_max":615,"o":"m 81 724 q 159 912 81 834 q 349 990 238 990 q 537 912 458 990 q 615 724 615 834 q 554 527 615 596 q 427 444 518 486 q 355 401 374 418 q 323 326 323 372 l 323 205 l 258 205 l 258 326 q 301 442 258 399 q 399 502 327 468 q 501 569 473 536 q 550 724 550 624 q 491 866 550 807 q 349 925 432 925 q 205 866 264 925 q 146 724 146 807 l 81 724 m 252 79 l 331 79 l 331 0 l 252 0 l 252 79 z "},"@":{"ha":1444,"x_min":81,"x_max":1402,"o":"m 669 34 q 644 35 658 34 q 470 136 538 45 q 404 345 404 222 q 406 385 404 364 q 513 628 420 528 q 730 731 608 731 q 754 730 741 731 q 928 629 861 720 q 955 588 943 610 q 973 723 971 708 l 1038 715 q 994 389 1024 610 q 992 379 993 385 q 986 335 990 357 q 950 89 956 121 q 952 58 947 69 l 952 57 q 967 44 956 48 q 996 40 979 40 q 1038 47 1015 40 q 1214 170 1141 74 q 1285 378 1281 260 l 1285 400 q 1124 786 1285 631 q 739 945 968 937 l 716 945 q 313 779 480 945 q 146 376 146 612 q 309 -37 146 123 q 532 -176 400 -127 q 804 -222 660 -222 q 1356 -5 1142 -222 l 1402 -51 q 804 -288 1168 -288 q 510 -237 648 -288 q 263 -83 365 -184 q 81 376 81 96 q 267 825 81 640 q 716 1011 453 1011 l 742 1010 q 1170 833 996 1001 q 1351 400 1351 659 q 1350 375 1351 391 q 1265 132 1345 237 q 1055 -16 1180 17 q 997 -25 1025 -24 q 944 -17 967 -25 q 893 30 909 -3 q 886 100 881 60 q 893 145 888 111 l 893 144 l 922 346 l 928 396 q 929 420 929 408 q 876 590 929 520 q 748 665 825 658 q 730 666 740 666 q 561 584 636 666 q 471 379 483 499 q 469 345 469 363 q 522 174 469 244 q 650 100 573 107 q 669 99 659 99 q 865 193 758 99 l 852 104 q 669 34 770 34 z "},"A":{"ha":880,"x_min":7,"x_max":873,"o":"m 673 399 l 523 852 q 488 907 511 888 q 440 925 467 925 q 393 907 414 925 q 357 852 369 888 l 75 0 l 7 0 l 296 872 q 351 957 313 926 q 440 990 391 990 q 530 957 490 990 q 585 872 567 926 l 873 0 l 805 0 l 694 334 l 248 334 l 269 399 l 673 399 z "},"B":{"ha":823,"x_min":81,"x_max":776,"o":"m 608 529 q 703 486 659 522 q 776 279 776 414 q 703 73 776 144 q 496 0 631 0 l 201 0 l 201 65 l 496 65 q 657 119 604 65 q 710 279 710 172 q 657 439 710 387 q 496 493 604 493 l 202 493 l 202 558 l 469 558 q 604 608 553 558 q 652 741 652 656 q 604 875 652 827 q 469 924 553 924 l 237 924 q 173 898 200 924 q 146 834 146 871 l 146 0 l 81 0 l 81 834 q 127 944 81 899 q 237 990 173 990 l 469 990 q 650 921 581 990 q 717 741 717 853 q 650 562 717 629 q 608 529 631 543 z "},"C":{"ha":805,"x_min":81,"x_max":770,"o":"m 770 990 l 770 925 l 702 926 q 309 873 410 926 q 146 495 146 787 q 309 117 146 204 q 702 65 410 64 l 770 65 l 770 0 l 702 0 q 262 60 375 -1 q 81 495 81 160 q 262 930 81 830 q 702 990 375 991 l 770 990 z "},"D":{"ha":901,"x_min":81,"x_max":863,"o":"m 81 0 l 81 834 q 127 944 81 899 q 237 990 173 990 l 447 990 q 693 904 590 990 q 831 694 786 827 q 863 495 863 600 q 831 295 863 390 q 693 85 786 163 q 447 0 590 0 l 207 0 l 207 65 l 447 65 q 653 138 566 65 q 769 316 731 203 q 798 495 798 400 q 769 673 798 589 q 653 852 731 786 q 447 924 566 924 l 237 924 q 173 898 200 924 q 146 834 146 871 l 146 0 l 81 0 z "},"E":{"ha":762,"x_min":81,"x_max":720,"o":"m 700 558 l 700 493 l 146 493 l 146 156 q 173 92 146 118 q 237 65 200 65 l 714 65 l 714 0 l 237 0 q 127 45 173 0 q 81 156 81 92 l 81 834 q 127 944 81 899 q 237 990 173 990 l 720 990 l 720 924 l 237 924 q 173 898 200 924 q 146 834 146 871 l 146 558 l 700 558 z "},"F":{"ha":646,"x_min":81,"x_max":625,"o":"m 591 558 l 591 493 l 146 493 l 146 0 l 81 0 l 81 834 q 127 944 81 899 q 237 990 173 990 l 625 990 l 625 924 l 237 924 q 173 898 200 924 q 146 834 146 871 l 146 558 l 591 558 z "},"G":{"ha":927,"x_min":68,"x_max":873,"o":"m 438 462 l 438 528 l 873 528 l 873 402 q 763 107 873 217 q 471 0 656 0 q 178 107 286 0 q 68 402 68 217 l 68 587 q 178 882 68 772 q 471 990 286 990 l 737 990 l 737 924 l 471 924 q 224 836 313 924 q 133 587 133 745 l 133 402 q 224 153 133 244 q 471 65 312 65 q 717 153 629 65 q 808 402 808 244 l 808 462 l 438 462 z "},"H":{"ha":814,"x_min":81,"x_max":732,"o":"m 732 0 l 667 0 l 667 493 l 146 493 l 146 0 l 81 0 l 81 990 l 146 990 l 146 558 l 667 558 l 667 990 l 732 990 l 732 0 z "},"I":{"ha":269,"x_min":102,"x_max":167,"o":"m 167 0 l 102 0 l 102 990 l 167 990 l 167 0 z "},"J":{"ha":489,"x_min":7,"x_max":408,"o":"m 7 0 l 7 65 l 68 65 q 268 138 195 65 q 342 340 342 212 l 342 990 l 408 990 l 408 340 q 314 92 408 186 q 68 0 222 0 l 7 0 z "},"K":{"ha":713,"x_min":81,"x_max":713,"o":"m 618 0 l 222 372 q 180 425 195 398 q 162 495 162 458 q 180 564 162 531 q 222 617 195 591 l 617 990 l 712 990 l 267 570 q 237 534 247 551 q 228 495 228 515 q 237 456 228 474 q 267 420 247 439 l 713 0 l 618 0 m 146 0 l 81 0 l 81 990 l 146 990 l 146 0 z "},"L":{"ha":671,"x_min":81,"x_max":665,"o":"m 665 65 l 665 0 l 237 0 q 127 45 173 0 q 81 156 81 92 l 81 990 l 146 990 l 146 156 q 173 92 146 118 q 237 65 200 65 l 665 65 z "},"M":{"ha":1110,"x_min":68,"x_max":1042,"o":"m 68 0 l 112 867 q 151 956 115 920 q 239 990 186 990 q 325 957 289 990 q 370 872 360 925 l 499 202 q 513 185 501 193 q 555 175 530 175 q 597 185 581 175 q 611 202 609 193 l 740 872 q 788 957 750 924 q 876 990 825 990 q 962 956 928 990 q 998 867 996 921 l 1042 0 l 977 0 l 933 865 q 916 910 932 893 q 876 924 901 924 q 831 908 850 924 q 804 860 810 890 l 675 190 q 631 130 667 152 q 555 110 599 110 q 479 130 511 110 q 435 190 443 152 l 306 860 q 281 909 300 891 q 239 924 264 924 q 196 909 212 924 q 177 865 178 891 l 133 0 l 68 0 z "},"N":{"ha":912,"x_min":81,"x_max":831,"o":"m 146 0 l 81 0 l 81 833 q 119 944 81 901 q 222 990 159 990 q 324 959 286 990 q 389 842 365 925 l 586 166 q 625 85 603 108 q 686 65 646 65 q 745 86 726 65 q 766 157 766 109 l 766 990 l 831 990 l 831 157 q 793 43 831 83 q 686 0 755 0 q 579 39 620 0 q 524 148 545 73 l 327 824 q 282 909 308 887 q 222 924 263 924 q 169 901 189 924 q 146 833 146 876 l 146 0 z "},"O":{"ha":968,"x_min":81,"x_max":886,"o":"m 484 990 q 777 882 669 990 q 886 587 886 772 l 886 402 q 777 107 886 217 q 484 0 669 0 q 191 107 299 0 q 81 402 81 217 l 81 587 q 192 882 81 772 q 484 990 300 990 m 730 836 q 484 924 642 924 q 238 836 327 924 q 146 587 146 745 l 146 402 q 237 153 146 244 q 484 65 326 65 q 730 153 642 65 q 821 402 821 244 l 821 587 q 730 836 821 745 z "},"P":{"ha":793,"x_min":81,"x_max":763,"o":"m 146 0 l 81 0 l 81 834 q 127 944 81 899 q 237 990 173 990 l 484 990 q 691 917 618 990 q 763 690 763 845 q 691 456 763 529 q 484 384 618 384 l 208 384 l 208 449 l 484 449 q 645 503 591 449 q 698 690 698 555 q 645 871 698 818 q 484 924 591 924 l 237 924 q 173 898 200 924 q 146 834 146 871 l 146 0 z "},"Q":{"ha":968,"x_min":81,"x_max":886,"o":"m 648 97 l 486 307 l 538 347 l 863 -72 l 810 -112 l 690 44 q 484 0 603 0 q 191 107 299 0 q 81 402 81 217 l 81 587 q 192 882 81 772 q 484 990 300 990 q 777 882 669 990 q 886 587 886 772 l 886 402 q 787 119 886 227 l 747 171 q 821 402 821 259 l 821 587 q 730 836 821 745 q 484 924 642 924 q 238 836 327 924 q 146 587 146 745 l 146 402 q 237 153 146 244 q 484 65 326 65 q 648 97 578 65 z "},"R":{"ha":884,"x_min":81,"x_max":876,"o":"m 764 0 l 248 329 q 215 377 223 347 q 218 435 208 406 q 253 480 229 463 q 307 496 277 496 l 546 496 q 707 550 653 496 q 760 711 760 603 q 707 871 760 818 q 546 924 653 924 l 237 924 q 173 898 200 924 q 146 834 146 871 l 146 0 l 81 0 l 81 834 q 127 944 81 899 q 237 990 173 990 l 546 990 q 753 917 680 990 q 825 711 825 845 q 753 504 825 576 q 546 431 680 431 l 307 431 q 290 427 297 431 q 279 412 283 421 q 278 393 275 402 q 286 382 280 386 l 876 0 l 764 0 z "},"S":{"ha":852,"x_min":54,"x_max":798,"o":"m 758 990 l 758 924 l 426 924 q 198 869 280 924 q 119 726 119 815 q 216 573 119 618 q 430 527 275 546 q 683 469 614 505 q 798 264 798 410 q 691 67 798 140 q 426 0 592 0 l 54 0 l 54 65 l 426 65 q 654 121 572 65 q 732 264 732 174 q 635 417 732 372 q 422 463 577 444 q 170 520 238 484 q 54 726 54 580 q 161 922 54 850 q 426 990 260 990 l 758 990 z "},"T":{"ha":800,"x_min":7,"x_max":793,"o":"m 793 989 l 793 925 l 433 925 l 433 0 l 367 0 l 367 925 l 7 925 l 7 989 l 793 989 z "},"U":{"ha":918,"x_min":81,"x_max":837,"o":"m 772 990 l 837 990 l 837 402 q 734 117 837 228 q 459 0 625 0 q 199 102 307 0 q 81 402 81 215 l 81 990 l 146 990 l 146 402 q 244 149 146 243 q 459 65 332 65 q 686 161 596 65 q 772 402 772 253 l 772 990 z "},"V":{"ha":880,"x_min":7,"x_max":873,"o":"m 75 990 l 357 138 q 393 83 369 102 q 440 65 414 65 q 488 83 467 65 q 523 138 511 102 l 805 990 l 873 990 l 585 118 q 530 33 567 64 q 440 0 490 0 q 351 33 391 0 q 296 118 313 64 l 7 990 l 75 990 z "},"W":{"ha":1211,"x_min":41,"x_max":1170,"o":"m 106 990 l 227 128 q 248 80 231 97 q 289 65 264 65 q 330 81 314 65 q 356 130 350 98 l 486 800 q 529 860 493 838 q 605 880 562 880 q 682 860 648 880 q 725 800 718 838 l 854 130 q 881 81 860 100 q 926 65 899 65 q 963 79 949 65 q 983 128 979 95 l 1104 990 l 1170 990 l 1048 119 q 1009 33 1040 64 q 926 0 977 0 q 838 33 876 0 q 790 117 800 66 l 661 787 q 648 804 659 798 q 605 814 631 814 q 563 804 579 814 q 549 787 551 798 l 420 117 q 374 33 410 65 q 289 0 339 0 q 203 33 238 0 q 162 119 170 66 l 41 990 l 106 990 z "},"X":{"ha":770,"x_min":7,"x_max":764,"o":"m 7 0 l 222 397 q 294 495 260 467 q 222 593 260 523 l 7 990 l 81 990 l 279 625 q 333 547 311 567 q 385 528 354 528 q 437 546 417 528 q 494 629 459 566 l 690 990 l 764 990 l 551 598 q 478 495 510 524 q 551 392 510 467 l 764 0 l 690 0 l 494 361 q 437 444 459 425 q 385 463 417 463 q 333 444 354 463 q 279 366 311 423 l 81 0 l 7 0 z "},"Y":{"ha":736,"x_min":10,"x_max":726,"o":"m 80 990 l 283 474 q 317 416 300 433 q 370 399 336 399 q 422 417 403 399 q 456 474 440 433 l 656 990 l 726 990 l 517 451 q 466 369 495 395 q 402 337 439 344 l 402 0 l 337 0 l 337 337 q 274 369 301 344 q 222 450 244 396 l 10 990 l 80 990 z "},"Z":{"ha":836,"x_min":54,"x_max":781,"o":"m 65 922 l 65 987 l 618 987 q 701 963 663 987 q 758 899 739 940 q 775 808 780 854 q 736 730 770 759 l 140 208 q 124 172 126 195 q 134 116 121 144 q 168 78 146 92 q 216 65 189 65 l 781 65 l 781 0 l 216 0 q 134 23 171 0 q 76 87 96 47 q 59 178 54 132 q 98 256 64 227 l 694 779 q 711 814 708 791 q 700 870 713 842 q 667 908 688 895 q 618 922 646 922 l 65 922 z "},"[":{"ha":387,"x_min":34,"x_max":353,"o":"m 353 1024 l 353 958 l 99 958 l 99 31 l 353 31 l 353 -34 l 34 -34 l 34 1024 l 353 1024 z "},"\\":{"ha":351,"x_min":7,"x_max":345,"o":"m 77 990 l 345 0 l 274 0 l 7 990 l 77 990 z "},"]":{"ha":387,"x_min":34,"x_max":353,"o":"m 353 1024 l 353 -34 l 34 -34 l 34 31 l 288 31 l 288 958 l 34 958 l 34 1024 l 353 1024 z "},"^":{"ha":728,"x_min":83,"x_max":645,"o":"m 397 954 l 645 416 l 573 416 l 364 870 l 155 416 l 83 416 l 332 954 l 397 954 z "},"_":{"ha":581,"x_min":-14,"x_max":595,"o":"m -14 -1 l 595 -1 l 595 -66 l -14 -66 l -14 -1 z "},"`":{"ha":377,"x_min":7,"x_max":282,"o":"m 103 985 l 282 762 l 222 762 l 7 985 l 103 985 z "},"a":{"ha":817,"x_min":54,"x_max":736,"o":"m 616 161 l 616 68 q 395 0 530 0 q 148 92 240 0 q 54 340 54 185 q 148 590 54 496 q 395 682 240 682 q 642 590 551 682 q 736 340 736 496 l 736 0 l 671 0 l 671 340 q 596 543 671 469 q 395 616 524 616 q 194 543 267 616 q 119 340 119 469 q 194 138 119 212 q 395 65 267 65 q 596 138 524 65 q 616 161 607 149 z "},"b":{"ha":810,"x_min":81,"x_max":763,"o":"m 201 521 l 201 613 q 422 682 288 682 q 669 590 577 682 q 763 341 763 496 q 669 92 763 186 q 422 0 577 0 q 175 92 267 0 q 81 341 81 186 l 81 990 l 146 990 l 146 341 q 221 138 146 212 q 422 65 294 65 q 623 138 551 65 q 698 341 698 212 q 623 544 698 469 q 422 616 551 616 q 221 544 294 616 q 201 521 210 533 z "},"c":{"ha":667,"x_min":81,"x_max":631,"o":"m 631 617 l 575 617 q 283 583 364 618 q 146 341 146 525 q 283 100 146 157 q 575 66 364 65 l 631 66 l 631 1 l 575 1 q 239 43 332 0 q 81 341 81 114 q 239 640 81 568 q 575 682 332 682 l 631 682 l 631 617 z "},"d":{"ha":817,"x_min":54,"x_max":736,"o":"m 616 521 q 596 544 607 533 q 395 616 524 616 q 194 544 267 616 q 119 341 119 469 q 194 138 119 212 q 395 65 267 65 q 596 138 524 65 q 671 341 671 212 l 671 990 l 736 990 l 736 341 q 642 92 736 186 q 395 0 551 0 q 148 92 240 0 q 54 341 54 186 q 148 590 54 496 q 395 682 240 682 q 616 613 530 682 l 616 521 z "},"e":{"ha":774,"x_min":54,"x_max":734,"o":"m 656 443 q 574 564 632 519 q 395 616 504 616 q 194 543 267 616 q 119 340 119 469 q 138 227 119 286 q 194 138 157 174 q 395 65 267 65 l 660 65 l 660 0 l 395 0 q 148 92 240 0 q 54 340 54 185 q 148 590 54 496 q 395 682 240 682 q 613 615 526 682 q 727 427 702 547 l 734 397 l 188 241 l 172 303 l 656 443 z "},"f":{"ha":512,"x_min":81,"x_max":498,"o":"m 488 682 l 488 616 l 146 616 l 146 0 l 81 0 l 81 649 q 174 897 81 803 q 418 989 264 988 l 498 989 l 498 925 l 418 925 q 220 851 292 924 q 148 682 157 787 l 488 682 z "},"g":{"ha":817,"x_min":54,"x_max":736,"o":"m 623 169 l 623 73 q 395 0 534 0 q 148 92 240 0 q 54 340 54 185 q 148 590 54 496 q 395 682 240 682 q 642 590 551 682 q 736 340 736 496 l 736 33 q 643 -216 736 -123 q 396 -309 551 -308 l 202 -309 l 202 -243 l 396 -243 q 597 -170 524 -243 q 671 33 671 -96 l 671 340 q 596 543 671 469 q 395 616 524 616 q 194 543 267 616 q 119 340 119 469 q 194 138 119 212 q 395 65 267 65 q 596 138 524 65 q 623 169 611 153 z "},"h":{"ha":844,"x_min":81,"x_max":763,"o":"m 81 990 l 146 990 l 146 557 q 175 590 159 574 q 422 682 267 682 q 669 590 578 682 q 763 340 763 496 l 763 0 l 698 0 l 698 340 q 623 543 698 469 q 422 616 551 616 q 221 543 294 616 q 146 343 147 470 l 146 0 l 81 0 l 81 990 z "},"i":{"ha":255,"x_min":95,"x_max":160,"o":"m 160 0 l 95 0 l 95 682 l 160 682 l 160 0 m 160 925 l 95 925 l 95 990 l 160 990 l 160 925 z "},"j":{"ha":323,"x_min":-146,"x_max":194,"o":"m -146 -235 q 54 -162 -18 -235 q 128 41 128 -87 l 128 682 l 194 682 l 194 41 q 100 -208 194 -114 q -146 -300 9 -300 l -146 -235 m 194 925 l 129 925 l 129 990 l 194 990 l 194 925 z "},"k":{"ha":603,"x_min":81,"x_max":600,"o":"m 498 0 l 194 251 q 176 268 184 258 q 150 340 150 300 q 176 413 150 381 q 194 431 184 422 l 497 682 l 599 682 l 235 380 q 227 372 231 376 q 215 340 215 357 q 227 309 215 323 q 235 301 231 305 l 600 0 l 498 0 m 146 0 l 81 0 l 81 990 l 146 990 l 146 0 z "},"l":{"ha":269,"x_min":102,"x_max":167,"o":"m 167 0 l 102 0 l 102 990 l 167 990 l 167 0 z "},"m":{"ha":1298,"x_min":81,"x_max":1217,"o":"m 649 510 q 697 588 668 554 q 916 682 779 682 q 1135 588 1055 682 q 1217 340 1217 494 l 1217 0 l 1152 0 l 1152 340 q 1086 545 1152 471 q 916 616 1025 616 q 747 545 808 616 q 682 340 682 471 l 682 0 l 616 0 l 616 340 q 551 545 616 471 q 381 616 490 616 q 212 545 273 616 q 146 340 146 471 l 146 0 l 81 0 l 81 340 q 162 588 81 494 q 381 682 243 682 q 601 588 519 682 q 649 510 630 554 z "},"n":{"ha":844,"x_min":81,"x_max":763,"o":"m 763 0 l 698 0 l 698 340 q 623 543 698 469 q 422 616 551 616 q 221 543 294 616 q 146 340 146 469 l 146 0 l 81 0 l 81 340 q 175 590 81 496 q 422 682 267 682 q 669 590 578 682 q 763 340 763 496 l 763 0 z "},"o":{"ha":790,"x_min":54,"x_max":736,"o":"m 395 616 q 194 543 267 616 q 119 340 119 469 q 194 138 119 212 q 395 65 267 65 q 596 138 524 65 q 671 340 671 212 q 596 543 671 469 q 395 616 524 616 m 148 590 q 395 682 240 682 q 642 590 551 682 q 736 340 736 496 q 642 92 736 185 q 395 0 551 0 q 148 92 240 0 q 54 340 54 185 q 148 590 54 496 z "},"p":{"ha":817,"x_min":81,"x_max":763,"o":"m 201 160 q 221 137 210 148 q 422 64 294 64 q 623 137 551 64 q 698 340 698 212 q 623 543 698 469 q 422 616 551 616 q 221 543 294 616 q 146 340 146 469 l 146 -309 l 81 -309 l 81 340 q 175 589 81 495 q 422 681 267 681 q 669 589 577 681 q 763 340 763 495 q 669 91 763 184 q 422 -1 577 -1 q 201 68 288 -1 l 201 160 z "},"q":{"ha":817,"x_min":54,"x_max":736,"o":"m 616 160 l 616 68 q 395 -1 530 -1 q 148 91 240 -1 q 54 340 54 184 q 148 589 54 495 q 395 681 240 681 q 642 589 551 681 q 736 340 736 495 l 736 -309 l 671 -309 l 671 340 q 596 543 671 469 q 395 616 524 616 q 194 543 267 616 q 119 340 119 469 q 194 137 119 212 q 395 64 267 64 q 596 137 524 64 q 616 160 607 148 z "},"r":{"ha":475,"x_min":81,"x_max":465,"o":"m 465 616 q 209 536 286 616 q 146 340 146 471 l 146 0 l 81 0 l 81 340 q 162 581 81 497 q 465 682 258 682 l 465 616 z "},"s":{"ha":644,"x_min":54,"x_max":590,"o":"m 563 682 l 563 616 l 322 616 q 169 581 223 616 q 119 495 119 548 q 184 401 119 429 q 326 373 222 385 q 507 333 458 358 q 590 186 590 291 q 511 46 590 98 q 322 0 440 0 l 54 0 l 54 65 l 322 65 q 475 101 420 65 q 524 186 524 133 q 460 280 524 252 q 318 309 421 296 q 137 349 186 323 q 54 495 54 391 q 133 635 54 583 q 322 682 204 682 l 563 682 z "},"t":{"ha":441,"x_min":123,"x_max":422,"o":"m 189 616 l 189 340 q 262 138 189 212 q 422 65 335 65 l 422 0 q 216 92 308 0 q 123 340 123 186 l 123 990 l 189 990 l 189 682 l 419 682 l 419 616 l 189 616 z "},"u":{"ha":831,"x_min":81,"x_max":749,"o":"m 684 682 l 749 682 l 749 340 q 656 92 749 185 q 416 0 564 0 q 175 92 267 0 q 81 340 81 185 l 81 682 l 146 682 l 146 340 q 221 138 146 212 q 416 65 294 65 q 610 138 537 65 q 684 340 684 212 l 684 682 z "},"v":{"ha":764,"x_min":7,"x_max":758,"o":"m 77 682 l 302 113 q 331 79 311 91 q 382 65 353 65 q 433 79 411 65 q 463 113 454 91 l 687 682 l 758 682 l 523 89 q 467 23 506 47 q 382 0 429 0 q 297 23 335 0 q 241 89 258 47 l 7 682 l 77 682 z "},"w":{"ha":1162,"x_min":14,"x_max":1148,"o":"m 80 682 l 198 117 q 220 79 203 92 q 267 65 238 65 q 315 79 298 65 q 338 120 330 93 l 447 497 q 496 576 461 547 q 581 608 534 608 q 656 587 625 608 q 715 497 696 559 l 824 120 q 850 78 832 92 q 895 65 867 65 q 941 78 924 65 q 964 117 958 92 l 1082 682 l 1148 682 l 1027 104 q 981 27 1017 54 q 895 0 947 0 q 810 26 845 0 q 762 102 776 53 l 652 479 q 620 533 641 518 q 581 543 606 543 q 538 526 557 543 q 509 479 518 510 l 400 102 q 357 31 387 56 q 267 0 321 0 q 180 27 216 0 q 134 104 144 55 l 14 682 l 80 682 z "},"x":{"ha":764,"x_min":14,"x_max":750,"o":"m 91 682 l 257 427 q 309 389 272 404 q 385 373 344 373 q 462 389 427 373 q 507 427 492 404 l 673 682 l 750 682 l 562 391 q 504 340 542 361 q 562 290 542 320 l 750 0 l 673 0 l 507 254 q 462 292 492 277 q 385 308 427 308 q 309 292 344 308 q 257 254 272 277 l 92 0 l 14 0 l 202 290 q 260 340 222 320 q 202 391 222 361 l 14 682 l 91 682 z "},"y":{"ha":817,"x_min":81,"x_max":736,"o":"m 671 338 l 671 682 l 736 682 l 736 33 q 643 -216 736 -123 q 396 -309 551 -308 l 202 -309 l 202 -243 l 396 -243 q 597 -170 524 -243 q 671 33 671 -96 l 671 124 q 642 92 658 107 q 409 0 551 0 q 175 92 267 0 q 81 340 81 185 l 81 682 l 146 682 l 146 340 q 221 138 146 212 q 409 65 294 65 q 596 138 524 65 q 671 338 670 212 z "},"z":{"ha":655,"x_min":34,"x_max":637,"o":"m 53 616 l 53 682 l 507 682 q 559 666 535 682 l 559 666 q 593 623 582 650 q 600 567 604 595 q 570 519 593 537 l 109 112 q 106 83 98 101 q 133 65 114 67 l 637 65 l 637 0 l 133 0 q 80 16 104 0 q 45 58 57 31 q 39 114 34 86 q 68 163 45 144 l 530 569 q 534 598 539 581 q 507 616 529 614 l 53 616 z "},"{":{"ha":387,"x_min":34,"x_max":353,"o":"m 353 958 q 261 953 281 958 q 241 943 247 949 q 231 914 235 936 q 224 807 226 887 q 218 699 222 727 q 199 625 211 657 q 170 566 187 591 q 125 519 152 541 q 113 511 119 515 q 136 492 125 502 q 188 423 168 463 q 217 323 208 384 l 227 140 q 229 87 227 100 q 236 54 231 67 q 245 39 240 44 q 264 32 250 35 q 353 28 283 28 l 353 -37 q 250 -32 277 -37 q 203 -9 220 -25 q 176 30 185 5 q 163 80 167 51 l 163 81 q 161 139 162 94 l 153 313 q 130 394 144 364 q 92 444 116 422 q 35 480 68 466 l 34 539 q 84 571 64 554 q 117 604 104 587 l 117 604 q 138 647 129 621 q 153 709 148 674 q 159 812 157 732 q 168 926 161 892 q 192 985 175 965 q 243 1016 210 1006 q 353 1024 272 1024 l 353 958 z "},"|":{"ha":363,"x_min":149,"x_max":214,"o":"m 149 1024 l 214 1024 l 214 -34 l 149 -34 l 149 1024 z "},"}":{"ha":387,"x_min":34,"x_max":353,"o":"m 34 1024 q 143 1016 115 1024 q 195 985 176 1006 q 219 926 212 965 q 228 812 226 892 q 233 709 229 732 q 248 647 239 674 q 270 604 258 621 l 270 604 q 302 571 282 587 q 353 539 323 554 l 351 480 q 294 444 318 466 q 256 394 271 422 q 234 313 242 364 l 225 139 q 223 81 224 94 l 223 80 q 211 30 220 51 q 184 -9 201 5 q 136 -32 166 -25 q 34 -37 110 -37 l 34 28 q 122 32 104 28 q 141 39 136 35 q 151 54 146 44 q 158 87 156 67 q 160 140 159 100 l 170 323 q 199 423 179 384 q 250 492 218 463 q 273 511 261 502 q 262 519 268 515 q 217 566 235 541 q 187 625 199 591 q 169 699 176 657 q 163 807 165 727 q 155 914 161 887 q 145 943 151 936 q 125 953 140 949 q 34 958 106 958 l 34 1024 z "},"~":{"ha":854,"x_min":83,"x_max":763,"o":"m 763 509 q 597 433 669 440 q 426 475 526 426 q 248 509 334 522 q 83 435 167 498 l 83 507 q 248 581 167 570 q 426 547 334 593 q 597 505 526 498 q 763 581 669 512 l 763 509 z "},"¡":{"ha":228,"x_min":75,"x_max":153,"o":"m 81 -309 l 81 417 l 146 417 l 146 -309 l 81 -309 m 153 603 l 75 603 l 75 682 l 153 682 l 153 603 z "},"¢":{"ha":668,"x_min":81,"x_max":631,"o":"m 448 679 l 448 892 l 513 892 l 513 682 q 575 682 543 682 l 631 682 l 631 617 l 575 617 q 283 583 364 618 q 146 341 146 525 q 283 100 146 157 q 575 66 364 65 l 631 66 l 631 1 l 575 1 q 513 1 543 1 l 513 -220 l 448 -220 l 448 4 q 239 43 305 12 q 81 341 81 114 q 239 640 81 568 q 448 679 305 670 z "},"£":{"ha":806,"x_min":41,"x_max":767,"o":"m 62 516 l 207 516 q 171 691 171 606 q 210 850 171 781 q 324 956 251 922 q 448 982 380 982 q 631 910 553 982 q 716 735 704 843 l 652 728 q 587 863 642 812 q 448 917 528 917 q 352 897 395 917 q 267 819 297 872 q 236 691 236 764 q 277 517 236 607 l 278 516 l 517 516 l 517 451 l 298 451 q 277 255 314 359 q 190 98 248 174 q 270 109 231 107 q 431 87 345 113 q 607 56 541 54 q 735 95 669 58 l 767 39 q 610 -9 688 -6 q 412 24 532 -12 q 273 44 337 47 q 91 -7 187 41 q 50 0 68 -20 q 41 23 41 10 q 52 45 42 37 q 215 277 170 151 q 232 451 250 372 l 62 451 l 62 516 z "},"¤":{"ha":612,"x_min":52,"x_max":560,"o":"m 308 643 q 194 596 241 643 q 146 482 146 549 q 194 368 146 415 q 308 321 241 321 q 422 368 374 321 q 469 482 469 415 q 422 596 469 549 q 308 643 374 643 m 444 663 l 513 733 l 559 687 l 490 617 q 534 482 534 559 q 488 344 534 404 l 560 272 l 514 226 l 441 298 q 308 256 383 256 q 172 300 231 256 l 98 226 l 52 272 l 126 346 q 81 482 81 405 q 125 615 81 557 l 53 687 l 99 733 l 170 662 q 308 708 229 708 q 444 663 385 708 z "},"¥":{"ha":753,"x_min":7,"x_max":746,"o":"m 746 990 l 435 498 l 595 498 l 595 433 l 408 433 l 408 321 l 595 321 l 595 256 l 408 256 l 408 0 l 343 0 l 343 256 l 157 256 l 157 321 l 343 321 l 343 433 l 157 433 l 157 498 l 317 498 l 7 990 l 83 990 l 376 526 l 669 990 l 746 990 z "},"¦":{"ha":228,"x_min":81,"x_max":146,"o":"m 81 1005 l 146 1005 l 146 550 l 81 550 l 81 1005 m 81 220 l 146 220 l 146 -235 l 81 -235 l 81 220 z "},"§":{"ha":667,"x_min":81,"x_max":585,"o":"m 146 -27 q 200 -144 146 -96 q 334 -194 255 -194 q 467 -144 412 -194 q 520 -27 520 -96 q 463 89 520 48 q 334 140 425 115 l 334 140 l 324 142 q 157 209 203 176 q 81 372 81 263 q 157 538 81 469 q 214 577 182 561 q 81 772 81 633 q 157 937 81 869 q 334 1004 230 1004 q 511 937 437 1004 q 585 772 585 869 l 520 772 q 467 889 520 840 q 334 939 412 939 q 200 889 255 939 q 146 772 146 840 q 208 656 146 696 q 341 605 243 631 q 509 538 463 571 q 585 372 585 483 q 511 207 585 275 q 455 169 486 184 q 585 -27 585 113 q 511 -193 585 -124 q 334 -259 437 -259 q 157 -193 230 -259 q 81 -27 81 -124 l 146 -27 m 334 539 q 200 490 255 539 q 146 372 146 441 q 208 256 146 296 q 341 205 243 232 q 467 255 415 208 q 520 372 520 304 q 463 488 520 448 q 334 539 425 514 z "},"¨":{"ha":285,"x_min":7,"x_max":278,"o":"m 72 817 l 7 817 l 7 882 l 72 882 l 72 817 m 278 817 l 213 817 l 213 882 l 278 882 l 278 817 z "},"©":{"ha":1223,"x_min":81,"x_max":1142,"o":"m 846 610 l 782 602 l 778 634 q 745 701 771 683 q 614 724 709 724 q 467 660 500 724 q 446 492 446 619 l 446 480 q 467 312 446 353 q 614 248 500 248 q 745 271 709 248 q 778 338 771 289 l 782 370 l 846 361 l 842 329 q 780 217 831 251 q 614 183 728 183 q 410 264 456 183 q 381 480 381 317 l 381 492 q 410 707 381 655 q 614 789 456 789 q 780 755 728 789 q 842 643 831 721 l 846 610 m 612 1017 q 237 861 392 1017 q 81 486 81 705 q 237 111 81 267 q 612 -45 392 -45 q 987 111 831 -45 q 1142 486 1142 267 q 987 861 1142 705 q 612 1017 831 1017 m 941 815 q 1077 486 1077 679 q 941 157 1077 293 q 612 21 804 21 q 283 157 419 21 q 146 486 146 293 q 283 815 146 679 q 612 951 419 951 q 941 815 804 951 z "},"«":{"ha":560,"x_min":27,"x_max":533,"o":"m 296 566 l 115 331 l 296 96 l 210 96 l 27 331 l 210 566 l 296 566 m 533 566 l 351 331 l 533 96 l 446 96 l 264 331 l 446 566 l 533 566 z "},"¬":{"ha":771,"x_min":81,"x_max":690,"o":"m 625 409 l 81 409 l 81 474 l 690 474 l 690 180 l 625 180 l 625 409 z "},"®":{"ha":1223,"x_min":81,"x_max":1142,"o":"m 836 202 l 778 174 l 647 435 l 479 435 l 479 188 l 414 188 l 414 761 l 719 761 q 831 717 806 761 q 848 601 848 689 l 848 595 q 832 479 848 507 q 720 435 807 435 l 836 202 m 479 500 l 719 500 q 775 526 762 500 q 783 595 783 543 l 783 601 q 775 669 783 653 q 719 696 762 696 l 479 696 l 479 500 m 612 1002 q 237 847 392 1002 q 81 471 81 691 q 237 96 81 252 q 612 -59 392 -59 q 987 96 831 -59 q 1142 471 1142 252 q 987 847 1142 691 q 612 1002 831 1002 m 941 801 q 1077 471 1077 665 q 941 142 1077 279 q 612 7 804 7 q 283 142 419 7 q 146 471 146 279 q 283 801 146 665 q 612 937 419 937 q 941 801 804 937 z "},"¯":{"ha":581,"x_min":95,"x_max":459,"o":"m 95 938 l 459 938 l 459 873 l 95 873 l 95 938 z "},"°":{"ha":616,"x_min":81,"x_max":534,"o":"m 308 991 q 468 925 401 991 q 534 765 534 859 q 468 604 534 671 q 308 538 401 538 q 148 604 214 538 q 81 765 81 671 q 148 925 81 859 q 308 991 214 991 m 422 879 q 308 926 374 926 q 194 879 241 926 q 146 765 146 831 q 194 650 146 698 q 308 604 241 604 q 422 650 374 604 q 469 765 469 698 q 422 879 469 831 z "},"±":{"ha":817,"x_min":75,"x_max":736,"o":"m 81 496 l 376 496 l 376 790 l 441 790 l 441 496 l 736 496 l 736 431 l 441 431 l 441 136 l 376 136 l 376 431 l 81 431 l 81 496 m 75 65 l 731 65 l 731 0 l 75 0 l 75 65 z "},"²":{"ha":762,"x_min":81,"x_max":680,"o":"m 113 958 l 113 1023 l 381 1023 q 593 969 513 1023 q 680 809 680 909 q 588 641 680 690 q 385 595 532 612 q 221 560 266 581 q 146 445 146 526 l 146 296 l 680 296 l 680 231 l 81 231 l 81 445 q 174 612 81 564 q 377 659 229 642 q 541 694 496 673 q 615 809 615 728 q 557 916 615 876 q 381 958 494 958 l 113 958 z "},"³":{"ha":762,"x_min":81,"x_max":680,"o":"m 81 958 l 81 1023 l 458 1023 q 606 967 549 1023 q 661 821 661 912 q 606 675 661 730 l 606 675 q 582 654 595 664 q 622 625 604 642 q 680 457 680 566 q 454 231 680 231 l 81 231 l 81 296 l 454 296 q 615 457 615 296 q 576 578 615 538 q 454 618 535 618 l 81 618 l 81 684 l 458 684 q 559 721 522 684 q 595 821 595 757 q 559 921 595 885 q 458 958 522 958 l 81 958 z "},"´":{"ha":377,"x_min":95,"x_max":370,"o":"m 370 985 l 155 762 l 95 762 l 274 985 l 370 985 z "},"µ":{"ha":844,"x_min":81,"x_max":763,"o":"m 146 124 l 146 -309 l 81 -309 l 81 682 l 146 682 l 146 338 q 221 138 147 212 q 422 65 294 65 q 623 138 551 65 q 698 339 697 212 l 698 682 l 763 682 l 763 0 l 698 0 l 698 124 q 669 92 685 107 q 422 0 578 0 q 175 92 267 0 q 146 124 159 107 z "},"¶":{"ha":794,"x_min":75,"x_max":767,"o":"m 532 917 l 532 -269 l 460 -269 l 460 373 l 396 373 q 169 467 263 373 q 75 682 75 562 q 169 902 75 814 q 396 989 263 989 l 767 989 l 767 917 l 683 917 l 683 -269 l 610 -269 l 610 917 l 532 917 z "},"·":{"ha":203,"x_min":68,"x_max":135,"o":"m 68 528 l 135 528 l 135 462 l 68 462 l 68 528 z "},"¸":{"ha":199,"x_min":14,"x_max":193,"o":"m 193 -54 l 71 -294 l 14 -294 l 119 -54 l 193 -54 z "},"¹":{"ha":446,"x_min":81,"x_max":365,"o":"m 365 231 l 300 231 l 300 958 l 81 958 l 81 1023 l 365 1023 l 365 231 z "},"º":{"ha":818,"x_min":81,"x_max":736,"o":"m 409 1023 q 671 896 588 1023 q 736 629 736 798 l 736 625 q 672 359 736 458 q 411 231 589 231 l 408 231 q 146 359 229 231 q 81 625 81 458 l 81 627 q 164 920 82 819 q 409 1023 248 1023 m 617 860 q 409 958 553 958 q 215 878 279 958 q 146 627 147 795 l 146 625 q 200 394 146 477 q 408 296 264 296 l 411 296 q 618 395 553 296 q 671 625 671 477 l 671 629 q 617 860 671 777 z "},"»":{"ha":560,"x_min":27,"x_max":533,"o":"m 114 566 l 296 331 l 114 96 l 27 96 l 209 331 l 27 566 l 114 566 m 351 566 l 533 331 l 351 96 l 264 96 l 446 331 l 264 566 l 351 566 z "},"¼":{"ha":1562,"x_min":81,"x_max":1480,"o":"m 365 231 l 300 231 l 300 958 l 81 958 l 81 1023 l 365 1023 l 365 231 m 902 1093 l 956 1068 l 469 -107 l 416 -83 l 902 1093 m 1324 0 l 1259 0 l 1259 178 l 810 178 l 810 220 l 1276 793 l 1324 793 l 1324 243 l 1480 243 l 1480 178 l 1324 178 l 1324 0 m 911 243 l 1259 243 l 1259 669 l 911 243 z "},"½":{"ha":1491,"x_min":81,"x_max":1463,"o":"m 365 231 l 300 231 l 300 958 l 81 958 l 81 1023 l 365 1023 l 365 231 m 863 1093 l 917 1068 l 431 -107 l 377 -83 l 863 1093 m 896 728 l 896 793 l 1164 793 q 1377 739 1297 793 q 1463 578 1463 679 q 1371 410 1463 459 q 1168 364 1316 382 q 1004 330 1049 350 q 930 214 930 295 l 930 65 l 1463 65 l 1463 0 l 865 0 l 865 214 q 957 382 865 334 q 1160 429 1013 411 q 1324 463 1280 443 q 1398 578 1398 497 q 1340 685 1398 645 q 1164 728 1277 728 l 896 728 z "},"¾":{"ha":1799,"x_min":81,"x_max":1755,"o":"m 81 958 l 81 1023 l 458 1023 q 606 967 549 1023 q 661 821 661 912 q 606 675 661 730 l 606 675 q 582 654 595 664 q 622 625 604 642 q 680 457 680 566 q 454 231 680 231 l 81 231 l 81 296 l 454 296 q 615 457 615 296 q 576 578 615 538 q 454 618 535 618 l 81 618 l 81 684 l 458 684 q 559 721 522 684 q 595 821 595 757 q 559 921 595 885 q 458 958 522 958 l 81 958 m 1149 1093 l 1203 1068 l 717 -107 l 663 -83 l 1149 1093 m 1598 0 l 1533 0 l 1533 178 l 1085 178 l 1085 220 l 1550 793 l 1598 793 l 1598 243 l 1755 243 l 1755 178 l 1598 178 l 1598 0 m 1185 243 l 1533 243 l 1533 669 l 1185 243 z "},"¿":{"ha":696,"x_min":81,"x_max":615,"o":"m 615 -42 q 537 -231 615 -153 q 348 -309 458 -309 q 159 -231 238 -309 q 81 -42 81 -153 q 142 155 81 85 q 269 238 178 195 q 342 281 323 263 q 373 356 373 310 l 373 476 l 438 476 l 438 356 q 395 239 438 282 q 297 180 370 214 q 195 113 224 145 q 146 -42 146 58 q 205 -184 146 -125 q 348 -243 264 -243 q 491 -184 432 -243 q 550 -42 550 -125 l 615 -42 m 444 603 l 366 603 l 366 682 l 444 682 l 444 603 z "},"À":{"ha":880,"x_min":7,"x_max":873,"o":"m 673 399 l 523 852 q 488 907 511 888 q 440 925 467 925 q 393 907 414 925 q 357 852 369 888 l 75 0 l 7 0 l 296 872 q 351 957 313 926 q 440 990 391 990 q 530 957 490 990 q 585 872 567 926 l 873 0 l 805 0 l 694 334 l 248 334 l 269 399 l 673 399 m 353 1294 l 532 1071 l 472 1071 l 256 1294 l 353 1294 z "},"Á":{"ha":880,"x_min":7,"x_max":873,"o":"m 673 399 l 523 852 q 488 907 511 888 q 440 925 467 925 q 393 907 414 925 q 357 852 369 888 l 75 0 l 7 0 l 296 872 q 351 957 313 926 q 440 990 391 990 q 530 957 490 990 q 585 872 567 926 l 873 0 l 805 0 l 694 334 l 248 334 l 269 399 l 673 399 m 624 1294 l 408 1071 l 349 1071 l 528 1294 l 624 1294 z "},"Â":{"ha":880,"x_min":7,"x_max":873,"o":"m 673 399 l 523 852 q 488 907 511 888 q 440 925 467 925 q 393 907 414 925 q 357 852 369 888 l 75 0 l 7 0 l 296 872 q 351 957 313 926 q 440 990 391 990 q 530 957 490 990 q 585 872 567 926 l 873 0 l 805 0 l 694 334 l 248 334 l 269 399 l 673 399 m 488 1274 l 667 1050 l 608 1050 l 440 1224 l 273 1050 l 213 1050 l 392 1274 l 488 1274 z "},"Ã":{"ha":880,"x_min":7,"x_max":873,"o":"m 673 399 l 523 852 q 488 907 511 888 q 440 925 467 925 q 393 907 414 925 q 357 852 369 888 l 75 0 l 7 0 l 296 872 q 351 957 313 926 q 440 990 391 990 q 530 957 490 990 q 585 872 567 926 l 873 0 l 805 0 l 694 334 l 248 334 l 269 399 l 673 399 m 297 1099 l 232 1113 l 239 1145 q 276 1211 246 1183 q 345 1238 307 1238 q 453 1200 383 1238 q 532 1167 510 1167 q 561 1177 549 1167 q 576 1206 572 1186 l 583 1239 l 648 1225 l 642 1194 q 604 1126 633 1152 q 532 1101 574 1101 q 420 1141 492 1101 q 345 1172 366 1172 q 321 1162 334 1172 q 303 1133 307 1150 l 297 1099 z "},"Ä":{"ha":880,"x_min":7,"x_max":873,"o":"m 673 399 l 523 852 q 488 907 511 888 q 440 925 467 925 q 393 907 414 925 q 357 852 369 888 l 75 0 l 7 0 l 296 872 q 351 957 313 926 q 440 990 391 990 q 530 957 490 990 q 585 872 567 926 l 873 0 l 805 0 l 694 334 l 248 334 l 269 399 l 673 399 m 370 1125 l 304 1125 l 304 1190 l 370 1190 l 370 1125 m 576 1125 l 511 1125 l 511 1190 l 576 1190 l 576 1125 z "},"Å":{"ha":880,"x_min":7,"x_max":873,"o":"m 673 399 l 523 852 q 488 907 511 888 q 440 925 467 925 q 393 907 414 925 q 357 852 369 888 l 75 0 l 7 0 l 296 872 q 351 957 313 926 q 440 990 391 990 q 530 957 490 990 q 585 872 567 926 l 873 0 l 805 0 l 694 334 l 248 334 l 269 399 l 673 399 m 441 1226 q 534 1188 495 1226 q 572 1095 572 1149 q 534 1001 572 1040 q 441 963 495 963 q 347 1001 386 963 q 309 1095 309 1040 q 347 1188 309 1149 q 441 1226 386 1226 m 494 1149 q 441 1171 472 1171 q 387 1149 408 1171 q 363 1095 363 1126 q 387 1040 363 1063 q 441 1018 408 1018 q 494 1040 472 1018 q 517 1095 517 1063 q 494 1149 517 1126 z "},"Æ":{"ha":1302,"x_min":7,"x_max":1223,"o":"m 1223 990 l 1223 924 l 808 924 q 744 898 771 924 q 718 834 718 871 l 718 558 l 1203 558 l 1203 493 l 718 493 l 718 156 q 744 92 718 118 q 808 65 771 65 l 1217 65 l 1217 0 l 808 0 q 698 45 744 0 q 652 156 652 92 l 652 334 l 186 334 l 75 0 l 7 0 l 296 872 q 351 957 313 926 q 440 990 391 990 l 1223 990 m 652 399 l 652 834 q 682 925 652 886 l 440 925 q 393 907 414 925 q 357 852 369 888 l 208 399 l 652 399 z "},"Ç":{"ha":805,"x_min":81,"x_max":770,"o":"m 770 990 l 770 925 l 702 926 q 309 873 410 926 q 146 495 146 787 q 309 117 146 204 q 702 65 410 64 l 770 65 l 770 0 l 702 0 q 262 60 375 -1 q 81 495 81 160 q 262 930 81 830 q 702 990 375 991 l 770 990 m 644 -54 l 522 -294 l 465 -294 l 570 -54 l 644 -54 z "},"È":{"ha":762,"x_min":81,"x_max":720,"o":"m 700 558 l 700 493 l 146 493 l 146 156 q 173 92 146 118 q 237 65 200 65 l 714 65 l 714 0 l 237 0 q 127 45 173 0 q 81 156 81 92 l 81 834 q 127 944 81 899 q 237 990 173 990 l 720 990 l 720 924 l 237 924 q 173 898 200 924 q 146 834 146 871 l 146 558 l 700 558 m 313 1294 l 492 1071 l 433 1071 l 217 1294 l 313 1294 z "},"É":{"ha":762,"x_min":81,"x_max":720,"o":"m 700 558 l 700 493 l 146 493 l 146 156 q 173 92 146 118 q 237 65 200 65 l 714 65 l 714 0 l 237 0 q 127 45 173 0 q 81 156 81 92 l 81 834 q 127 944 81 899 q 237 990 173 990 l 720 990 l 720 924 l 237 924 q 173 898 200 924 q 146 834 146 871 l 146 558 l 700 558 m 585 1294 l 369 1071 l 309 1071 l 488 1294 l 585 1294 z "},"Ê":{"ha":762,"x_min":81,"x_max":720,"o":"m 700 558 l 700 493 l 146 493 l 146 156 q 173 92 146 118 q 237 65 200 65 l 714 65 l 714 0 l 237 0 q 127 45 173 0 q 81 156 81 92 l 81 834 q 127 944 81 899 q 237 990 173 990 l 720 990 l 720 924 l 237 924 q 173 898 200 924 q 146 834 146 871 l 146 558 l 700 558 m 449 1274 l 628 1050 l 568 1050 l 401 1224 l 233 1050 l 174 1050 l 353 1274 l 449 1274 z "},"Ë":{"ha":762,"x_min":81,"x_max":720,"o":"m 700 558 l 700 493 l 146 493 l 146 156 q 173 92 146 118 q 237 65 200 65 l 714 65 l 714 0 l 237 0 q 127 45 173 0 q 81 156 81 92 l 81 834 q 127 944 81 899 q 237 990 173 990 l 720 990 l 720 924 l 237 924 q 173 898 200 924 q 146 834 146 871 l 146 558 l 700 558 m 330 1125 l 265 1125 l 265 1190 l 330 1190 l 330 1125 m 536 1125 l 471 1125 l 471 1190 l 536 1190 l 536 1125 z "},"Ì":{"ha":269,"x_min":-50,"x_max":226,"o":"m 167 0 l 102 0 l 102 990 l 167 990 l 167 0 m 47 1294 l 226 1071 l 166 1071 l -50 1294 l 47 1294 z "},"Í":{"ha":269,"x_min":43,"x_max":318,"o":"m 167 0 l 102 0 l 102 990 l 167 990 l 167 0 m 318 1294 l 102 1071 l 43 1071 l 222 1294 l 318 1294 z "},"Î":{"ha":269,"x_min":-93,"x_max":361,"o":"m 167 0 l 102 0 l 102 990 l 167 990 l 167 0 m 182 1274 l 361 1050 l 302 1050 l 134 1224 l -33 1050 l -93 1050 l 86 1274 l 182 1274 z "},"Ï":{"ha":269,"x_min":-1,"x_max":270,"o":"m 167 0 l 102 0 l 102 990 l 167 990 l 167 0 m 64 1125 l -1 1125 l -1 1190 l 64 1190 l 64 1125 m 270 1125 l 205 1125 l 205 1190 l 270 1190 l 270 1125 z "},"Ð":{"ha":978,"x_min":7,"x_max":924,"o":"m 142 528 l 142 834 q 188 944 142 899 q 298 990 234 990 l 508 990 q 754 904 651 990 q 892 694 847 827 q 924 495 924 600 q 892 295 924 390 q 754 85 847 163 q 508 0 651 0 l 298 0 q 188 45 234 0 q 142 156 142 92 l 142 463 l 7 463 l 7 528 l 142 528 m 208 528 l 547 528 l 547 463 l 208 463 l 208 156 q 234 92 208 118 q 298 65 261 65 l 508 65 q 714 138 627 65 q 830 316 792 203 q 859 495 859 400 q 830 673 859 589 q 714 852 792 786 q 508 924 627 924 l 298 924 q 234 898 261 924 q 208 834 208 871 l 208 528 z "},"Ñ":{"ha":912,"x_min":81,"x_max":831,"o":"m 146 0 l 81 0 l 81 833 q 119 944 81 901 q 222 990 159 990 q 324 959 286 990 q 389 842 365 925 l 586 166 q 625 85 603 108 q 686 65 646 65 q 745 86 726 65 q 766 157 766 109 l 766 990 l 831 990 l 831 157 q 793 43 831 83 q 686 0 755 0 q 579 39 620 0 q 524 148 545 73 l 327 824 q 282 909 308 887 q 222 924 263 924 q 169 901 189 924 q 146 833 146 876 l 146 0 m 313 1099 l 248 1113 l 255 1145 q 292 1211 262 1183 q 361 1238 323 1238 q 469 1200 399 1238 q 549 1167 526 1167 q 577 1177 566 1167 q 593 1206 589 1186 l 599 1239 l 664 1225 l 658 1194 q 620 1126 649 1152 q 548 1101 590 1101 q 437 1141 508 1101 q 361 1172 382 1172 q 338 1162 350 1172 q 319 1133 323 1150 l 313 1099 z "},"Ò":{"ha":968,"x_min":81,"x_max":886,"o":"m 484 990 q 777 882 669 990 q 886 587 886 772 l 886 402 q 777 107 886 217 q 484 0 669 0 q 191 107 299 0 q 81 402 81 217 l 81 587 q 192 882 81 772 q 484 990 300 990 m 730 836 q 484 924 642 924 q 238 836 327 924 q 146 587 146 745 l 146 402 q 237 153 146 244 q 484 65 326 65 q 730 153 642 65 q 821 402 821 244 l 821 587 q 730 836 821 745 m 397 1294 l 576 1071 l 516 1071 l 300 1294 l 397 1294 z "},"Ó":{"ha":968,"x_min":81,"x_max":886,"o":"m 484 990 q 777 882 669 990 q 886 587 886 772 l 886 402 q 777 107 886 217 q 484 0 669 0 q 191 107 299 0 q 81 402 81 217 l 81 587 q 192 882 81 772 q 484 990 300 990 m 730 836 q 484 924 642 924 q 238 836 327 924 q 146 587 146 745 l 146 402 q 237 153 146 244 q 484 65 326 65 q 730 153 642 65 q 821 402 821 244 l 821 587 q 730 836 821 745 m 667 1294 l 452 1071 l 392 1071 l 571 1294 l 667 1294 z "},"Ô":{"ha":968,"x_min":81,"x_max":886,"o":"m 484 990 q 777 882 669 990 q 886 587 886 772 l 886 402 q 777 107 886 217 q 484 0 669 0 q 191 107 299 0 q 81 402 81 217 l 81 587 q 192 882 81 772 q 484 990 300 990 m 730 836 q 484 924 642 924 q 238 836 327 924 q 146 587 146 745 l 146 402 q 237 153 146 244 q 484 65 326 65 q 730 153 642 65 q 821 402 821 244 l 821 587 q 730 836 821 745 m 532 1274 l 711 1050 l 652 1050 l 484 1224 l 317 1050 l 257 1050 l 436 1274 l 532 1274 z "},"Õ":{"ha":968,"x_min":81,"x_max":886,"o":"m 484 990 q 777 882 669 990 q 886 587 886 772 l 886 402 q 777 107 886 217 q 484 0 669 0 q 191 107 299 0 q 81 402 81 217 l 81 587 q 192 882 81 772 q 484 990 300 990 m 730 836 q 484 924 642 924 q 238 836 327 924 q 146 587 146 745 l 146 402 q 237 153 146 244 q 484 65 326 65 q 730 153 642 65 q 821 402 821 244 l 821 587 q 730 836 821 745 m 341 1099 l 276 1113 l 283 1145 q 320 1211 290 1183 q 389 1238 351 1238 q 497 1200 427 1238 q 576 1167 554 1167 q 605 1177 593 1167 q 621 1206 616 1186 l 627 1239 l 692 1225 l 686 1194 q 648 1126 677 1152 q 576 1101 618 1101 q 465 1141 536 1101 q 389 1172 410 1172 q 366 1162 378 1172 q 347 1133 351 1150 l 341 1099 z "},"Ö":{"ha":968,"x_min":81,"x_max":886,"o":"m 484 990 q 777 882 669 990 q 886 587 886 772 l 886 402 q 777 107 886 217 q 484 0 669 0 q 191 107 299 0 q 81 402 81 217 l 81 587 q 192 882 81 772 q 484 990 300 990 m 730 836 q 484 924 642 924 q 238 836 327 924 q 146 587 146 745 l 146 402 q 237 153 146 244 q 484 65 326 65 q 730 153 642 65 q 821 402 821 244 l 821 587 q 730 836 821 745 m 413 1125 l 348 1125 l 348 1190 l 413 1190 l 413 1125 m 619 1125 l 554 1125 l 554 1190 l 619 1190 l 619 1125 z "},"×":{"ha":645,"x_min":68,"x_max":577,"o":"m 68 255 l 277 463 l 68 671 l 115 718 l 322 509 l 530 718 l 576 671 l 368 463 l 577 255 l 531 209 l 322 417 l 114 209 l 68 255 z "},"Ø":{"ha":968,"x_min":81,"x_max":886,"o":"m 621 903 q 484 924 561 924 q 238 836 327 924 q 146 587 146 745 l 146 402 q 237 153 146 244 q 293 111 262 128 l 621 903 m 347 86 q 484 65 407 65 q 730 153 642 65 q 821 402 821 244 l 821 587 q 730 836 821 745 q 675 879 705 861 l 347 86 m 700 940 q 777 882 743 917 q 886 587 886 772 l 886 402 q 777 107 886 217 q 484 0 669 0 q 321 26 394 0 l 268 -104 l 214 -80 l 268 50 q 191 107 226 73 q 81 402 81 217 l 81 587 q 192 882 81 772 q 484 990 300 990 q 646 964 574 990 l 701 1095 l 754 1071 l 700 940 z "},"Ù":{"ha":918,"x_min":81,"x_max":837,"o":"m 772 990 l 837 990 l 837 402 q 734 117 837 228 q 459 0 625 0 q 199 102 307 0 q 81 402 81 215 l 81 990 l 146 990 l 146 402 q 244 149 146 243 q 459 65 332 65 q 686 161 596 65 q 772 402 772 253 l 772 990 m 372 1294 l 551 1071 l 491 1071 l 275 1294 l 372 1294 z "},"Ú":{"ha":918,"x_min":81,"x_max":837,"o":"m 772 990 l 837 990 l 837 402 q 734 117 837 228 q 459 0 625 0 q 199 102 307 0 q 81 402 81 215 l 81 990 l 146 990 l 146 402 q 244 149 146 243 q 459 65 332 65 q 686 161 596 65 q 772 402 772 253 l 772 990 m 643 1294 l 427 1071 l 368 1071 l 547 1294 l 643 1294 z "},"Û":{"ha":918,"x_min":81,"x_max":837,"o":"m 772 990 l 837 990 l 837 402 q 734 117 837 228 q 459 0 625 0 q 199 102 307 0 q 81 402 81 215 l 81 990 l 146 990 l 146 402 q 244 149 146 243 q 459 65 332 65 q 686 161 596 65 q 772 402 772 253 l 772 990 m 507 1274 l 686 1050 l 627 1050 l 459 1224 l 292 1050 l 232 1050 l 411 1274 l 507 1274 z "},"Ü":{"ha":918,"x_min":81,"x_max":837,"o":"m 772 990 l 837 990 l 837 402 q 734 117 837 228 q 459 0 625 0 q 199 102 307 0 q 81 402 81 215 l 81 990 l 146 990 l 146 402 q 244 149 146 243 q 459 65 332 65 q 686 161 596 65 q 772 402 772 253 l 772 990 m 389 1125 l 323 1125 l 323 1190 l 389 1190 l 389 1125 m 595 1125 l 530 1125 l 530 1190 l 595 1190 l 595 1125 z "},"Ý":{"ha":718,"x_min":1,"x_max":717,"o":"m 71 990 l 274 474 q 308 416 290 433 q 360 399 327 399 q 412 417 393 399 q 447 474 431 433 l 647 990 l 717 990 l 507 451 q 456 369 486 395 q 393 337 429 344 l 393 0 l 328 0 l 328 337 q 264 369 292 344 q 213 450 235 396 l 1 990 l 71 990 m 543 1294 l 327 1071 l 267 1071 l 446 1294 l 543 1294 z "},"Þ":{"ha":793,"x_min":81,"x_max":763,"o":"m 146 766 l 484 766 q 691 693 618 766 q 763 487 763 621 q 691 280 763 353 q 484 208 618 208 l 146 208 l 146 0 l 81 0 l 81 990 l 146 990 l 146 766 m 146 273 l 484 273 q 645 326 591 273 q 698 487 698 379 q 645 647 698 594 q 484 701 591 701 l 146 701 l 146 273 z "},"ß":{"ha":772,"x_min":107,"x_max":740,"o":"m 107 0 l 107 702 q 138 869 107 792 q 357 998 197 998 q 530 954 465 998 q 583 899 566 931 q 602 824 602 865 q 551 680 602 757 q 500 601 513 624 q 488 543 486 578 q 580 448 498 502 q 691 350 661 389 q 740 192 740 285 q 673 52 740 109 q 512 -4 607 -3 q 355 50 416 -5 q 291 159 294 104 l 366 163 q 405 106 367 140 q 512 71 445 71 q 625 110 580 71 q 665 192 665 143 q 619 315 665 260 q 535 387 595 345 q 414 536 425 467 q 431 623 409 576 q 488 722 447 659 q 526 824 526 779 q 517 863 526 846 q 489 892 507 880 q 357 922 444 922 q 197 807 237 922 q 182 705 182 758 l 182 0 l 107 0 z "},"à":{"ha":817,"x_min":54,"x_max":736,"o":"m 616 161 l 616 68 q 395 0 530 0 q 148 92 240 0 q 54 340 54 185 q 148 590 54 496 q 395 682 240 682 q 642 590 551 682 q 736 340 736 496 l 736 0 l 671 0 l 671 340 q 596 543 671 469 q 395 616 524 616 q 194 543 267 616 q 119 340 119 469 q 194 138 119 212 q 395 65 267 65 q 596 138 524 65 q 616 161 607 149 m 308 985 l 487 762 l 427 762 l 212 985 l 308 985 z "},"á":{"ha":817,"x_min":54,"x_max":736,"o":"m 616 161 l 616 68 q 395 0 530 0 q 148 92 240 0 q 54 340 54 185 q 148 590 54 496 q 395 682 240 682 q 642 590 551 682 q 736 340 736 496 l 736 0 l 671 0 l 671 340 q 596 543 671 469 q 395 616 524 616 q 194 543 267 616 q 119 340 119 469 q 194 138 119 212 q 395 65 267 65 q 596 138 524 65 q 616 161 607 149 m 578 985 l 363 762 l 303 762 l 482 985 l 578 985 z "},"â":{"ha":817,"x_min":54,"x_max":736,"o":"m 616 161 l 616 68 q 395 0 530 0 q 148 92 240 0 q 54 340 54 185 q 148 590 54 496 q 395 682 240 682 q 642 590 551 682 q 736 340 736 496 l 736 0 l 671 0 l 671 340 q 596 543 671 469 q 395 616 524 616 q 194 543 267 616 q 119 340 119 469 q 194 138 119 212 q 395 65 267 65 q 596 138 524 65 q 616 161 607 149 m 444 965 l 623 742 l 563 742 l 395 916 l 228 742 l 168 742 l 347 965 l 444 965 z "},"ã":{"ha":817,"x_min":54,"x_max":736,"o":"m 616 161 l 616 68 q 395 0 530 0 q 148 92 240 0 q 54 340 54 185 q 148 590 54 496 q 395 682 240 682 q 642 590 551 682 q 736 340 736 496 l 736 0 l 671 0 l 671 340 q 596 543 671 469 q 395 616 524 616 q 194 543 267 616 q 119 340 119 469 q 194 138 119 212 q 395 65 267 65 q 596 138 524 65 q 616 161 607 149 m 252 791 l 187 804 l 194 837 q 231 902 201 875 q 300 930 262 930 q 408 891 338 930 q 488 859 465 859 q 516 869 505 859 q 532 897 528 878 l 538 930 l 603 917 l 597 885 q 559 818 588 843 q 487 793 529 793 q 376 833 447 793 q 300 863 321 863 q 277 854 289 863 q 258 824 262 842 l 252 791 z "},"ä":{"ha":817,"x_min":54,"x_max":736,"o":"m 616 161 l 616 68 q 395 0 530 0 q 148 92 240 0 q 54 340 54 185 q 148 590 54 496 q 395 682 240 682 q 642 590 551 682 q 736 340 736 496 l 736 0 l 671 0 l 671 340 q 596 543 671 469 q 395 616 524 616 q 194 543 267 616 q 119 340 119 469 q 194 138 119 212 q 395 65 267 65 q 596 138 524 65 q 616 161 607 149 m 324 817 l 259 817 l 259 882 l 324 882 l 324 817 m 530 817 l 465 817 l 465 882 l 530 882 l 530 817 z "},"å":{"ha":817,"x_min":54,"x_max":736,"o":"m 616 161 l 616 68 q 395 0 530 0 q 148 92 240 0 q 54 340 54 185 q 148 590 54 496 q 395 682 240 682 q 642 590 551 682 q 736 340 736 496 l 736 0 l 671 0 l 671 340 q 596 543 671 469 q 395 616 524 616 q 194 543 267 616 q 119 340 119 469 q 194 138 119 212 q 395 65 267 65 q 596 138 524 65 q 616 161 607 149 m 395 945 q 488 907 450 945 q 527 813 527 867 q 488 720 527 758 q 395 682 450 682 q 302 720 340 682 q 263 813 263 758 q 302 907 263 867 q 395 945 340 945 m 449 867 q 395 890 427 890 q 341 867 363 890 q 318 813 318 845 q 341 759 318 781 q 395 736 363 736 q 449 759 427 736 q 472 813 472 781 q 449 867 472 845 z "},"æ":{"ha":1410,"x_min":54,"x_max":1351,"o":"m 395 616 q 194 543 267 616 q 119 340 119 469 q 194 138 119 212 q 395 65 267 65 q 596 138 524 65 q 671 340 671 212 q 596 543 671 469 q 395 616 524 616 m 740 290 l 1273 443 q 1191 564 1249 519 q 1013 616 1121 616 q 811 543 884 616 q 736 340 736 469 q 740 290 736 315 m 736 125 l 736 0 l 671 0 l 671 125 q 642 92 658 107 q 395 0 551 0 q 148 92 240 0 q 54 340 54 185 q 148 590 54 496 q 395 682 240 682 q 642 590 551 682 q 703 502 681 551 q 765 590 726 551 q 1013 682 857 682 q 1230 615 1143 682 q 1344 427 1319 547 l 1351 397 l 755 227 q 811 138 774 174 q 1013 65 884 65 l 1277 65 l 1277 0 l 1013 0 q 765 92 857 0 q 736 125 749 108 z "},"ç":{"ha":667,"x_min":81,"x_max":631,"o":"m 631 617 l 575 617 q 283 583 364 618 q 146 341 146 525 q 283 100 146 157 q 575 66 364 65 l 631 66 l 631 1 l 575 1 q 239 43 332 0 q 81 341 81 114 q 239 640 81 568 q 575 682 332 682 l 631 682 l 631 617 m 506 -54 l 384 -294 l 327 -294 l 432 -54 l 506 -54 z "},"è":{"ha":788,"x_min":54,"x_max":734,"o":"m 656 443 q 574 564 632 519 q 395 616 504 616 q 194 543 267 616 q 119 340 119 469 q 138 227 119 286 q 194 138 157 174 q 395 65 267 65 l 660 65 l 660 0 l 395 0 q 148 92 240 0 q 54 340 54 185 q 148 590 54 496 q 395 682 240 682 q 613 615 526 682 q 727 427 702 547 l 734 397 l 188 241 l 172 303 l 656 443 m 307 985 l 486 762 l 426 762 l 210 985 l 307 985 z "},"é":{"ha":788,"x_min":54,"x_max":734,"o":"m 656 443 q 574 564 632 519 q 395 616 504 616 q 194 543 267 616 q 119 340 119 469 q 138 227 119 286 q 194 138 157 174 q 395 65 267 65 l 660 65 l 660 0 l 395 0 q 148 92 240 0 q 54 340 54 185 q 148 590 54 496 q 395 682 240 682 q 613 615 526 682 q 727 427 702 547 l 734 397 l 188 241 l 172 303 l 656 443 m 578 985 l 362 762 l 302 762 l 481 985 l 578 985 z "},"ê":{"ha":788,"x_min":54,"x_max":734,"o":"m 656 443 q 574 564 632 519 q 395 616 504 616 q 194 543 267 616 q 119 340 119 469 q 138 227 119 286 q 194 138 157 174 q 395 65 267 65 l 660 65 l 660 0 l 395 0 q 148 92 240 0 q 54 340 54 185 q 148 590 54 496 q 395 682 240 682 q 613 615 526 682 q 727 427 702 547 l 734 397 l 188 241 l 172 303 l 656 443 m 442 965 l 621 742 l 562 742 l 394 916 l 227 742 l 167 742 l 346 965 l 442 965 z "},"ë":{"ha":788,"x_min":54,"x_max":734,"o":"m 656 443 q 574 564 632 519 q 395 616 504 616 q 194 543 267 616 q 119 340 119 469 q 138 227 119 286 q 194 138 157 174 q 395 65 267 65 l 660 65 l 660 0 l 395 0 q 148 92 240 0 q 54 340 54 185 q 148 590 54 496 q 395 682 240 682 q 613 615 526 682 q 727 427 702 547 l 734 397 l 188 241 l 172 303 l 656 443 m 323 817 l 258 817 l 258 882 l 323 882 l 323 817 m 530 817 l 465 817 l 465 882 l 530 882 l 530 817 z "},"ì":{"ha":289,"x_min":7,"x_max":282,"o":"m 103 985 l 282 762 l 222 762 l 7 985 l 103 985 z "},"í":{"ha":289,"x_min":7,"x_max":282,"o":"m 282 985 l 66 762 l 7 762 l 186 985 l 282 985 z "},"î":{"ha":468,"x_min":7,"x_max":461,"o":"m 282 965 l 461 742 l 401 742 l 234 916 l 66 742 l 7 742 l 186 965 l 282 965 z "},"ï":{"ha":241,"x_min":-15,"x_max":256,"o":"m 153 0 l 88 0 l 88 682 l 153 682 l 153 0 m 50 817 l -15 817 l -15 882 l 50 882 l 50 817 m 256 817 l 191 817 l 191 882 l 256 882 l 256 817 z "},"ð":{"ha":759,"x_min":68,"x_max":691,"o":"m 372 553 q 205 483 275 553 q 136 311 136 412 q 205 139 136 210 q 372 69 275 69 q 540 139 471 69 q 609 311 609 210 q 540 483 609 412 q 372 553 471 553 m 352 848 l 262 750 l 224 785 l 309 876 l 312 880 q 191 958 256 921 l 235 1006 q 354 927 299 968 l 430 1011 l 468 977 l 395 896 q 677 309 691 654 q 588 92 675 182 q 372 1 498 1 q 157 92 247 1 q 68 311 68 183 q 157 530 68 439 q 372 621 247 621 q 598 484 540 608 q 352 848 547 689 z "},"ñ":{"ha":844,"x_min":81,"x_max":763,"o":"m 763 0 l 698 0 l 698 340 q 623 543 698 469 q 422 616 551 616 q 221 543 294 616 q 146 340 146 469 l 146 0 l 81 0 l 81 340 q 175 590 81 496 q 422 682 267 682 q 669 590 578 682 q 763 340 763 496 l 763 0 m 279 791 l 214 804 l 221 837 q 258 902 229 875 q 327 930 289 930 q 435 891 366 930 q 515 859 492 859 q 543 869 532 859 q 559 897 555 878 l 565 930 l 630 917 l 624 885 q 586 818 615 843 q 514 793 556 793 q 403 833 474 793 q 327 863 348 863 q 304 854 316 863 q 286 824 290 842 l 279 791 z "},"ò":{"ha":790,"x_min":54,"x_max":736,"o":"m 395 616 q 194 543 267 616 q 119 340 119 469 q 194 138 119 212 q 395 65 267 65 q 596 138 524 65 q 671 340 671 212 q 596 543 671 469 q 395 616 524 616 m 148 590 q 395 682 240 682 q 642 590 551 682 q 736 340 736 496 q 642 92 736 185 q 395 0 551 0 q 148 92 240 0 q 54 340 54 185 q 148 590 54 496 m 308 985 l 487 762 l 427 762 l 212 985 l 308 985 z "},"ó":{"ha":790,"x_min":54,"x_max":736,"o":"m 395 616 q 194 543 267 616 q 119 340 119 469 q 194 138 119 212 q 395 65 267 65 q 596 138 524 65 q 671 340 671 212 q 596 543 671 469 q 395 616 524 616 m 148 590 q 395 682 240 682 q 642 590 551 682 q 736 340 736 496 q 642 92 736 185 q 395 0 551 0 q 148 92 240 0 q 54 340 54 185 q 148 590 54 496 m 578 985 l 363 762 l 303 762 l 482 985 l 578 985 z "},"ô":{"ha":790,"x_min":54,"x_max":736,"o":"m 395 616 q 194 543 267 616 q 119 340 119 469 q 194 138 119 212 q 395 65 267 65 q 596 138 524 65 q 671 340 671 212 q 596 543 671 469 q 395 616 524 616 m 148 590 q 395 682 240 682 q 642 590 551 682 q 736 340 736 496 q 642 92 736 185 q 395 0 551 0 q 148 92 240 0 q 54 340 54 185 q 148 590 54 496 m 444 965 l 623 742 l 563 742 l 395 916 l 228 742 l 168 742 l 347 965 l 444 965 z "},"õ":{"ha":790,"x_min":54,"x_max":736,"o":"m 395 616 q 194 543 267 616 q 119 340 119 469 q 194 138 119 212 q 395 65 267 65 q 596 138 524 65 q 671 340 671 212 q 596 543 671 469 q 395 616 524 616 m 148 590 q 395 682 240 682 q 642 590 551 682 q 736 340 736 496 q 642 92 736 185 q 395 0 551 0 q 148 92 240 0 q 54 340 54 185 q 148 590 54 496 m 252 791 l 187 804 l 194 837 q 231 902 201 875 q 300 930 262 930 q 408 891 338 930 q 488 859 465 859 q 516 869 505 859 q 532 897 528 878 l 538 930 l 603 917 l 597 885 q 559 818 588 843 q 487 793 529 793 q 376 833 447 793 q 300 863 321 863 q 277 854 289 863 q 258 824 262 842 l 252 791 z "},"ö":{"ha":790,"x_min":54,"x_max":736,"o":"m 395 616 q 194 543 267 616 q 119 340 119 469 q 194 138 119 212 q 395 65 267 65 q 596 138 524 65 q 671 340 671 212 q 596 543 671 469 q 395 616 524 616 m 148 590 q 395 682 240 682 q 642 590 551 682 q 736 340 736 496 q 642 92 736 185 q 395 0 551 0 q 148 92 240 0 q 54 340 54 185 q 148 590 54 496 m 324 817 l 259 817 l 259 882 l 324 882 l 324 817 m 530 817 l 465 817 l 465 882 l 530 882 l 530 817 z "},"÷":{"ha":631,"x_min":81,"x_max":534,"o":"m 81 403 l 534 403 l 534 338 l 81 338 l 81 403 m 269 109 l 347 109 l 347 30 l 269 30 l 269 109 m 269 711 l 347 711 l 347 633 l 269 633 l 269 711 z "},"ø":{"ha":790,"x_min":54,"x_max":736,"o":"m 230 34 q 148 92 184 56 q 54 340 54 185 q 148 590 54 496 q 395 682 240 682 q 513 666 460 682 l 574 802 l 628 778 l 568 644 q 642 590 609 623 q 736 340 736 496 q 642 92 736 185 q 395 0 551 0 q 286 14 336 0 l 206 -163 l 153 -138 l 230 34 m 541 584 l 313 74 q 395 65 351 65 q 596 138 524 65 q 671 340 671 212 q 596 543 671 469 q 541 584 572 568 m 256 94 l 486 606 q 395 616 445 616 q 194 543 267 616 q 119 340 119 469 q 194 138 119 212 q 256 94 221 111 z "},"ù":{"ha":844,"x_min":95,"x_max":763,"o":"m 698 682 l 763 682 l 763 340 q 669 92 763 185 q 429 0 578 0 q 189 92 281 0 q 95 340 95 185 l 95 682 l 160 682 l 160 340 q 235 138 160 212 q 429 65 307 65 q 623 138 551 65 q 698 340 698 212 l 698 682 m 335 985 l 514 762 l 454 762 l 239 985 l 335 985 z "},"ú":{"ha":844,"x_min":95,"x_max":763,"o":"m 698 682 l 763 682 l 763 340 q 669 92 763 185 q 429 0 578 0 q 189 92 281 0 q 95 340 95 185 l 95 682 l 160 682 l 160 340 q 235 138 160 212 q 429 65 307 65 q 623 138 551 65 q 698 340 698 212 l 698 682 m 606 985 l 390 762 l 330 762 l 509 985 l 606 985 z "},"û":{"ha":844,"x_min":95,"x_max":763,"o":"m 698 682 l 763 682 l 763 340 q 669 92 763 185 q 429 0 578 0 q 189 92 281 0 q 95 340 95 185 l 95 682 l 160 682 l 160 340 q 235 138 160 212 q 429 65 307 65 q 623 138 551 65 q 698 340 698 212 l 698 682 m 471 965 l 650 742 l 590 742 l 422 916 l 255 742 l 195 742 l 374 965 l 471 965 z "},"ü":{"ha":844,"x_min":95,"x_max":763,"o":"m 698 682 l 763 682 l 763 340 q 669 92 763 185 q 429 0 578 0 q 189 92 281 0 q 95 340 95 185 l 95 682 l 160 682 l 160 340 q 235 138 160 212 q 429 65 307 65 q 623 138 551 65 q 698 340 698 212 l 698 682 m 351 817 l 286 817 l 286 882 l 351 882 l 351 817 m 557 817 l 492 817 l 492 882 l 557 882 l 557 817 z "},"ý":{"ha":844,"x_min":81,"x_max":736,"o":"m 671 338 l 671 682 l 736 682 l 736 33 q 643 -216 736 -123 q 396 -309 551 -308 l 202 -309 l 202 -243 l 396 -243 q 597 -170 524 -243 q 671 33 671 -96 l 671 124 q 642 92 658 107 q 409 0 551 0 q 175 92 267 0 q 81 340 81 185 l 81 682 l 146 682 l 146 340 q 221 138 146 212 q 409 65 294 65 q 596 138 524 65 q 671 338 670 212 m 606 985 l 390 762 l 330 762 l 509 985 l 606 985 z "},"þ":{"ha":817,"x_min":81,"x_max":763,"o":"m 201 160 q 221 137 210 148 q 422 64 294 64 q 623 137 551 64 q 698 340 698 212 q 623 543 698 469 q 422 616 551 616 q 221 543 294 616 q 146 340 146 469 l 146 -309 l 81 -309 l 81 340 q 175 589 81 495 q 422 681 267 681 q 669 589 577 681 q 763 340 763 495 q 669 91 763 184 q 422 -1 577 -1 q 201 68 288 -1 l 201 160 m 146 0 l 81 0 l 81 990 l 146 990 l 146 0 z "},"ÿ":{"ha":844,"x_min":81,"x_max":736,"o":"m 671 338 l 671 682 l 736 682 l 736 33 q 643 -216 736 -123 q 396 -309 551 -308 l 202 -309 l 202 -243 l 396 -243 q 597 -170 524 -243 q 671 33 671 -96 l 671 124 q 642 92 658 107 q 409 0 551 0 q 175 92 267 0 q 81 340 81 185 l 81 682 l 146 682 l 146 340 q 221 138 146 212 q 409 65 294 65 q 596 138 524 65 q 671 338 670 212 m 351 817 l 286 817 l 286 882 l 351 882 l 351 817 m 557 817 l 492 817 l 492 882 l 557 882 l 557 817 z "},"ı":{"ha":241,"x_min":88,"x_max":153,"o":"m 153 0 l 88 0 l 88 682 l 153 682 l 153 0 z "},"ˆ":{"ha":468,"x_min":7,"x_max":461,"o":"m 282 965 l 461 742 l 401 742 l 234 916 l 66 742 l 7 742 l 186 965 l 282 965 z "},"ˇ":{"ha":468,"x_min":7,"x_max":461,"o":"m 186 735 l 7 958 l 66 958 l 234 785 l 401 958 l 461 958 l 282 735 l 186 735 z "},"ˉ":{"ha":364,"x_min":7,"x_max":357,"o":"m 7 870 l 357 870 l 357 805 l 7 805 l 7 870 z "},"˘":{"ha":456,"x_min":32,"x_max":424,"o":"m 93 909 q 135 863 98 888 q 228 837 174 837 q 321 863 281 837 q 363 909 357 888 l 424 892 q 355 810 412 848 q 228 774 300 774 q 100 810 155 774 q 32 892 44 848 l 93 909 z "},"˙":{"ha":201,"x_min":68,"x_max":133,"o":"m 133 817 l 68 817 l 68 882 l 133 882 l 133 817 z "},"˚":{"ha":277,"x_min":7,"x_max":271,"o":"m 139 945 q 232 907 193 945 q 271 813 271 867 q 232 720 271 758 q 139 682 193 682 q 45 720 84 682 q 7 813 7 758 q 45 907 7 867 q 139 945 84 945 m 193 867 q 139 890 170 890 q 85 867 106 890 q 62 813 62 845 q 85 759 62 781 q 139 736 106 736 q 193 759 170 736 q 216 813 216 781 q 193 867 216 845 z "},"˛":{"ha":203,"x_min":12,"x_max":197,"o":"m 106 1 q 76 -54 85 -24 q 70 -97 70 -77 q 81 -138 70 -122 q 140 -172 105 -172 q 170 -166 154 -172 l 197 -210 q 123 -231 171 -231 q 44 -192 75 -229 q 12 -111 12 -155 q 13 -92 12 -102 q 59 1 20 -41 l 106 1 z "},"˜":{"ha":429,"x_min":7,"x_max":422,"o":"m 72 791 l 7 804 l 14 837 q 51 902 21 875 q 119 930 81 930 q 228 891 158 930 q 307 859 285 859 q 336 869 324 859 q 351 897 347 878 l 357 930 l 422 917 l 416 885 q 378 818 408 843 q 307 793 349 793 q 195 833 267 793 q 119 863 140 863 q 96 854 109 863 q 78 824 82 842 l 72 791 z "},"˝":{"ha":586,"x_min":7,"x_max":579,"o":"m 282 985 l 66 762 l 7 762 l 186 985 l 282 985 m 579 985 l 363 762 l 304 762 l 483 985 l 579 985 z "},"–":{"ha":635,"x_min":14,"x_max":622,"o":"m 14 406 l 622 406 l 622 341 l 14 341 l 14 406 z "},"—":{"ha":1042,"x_min":14,"x_max":1029,"o":"m 14 406 l 1029 406 l 1029 341 l 14 341 l 14 406 z "},"‘":{"ha":241,"x_min":81,"x_max":160,"o":"m 81 871 q 111 990 85 925 l 149 990 q 125 863 125 928 l 160 863 l 160 784 l 81 784 l 81 871 z "},"’":{"ha":241,"x_min":81,"x_max":160,"o":"m 160 903 q 130 784 156 849 l 92 784 q 117 911 117 846 l 81 911 l 81 990 l 160 990 l 160 903 z "},"‚":{"ha":241,"x_min":81,"x_max":160,"o":"m 160 -9 q 130 -127 156 -62 l 92 -127 q 117 0 117 -66 l 81 0 l 81 79 l 160 79 l 160 -9 z "},"“":{"ha":351,"x_min":68,"x_max":283,"o":"m 68 871 q 98 990 72 925 l 136 990 q 111 863 111 928 l 146 863 l 146 784 l 68 784 l 68 871 m 205 871 q 235 990 209 925 l 273 990 q 248 863 248 928 l 283 863 l 283 784 l 205 784 l 205 871 z "},"”":{"ha":351,"x_min":68,"x_max":283,"o":"m 146 903 q 117 784 142 849 l 79 784 q 103 911 103 846 l 68 911 l 68 990 l 146 990 l 146 903 m 283 903 q 254 784 279 849 l 216 784 q 240 911 240 846 l 205 911 l 205 990 l 283 990 l 283 903 z "},"„":{"ha":351,"x_min":68,"x_max":283,"o":"m 146 16 q 117 -103 142 -38 l 79 -103 q 103 24 103 -41 l 68 24 l 68 103 l 146 103 l 146 16 m 283 16 q 254 -103 279 -38 l 216 -103 q 240 24 240 -41 l 205 24 l 205 103 l 283 103 l 283 16 z "},"†":{"ha":726,"x_min":68,"x_max":652,"o":"m 324 735 l 324 1004 l 396 1004 l 396 735 l 652 735 l 652 663 l 396 663 l 396 -237 l 324 -237 l 324 663 l 68 663 l 68 735 l 324 735 z "},"‡":{"ha":730,"x_min":68,"x_max":652,"o":"m 324 715 l 324 1004 l 396 1004 l 396 715 l 652 715 l 652 643 l 396 643 l 396 172 l 652 172 l 652 100 l 396 100 l 396 -237 l 324 -237 l 324 100 l 68 100 l 68 172 l 324 172 l 324 643 l 68 643 l 68 715 l 324 715 z "},"•":{"ha":694,"x_min":129,"x_max":578,"o":"m 353 702 q 512 636 446 702 q 578 477 578 570 q 512 318 578 384 q 353 252 446 252 q 195 318 260 252 q 129 477 129 384 q 195 636 129 570 q 353 702 260 702 z "},"…":{"ha":1389,"x_min":81,"x_max":1086,"o":"m 81 79 l 160 79 l 160 0 l 81 0 l 81 79 m 545 79 l 623 79 l 623 0 l 545 0 l 545 79 m 1008 79 l 1086 79 l 1086 0 l 1008 0 l 1008 79 z "},"‹":{"ha":323,"x_min":27,"x_max":296,"o":"m 296 566 l 115 331 l 296 96 l 210 96 l 27 331 l 210 566 l 296 566 z "},"›":{"ha":323,"x_min":27,"x_max":296,"o":"m 114 566 l 296 331 l 114 96 l 27 96 l 209 331 l 27 566 l 114 566 z "},"⁄":{"ha":283,"x_min":-131,"x_max":409,"o":"m 355 1093 l 409 1068 l -77 -107 l -131 -83 l 355 1093 z "},"₣":{"ha":730,"x_min":7,"x_max":696,"o":"m 153 280 l 153 834 q 199 944 153 899 q 309 990 245 990 l 696 990 l 696 924 l 309 924 q 245 898 272 924 q 218 834 218 871 l 218 558 l 663 558 l 663 493 l 218 493 l 218 280 l 425 280 l 425 215 l 218 215 l 218 0 l 153 0 l 153 215 l 7 215 l 7 280 l 153 280 z "},"₤":{"ha":806,"x_min":41,"x_max":767,"o":"m 62 516 l 207 516 q 171 691 171 606 q 210 850 171 781 q 324 956 251 922 q 448 982 380 982 q 631 910 553 982 q 716 735 704 843 l 652 728 q 587 863 642 812 q 448 917 528 917 q 352 897 395 917 q 267 819 297 872 q 236 691 236 764 q 277 517 236 607 l 278 516 l 517 516 l 517 451 l 298 451 q 277 255 314 359 q 190 98 248 174 q 270 109 231 107 q 431 87 345 113 q 607 56 541 54 q 735 95 669 58 l 767 39 q 610 -9 688 -6 q 412 24 532 -12 q 273 44 337 47 q 91 -7 187 41 q 50 0 68 -20 q 41 23 41 10 q 52 45 42 37 q 215 277 170 151 q 232 451 250 372 l 62 451 l 62 516 z "},"₧":{"ha":1638,"x_min":81,"x_max":1602,"o":"m 222 924 q 164 898 189 924 q 140 834 140 871 l 140 496 l 444 496 q 589 550 541 496 q 636 711 636 603 q 589 871 636 818 q 444 924 541 924 l 222 924 m 686 616 q 630 504 670 549 q 444 431 565 431 l 140 431 l 140 0 l 81 0 l 81 834 q 122 944 81 899 q 222 990 164 990 l 444 990 q 630 917 565 990 q 695 711 695 845 q 694 682 695 696 l 846 682 l 846 930 l 911 949 l 911 682 l 1575 682 l 1575 616 l 1334 616 q 1181 581 1235 616 q 1131 495 1131 548 q 1196 401 1131 429 q 1337 373 1234 385 q 1519 333 1470 358 q 1602 186 1602 291 q 1522 46 1602 98 q 1334 0 1452 0 l 1066 0 l 1066 65 l 1334 65 q 1487 101 1432 65 q 1536 186 1536 133 q 1472 280 1536 252 q 1330 309 1433 296 q 1149 349 1198 323 q 1066 495 1066 391 q 1120 616 1066 568 l 911 616 l 911 0 l 846 0 l 846 616 l 686 616 z "},"€":{"ha":821,"x_min":31,"x_max":774,"o":"m 31 439 l 146 439 l 148 568 l 31 568 l 31 646 l 162 646 q 192 741 179 708 q 336 930 242 863 q 545 995 427 995 q 703 974 629 995 q 774 949 759 958 l 734 883 q 682 899 728 886 q 545 918 621 918 q 380 867 450 918 q 264 712 305 814 q 239 646 260 704 l 632 646 l 632 568 l 226 568 l 224 534 l 223 534 q 226 439 223 485 l 595 439 l 595 361 l 236 361 q 304 209 273 255 q 503 85 377 108 q 720 111 633 61 l 758 43 q 488 9 646 -20 q 241 164 332 37 q 159 361 191 236 l 31 361 l 31 439 z "},"№":{"ha":1458,"x_min":81,"x_max":1399,"o":"m 146 0 l 81 0 l 81 833 q 119 944 81 901 q 222 990 159 990 q 324 959 286 990 q 389 842 365 925 l 586 166 q 625 85 603 108 q 686 65 646 65 q 745 86 726 65 q 766 157 766 109 l 766 990 l 831 990 l 831 157 q 793 43 831 83 q 686 0 755 0 q 579 39 620 0 q 524 148 545 73 l 327 824 q 282 909 308 887 q 222 924 263 924 q 169 901 189 924 q 146 833 146 876 l 146 0 m 1173 654 q 1333 588 1266 654 q 1399 428 1399 522 q 1333 267 1399 334 q 1173 201 1266 201 q 1013 267 1079 201 q 946 428 946 334 q 1013 588 946 522 q 1173 654 1079 654 m 1286 542 q 1173 589 1239 589 q 1059 542 1105 589 q 1011 428 1011 494 q 1059 313 1011 361 q 1173 267 1105 267 q 1286 313 1239 267 q 1334 428 1334 361 q 1286 542 1334 494 m 946 65 l 1399 65 l 1399 0 l 946 0 l 946 65 z "},"™":{"ha":640,"x_min":21,"x_max":593,"o":"m 278 998 l 278 953 l 174 953 l 174 596 l 124 596 l 124 953 l 21 953 l 21 998 l 278 998 m 335 596 l 284 596 l 284 998 l 328 998 l 438 677 l 549 998 l 593 998 l 593 596 l 542 596 l 542 812 l 549 863 l 456 599 l 420 599 l 328 863 l 335 812 l 335 596 z "},"∂":{"ha":718,"x_min":68,"x_max":650,"o":"m 218 802 q 281 896 239 848 q 452 989 361 989 q 600 906 547 989 q 650 694 650 827 l 650 665 q 596 278 650 425 q 345 10 522 77 q 252 -8 296 -8 q 227 -7 239 -8 q 125 41 165 0 q 68 206 68 100 q 71 256 68 230 q 237 522 90 427 q 585 614 370 608 q 585 642 585 626 q 585 676 585 657 l 585 694 q 545 871 585 808 q 452 924 512 924 q 326 849 387 924 q 277 774 294 811 l 218 802 m 535 300 q 582 549 573 404 q 272 467 389 542 q 136 249 151 389 q 133 204 133 225 q 171 87 133 126 q 234 58 195 62 q 252 57 243 57 q 322 71 285 57 q 535 300 471 127 z "},"∆":{"ha":952,"x_min":7,"x_max":945,"o":"m 845 65 l 476 888 l 107 65 l 845 65 m 7 0 l 476 1048 l 945 0 l 7 0 z "},"∏":{"ha":1031,"x_min":81,"x_max":949,"o":"m 81 -275 l 81 990 l 949 990 l 949 -275 l 884 -275 l 884 925 l 146 925 l 146 -275 l 81 -275 z "},"∑":{"ha":1043,"x_min":81,"x_max":962,"o":"m 962 925 l 216 925 l 659 364 l 216 -197 l 962 -197 l 962 -262 l 81 -262 l 576 364 l 81 990 l 962 990 l 962 925 z "},"−":{"ha":631,"x_min":81,"x_max":534,"o":"m 81 403 l 534 403 l 534 338 l 81 338 l 81 403 z "},"√":{"ha":859,"x_min":81,"x_max":777,"o":"m 272 531 l 539 -17 l 713 1061 l 777 1051 l 571 -230 l 240 448 l 106 392 l 81 452 l 272 531 z "},"∞":{"ha":929,"x_min":81,"x_max":848,"o":"m 235 525 q 435 401 342 525 q 528 511 489 479 q 665 560 589 560 q 808 507 764 560 q 848 348 848 457 q 798 188 848 241 q 660 136 750 136 q 528 182 587 136 q 434 288 486 215 q 234 174 346 174 q 102 250 140 174 q 81 353 81 291 q 104 452 81 412 q 231 525 142 521 l 235 525 m 395 345 q 234 460 313 460 l 233 460 q 161 421 182 457 q 146 353 146 395 q 160 279 146 306 q 234 240 180 240 q 395 345 317 240 m 475 345 q 555 245 524 274 q 660 201 604 201 q 750 232 722 201 q 782 348 782 267 q 757 465 782 434 q 665 495 733 495 q 558 450 608 495 q 479 350 529 422 l 475 345 z "},"∫":{"ha":557,"x_min":81,"x_max":475,"o":"m 451 998 q 372 1017 401 1017 q 334 999 343 1017 q 311 381 310 954 q 281 -213 311 -155 q 184 -262 255 -262 q 163 -261 174 -262 q 81 -241 121 -257 l 105 -181 q 185 -201 155 -201 q 223 -182 214 -201 q 246 380 247 -138 q 276 1029 245 970 q 372 1079 302 1079 q 393 1078 382 1079 q 475 1058 435 1074 l 451 998 z "},"≈":{"ha":854,"x_min":83,"x_max":763,"o":"m 763 590 q 597 514 669 522 q 426 557 526 507 q 248 590 334 603 q 83 516 167 579 l 83 588 q 248 663 167 651 q 426 629 334 675 q 597 586 526 579 q 763 663 669 593 l 763 590 m 763 376 q 597 300 669 308 q 426 343 526 294 q 248 376 334 389 q 83 302 167 366 l 83 374 q 248 449 167 437 q 426 415 334 461 q 597 373 526 366 q 763 449 669 380 l 763 376 z "},"≤":{"ha":747,"x_min":81,"x_max":666,"o":"m 81 201 l 666 201 l 666 136 l 81 136 l 81 201 m 81 597 l 666 843 l 666 772 l 165 562 l 666 351 l 666 280 l 81 526 l 81 597 z "},"≥":{"ha":747,"x_min":81,"x_max":666,"o":"m 666 136 l 81 136 l 81 201 l 666 201 l 666 136 m 666 526 l 81 280 l 81 351 l 583 562 l 81 772 l 81 843 l 666 597 l 666 526 z "},"":{"ha":767,"x_min":81,"x_max":672,"o":"m 488 682 l 488 616 l 146 616 l 146 0 l 81 0 l 81 649 q 174 897 81 803 q 418 989 264 988 l 498 989 l 498 925 l 418 925 q 220 851 292 924 q 148 682 157 787 l 488 682 m 672 0 l 607 0 l 607 682 l 672 682 l 672 0 m 672 925 l 607 925 l 607 990 l 672 990 l 672 925 z "},"":{"ha":781,"x_min":81,"x_max":679,"o":"m 488 682 l 488 616 l 146 616 l 146 0 l 81 0 l 81 649 q 174 897 81 803 q 418 989 264 988 l 498 989 l 498 925 l 418 925 q 220 851 292 924 q 148 682 157 787 l 488 682 m 679 0 l 614 0 l 614 990 l 679 990 l 679 0 z "},"○":{"ha":1337,"x_min":81,"x_max":1255,"o":"m 669 1088 q 1083 917 911 1088 q 1255 501 1255 745 q 1083 86 1255 258 q 669 -85 911 -85 q 254 86 426 -85 q 81 501 81 258 q 254 917 81 745 q 669 1088 426 1088 m 669 1040 q 288 883 446 1040 q 130 501 130 725 q 288 120 130 278 q 669 -37 446 -37 q 1049 120 892 -37 q 1207 501 1207 278 q 1049 883 1207 725 q 669 1040 892 1040 z "},"●":{"ha":1159,"x_min":68,"x_max":1091,"o":"m 580 1013 q 941 863 791 1013 q 1091 501 1091 713 q 941 140 1091 290 q 580 -10 791 -10 q 218 140 368 -10 q 68 501 68 290 q 218 863 68 713 q 580 1013 368 1013 z "},"⁰":{"ha":818,"x_min":81,"x_max":736,"o":"m 409 1023 q 671 896 588 1023 q 736 629 736 798 l 736 625 q 672 359 736 458 q 411 231 589 231 l 408 231 q 146 359 229 231 q 81 625 81 458 l 81 627 q 164 920 82 819 q 409 1023 248 1023 m 617 860 q 409 958 553 958 q 215 878 279 958 q 146 627 147 795 l 146 625 q 200 394 146 477 q 408 296 264 296 l 411 296 q 618 395 553 296 q 671 625 671 477 l 671 629 q 617 860 671 777 z "},"⁴":{"ha":833,"x_min":81,"x_max":751,"o":"m 595 231 l 530 231 l 530 409 l 81 409 l 81 451 l 547 1023 l 595 1023 l 595 474 l 751 474 l 751 409 l 595 409 l 595 231 m 182 474 l 530 474 l 530 899 l 182 474 z "},"⁵":{"ha":762,"x_min":81,"x_max":680,"o":"m 630 1023 l 630 958 l 146 958 l 146 698 l 376 698 q 597 639 517 698 q 680 464 680 577 q 591 291 680 359 q 381 230 509 230 l 81 230 l 81 295 l 381 295 q 552 343 488 295 q 615 464 615 391 q 559 587 615 545 q 376 633 496 633 l 81 633 l 81 1023 l 630 1023 z "},"⁶":{"ha":752,"x_min":81,"x_max":671,"o":"m 146 679 q 308 742 208 742 l 444 742 q 610 673 548 742 q 671 496 671 607 l 671 457 q 612 290 671 349 q 444 231 553 231 l 308 231 q 81 457 81 231 l 81 821 q 136 967 81 912 q 284 1023 193 1023 l 593 1023 l 593 958 l 284 958 q 182 921 220 958 q 146 821 146 885 l 146 679 m 146 457 q 308 296 146 296 l 444 296 q 566 336 526 296 q 606 457 606 376 l 606 496 q 562 629 606 583 q 444 677 519 677 l 308 677 q 190 629 233 677 q 146 498 147 583 l 146 457 z "},"⁷":{"ha":618,"x_min":7,"x_max":537,"o":"m 537 231 l 472 231 l 472 958 l 7 958 l 7 1023 l 537 1023 l 537 231 z "},"⁸":{"ha":752,"x_min":81,"x_max":671,"o":"m 449 1023 q 596 967 540 1023 q 651 821 651 912 q 596 675 651 730 l 596 675 q 572 654 585 664 q 612 625 594 642 q 671 457 671 566 q 444 231 671 231 l 308 231 q 140 290 199 231 q 81 457 81 349 q 140 625 81 566 q 180 654 158 642 q 156 675 167 664 q 101 821 101 730 q 156 967 101 912 q 303 1023 212 1023 l 449 1023 m 550 921 q 449 958 513 958 l 303 958 q 202 921 239 958 q 166 821 166 885 q 202 721 166 757 q 303 684 239 684 l 449 684 q 550 721 513 684 q 586 821 586 757 q 550 921 586 885 m 308 618 q 186 578 227 618 q 146 457 146 538 q 186 336 146 376 q 308 296 227 296 l 444 296 q 606 457 606 296 q 566 578 606 538 q 444 618 526 618 l 308 618 z "},"⁹":{"ha":752,"x_min":81,"x_max":671,"o":"m 606 575 q 444 512 544 512 l 308 512 q 142 581 204 512 q 81 758 81 646 l 81 797 q 140 964 81 905 q 308 1023 199 1023 l 444 1023 q 671 797 671 1023 l 671 433 q 616 287 671 342 q 468 231 559 231 l 135 231 l 135 296 l 468 296 q 570 333 532 296 q 606 433 606 369 l 606 575 m 606 797 q 444 958 606 958 l 308 958 q 186 918 227 958 q 146 797 146 878 l 146 758 q 190 624 146 671 q 308 577 233 577 l 444 577 q 562 624 519 577 q 606 755 605 671 l 606 797 z "},"⁺":{"ha":817,"x_min":149,"x_max":668,"o":"m 149 767 l 376 767 l 376 994 l 441 994 l 441 767 l 668 767 l 668 702 l 441 702 l 441 475 l 376 475 l 376 702 l 149 702 l 149 767 z "},"⁻":{"ha":522,"x_min":68,"x_max":453,"o":"m 68 742 l 453 742 l 453 677 l 68 677 l 68 742 z "},"⁼":{"ha":716,"x_min":81,"x_max":635,"o":"m 81 614 l 635 614 l 635 549 l 81 549 l 81 614 m 81 343 l 635 343 l 635 278 l 81 278 l 81 343 z "},"ⁱ":{"ha":241,"x_min":88,"x_max":153,"o":"m 153 0 l 88 0 l 88 682 l 153 682 l 153 0 m 153 925 l 88 925 l 88 990 l 153 990 l 153 925 z "},"⁽":{"ha":485,"x_min":81,"x_max":444,"o":"m 444 45 l 444 -20 q 191 87 299 -20 q 81 382 81 197 l 81 621 q 192 916 81 806 q 444 1024 300 1024 l 444 958 q 238 869 327 958 q 146 621 146 779 l 146 382 q 237 133 146 224 q 444 45 326 45 z "},"⁾":{"ha":485,"x_min":75,"x_max":437,"o":"m 75 45 q 281 133 193 45 q 372 382 372 224 l 372 621 q 280 869 372 779 q 75 958 191 958 l 75 1024 q 326 916 218 1024 q 437 621 437 806 l 437 382 q 327 87 437 197 q 75 -20 219 -20 l 75 45 z "},"ⁿ":{"ha":844,"x_min":81,"x_max":763,"o":"m 763 309 l 698 309 l 698 649 q 623 852 698 778 q 422 925 551 925 q 221 852 294 925 q 146 649 146 778 l 146 309 l 81 309 l 81 649 q 175 899 81 804 q 422 990 267 990 q 669 899 578 990 q 763 649 763 804 l 763 309 z "},"₀":{"ha":818,"x_min":81,"x_max":736,"o":"m 409 397 q 671 269 588 397 q 736 3 736 171 l 736 -1 q 672 -268 736 -168 q 411 -396 589 -395 l 408 -396 q 146 -268 229 -396 q 81 -1 81 -169 l 81 1 q 164 293 82 192 q 409 397 248 397 m 617 233 q 409 332 553 332 q 215 252 279 332 q 146 1 147 169 l 146 -1 q 200 -233 146 -150 q 408 -331 264 -331 l 411 -331 q 618 -232 553 -331 q 671 -1 671 -149 l 671 2 q 617 233 671 151 z "},"₁":{"ha":446,"x_min":81,"x_max":365,"o":"m 365 -396 l 300 -396 l 300 332 l 81 332 l 81 397 l 365 397 l 365 -396 z "},"₂":{"ha":762,"x_min":81,"x_max":680,"o":"m 113 332 l 113 397 l 381 397 q 593 342 513 397 q 680 182 680 283 q 588 14 680 63 q 385 -32 532 -14 q 221 -66 266 -46 q 146 -182 146 -101 l 146 -331 l 680 -331 l 680 -396 l 81 -396 l 81 -182 q 174 -14 81 -62 q 377 33 229 15 q 541 67 496 47 q 615 182 615 101 q 557 289 615 249 q 381 332 494 332 l 113 332 z "},"₃":{"ha":762,"x_min":81,"x_max":680,"o":"m 81 332 l 81 397 l 458 397 q 606 340 549 397 q 661 195 661 286 q 606 48 661 104 l 606 48 q 582 28 595 37 q 622 -2 604 16 q 680 -170 680 -61 q 454 -396 680 -396 l 81 -396 l 81 -331 l 454 -331 q 615 -170 615 -331 q 576 -48 615 -88 q 454 -8 535 -8 l 81 -8 l 81 57 l 458 57 q 559 94 522 57 q 595 195 595 130 q 559 294 595 258 q 458 332 522 332 l 81 332 z "},"₄":{"ha":833,"x_min":81,"x_max":751,"o":"m 595 -396 l 530 -396 l 530 -218 l 81 -218 l 81 -176 l 547 397 l 595 397 l 595 -153 l 751 -153 l 751 -218 l 595 -218 l 595 -396 m 182 -153 l 530 -153 l 530 273 l 182 -153 z "},"₅":{"ha":762,"x_min":81,"x_max":680,"o":"m 630 397 l 630 332 l 146 332 l 146 72 l 376 72 q 597 13 517 72 q 680 -162 680 -49 q 591 -335 680 -267 q 381 -396 509 -396 l 81 -396 l 81 -331 l 381 -331 q 552 -283 488 -331 q 615 -162 615 -235 q 559 -39 615 -81 q 376 7 496 7 l 81 7 l 81 397 l 630 397 z "},"₆":{"ha":752,"x_min":81,"x_max":671,"o":"m 146 52 q 308 115 208 115 l 444 115 q 610 47 548 115 q 671 -131 671 -20 l 671 -170 q 612 -337 671 -278 q 444 -396 553 -396 l 308 -396 q 81 -170 81 -396 l 81 195 q 136 340 81 286 q 284 397 193 397 l 593 397 l 593 332 l 284 332 q 182 294 220 332 q 146 195 146 258 l 146 52 m 146 -170 q 308 -331 146 -331 l 444 -331 q 566 -291 526 -331 q 606 -170 606 -251 l 606 -131 q 562 3 606 -44 q 444 50 519 50 l 308 50 q 190 3 233 50 q 146 -128 147 -43 l 146 -170 z "},"₇":{"ha":618,"x_min":7,"x_max":537,"o":"m 537 -396 l 472 -396 l 472 332 l 7 332 l 7 397 l 537 397 l 537 -396 z "},"₈":{"ha":752,"x_min":81,"x_max":671,"o":"m 449 397 q 596 340 540 397 q 651 195 651 286 q 596 48 651 104 l 596 48 q 572 28 585 37 q 612 -2 594 16 q 671 -170 671 -61 q 444 -396 671 -396 l 308 -396 q 140 -337 199 -396 q 81 -170 81 -278 q 140 -2 81 -61 q 180 28 158 16 q 156 48 167 37 q 101 195 101 103 q 156 340 101 286 q 303 397 212 397 l 449 397 m 550 294 q 449 332 513 332 l 303 332 q 202 294 239 332 q 166 195 166 258 q 202 94 166 130 q 303 57 239 57 l 449 57 q 550 94 513 57 q 586 195 586 130 q 550 294 586 258 m 308 -8 q 186 -48 227 -8 q 146 -170 146 -88 q 186 -291 146 -251 q 308 -331 227 -331 l 444 -331 q 606 -170 606 -331 q 566 -48 606 -88 q 444 -8 526 -8 l 308 -8 z "},"₉":{"ha":752,"x_min":81,"x_max":671,"o":"m 606 -52 q 444 -115 544 -115 l 308 -115 q 142 -46 204 -115 q 81 132 81 20 l 81 170 q 140 338 81 279 q 308 397 199 397 l 444 397 q 671 170 671 397 l 671 -194 q 616 -340 671 -285 q 468 -396 559 -396 l 135 -396 l 135 -331 l 468 -331 q 570 -294 532 -331 q 606 -194 606 -258 l 606 -52 m 606 170 q 444 332 606 332 l 308 332 q 186 292 227 332 q 146 170 146 252 l 146 132 q 190 -3 146 45 q 308 -50 233 -50 l 444 -50 q 562 -3 519 -50 q 606 128 605 44 l 606 170 z "},"₊":{"ha":817,"x_min":149,"x_max":668,"o":"m 149 33 l 376 33 l 376 260 l 441 260 l 441 33 l 668 33 l 668 -32 l 441 -32 l 441 -259 l 376 -259 l 376 -32 l 149 -32 l 149 33 z "},"₋":{"ha":522,"x_min":68,"x_max":453,"o":"m 68 33 l 453 33 l 453 -33 l 68 -33 l 68 33 z "},"₌":{"ha":716,"x_min":81,"x_max":635,"o":"m 81 168 l 635 168 l 635 103 l 81 103 l 81 168 m 81 -103 l 635 -103 l 635 -168 l 81 -168 l 81 -103 z "},"₍":{"ha":485,"x_min":81,"x_max":444,"o":"m 444 -75 l 444 -140 q 191 -33 299 -140 q 81 262 81 77 l 81 502 q 192 796 81 686 q 444 905 300 905 l 444 839 q 238 750 327 839 q 146 502 146 659 l 146 262 q 237 14 146 104 q 444 -75 326 -75 z "},"₎":{"ha":485,"x_min":75,"x_max":437,"o":"m 75 -75 q 281 14 193 -75 q 372 262 372 104 l 372 502 q 280 750 372 659 q 75 839 191 839 l 75 905 q 326 796 218 905 q 437 502 437 686 l 437 262 q 327 -33 437 77 q 75 -140 219 -140 l 75 -75 z "},"①":{"ha":1221,"x_min":23,"x_max":1198,"o":"m 610 1088 q 1025 917 853 1088 q 1197 501 1197 745 q 1025 86 1197 258 q 610 -85 853 -85 q 195 86 368 -85 q 23 501 23 258 q 195 917 23 745 q 610 1088 368 1088 m 610 1040 q 230 883 388 1040 q 71 501 71 725 q 230 120 71 278 q 610 -37 388 -37 q 991 120 833 -37 q 1149 501 1149 278 q 991 883 1149 725 q 610 1040 833 1040 m 671 105 l 606 105 l 606 833 l 387 833 l 387 898 l 671 898 l 671 105 z "},"②":{"ha":1221,"x_min":23,"x_max":1198,"o":"m 610 1088 q 1025 917 853 1088 q 1197 501 1197 745 q 1025 86 1197 258 q 610 -85 853 -85 q 195 86 368 -85 q 23 501 23 258 q 195 917 23 745 q 610 1088 368 1088 m 610 1040 q 230 883 388 1040 q 71 501 71 725 q 230 120 71 278 q 610 -37 388 -37 q 991 120 833 -37 q 1149 501 1149 278 q 991 883 1149 725 q 610 1040 833 1040 m 342 840 l 342 905 l 610 905 q 823 850 743 905 q 909 690 909 791 q 817 522 909 571 q 614 476 762 494 q 450 441 495 462 q 376 326 376 407 l 376 177 l 909 177 l 909 112 l 311 112 l 311 326 q 403 494 311 446 q 606 541 458 523 q 770 575 726 555 q 844 690 844 609 q 786 797 844 757 q 610 840 723 840 l 342 840 z "},"③":{"ha":1221,"x_min":23,"x_max":1198,"o":"m 610 1088 q 1025 917 853 1088 q 1197 501 1197 745 q 1025 86 1197 258 q 610 -85 853 -85 q 195 86 368 -85 q 23 501 23 258 q 195 917 23 745 q 610 1088 368 1088 m 610 1040 q 230 883 388 1040 q 71 501 71 725 q 230 120 71 278 q 610 -37 388 -37 q 991 120 833 -37 q 1149 501 1149 278 q 991 883 1149 725 q 610 1040 833 1040 m 331 833 l 331 898 l 708 898 q 855 842 799 898 q 911 696 911 787 q 855 549 911 605 l 855 549 q 831 529 844 538 q 871 499 854 517 q 930 332 930 440 q 703 105 930 105 l 331 105 l 331 170 l 703 170 q 865 332 865 170 q 825 453 865 413 q 703 493 785 493 l 331 493 l 331 558 l 708 558 q 809 595 772 558 q 845 696 845 631 q 809 795 845 760 q 708 833 772 833 l 331 833 z "},"④":{"ha":1221,"x_min":23,"x_max":1198,"o":"m 610 1088 q 1025 917 853 1088 q 1197 501 1197 745 q 1025 86 1197 258 q 610 -85 853 -85 q 195 86 368 -85 q 23 501 23 258 q 195 917 23 745 q 610 1088 368 1088 m 610 1040 q 230 883 388 1040 q 71 501 71 725 q 230 120 71 278 q 610 -37 388 -37 q 991 120 833 -37 q 1149 501 1149 278 q 991 883 1149 725 q 610 1040 833 1040 m 748 105 l 683 105 l 683 283 l 235 283 l 235 326 l 700 898 l 748 898 l 748 349 l 905 349 l 905 283 l 748 283 l 748 105 m 335 349 l 683 349 l 683 774 l 335 349 z "},"⑤":{"ha":1221,"x_min":23,"x_max":1198,"o":"m 610 1088 q 1025 917 853 1088 q 1197 501 1197 745 q 1025 86 1197 258 q 610 -85 853 -85 q 195 86 368 -85 q 23 501 23 258 q 195 917 23 745 q 610 1088 368 1088 m 610 1040 q 230 883 388 1040 q 71 501 71 725 q 230 120 71 278 q 610 -37 388 -37 q 991 120 833 -37 q 1149 501 1149 278 q 991 883 1149 725 q 610 1040 833 1040 m 880 898 l 880 833 l 396 833 l 396 573 l 626 573 q 847 514 767 573 q 930 339 930 452 q 841 166 930 234 q 631 105 759 105 l 331 105 l 331 170 l 631 170 q 802 218 737 170 q 865 339 865 266 q 808 462 865 420 q 626 508 746 508 l 331 508 l 331 898 l 880 898 z "},"⑥":{"ha":1221,"x_min":23,"x_max":1198,"o":"m 610 1088 q 1025 917 853 1088 q 1197 501 1197 745 q 1025 86 1197 258 q 610 -85 853 -85 q 195 86 368 -85 q 23 501 23 258 q 195 917 23 745 q 610 1088 368 1088 m 610 1040 q 230 883 388 1040 q 71 501 71 725 q 230 120 71 278 q 610 -37 388 -37 q 991 120 833 -37 q 1149 501 1149 278 q 991 883 1149 725 q 610 1040 833 1040 m 380 553 q 542 616 442 616 l 678 616 q 844 548 782 616 q 905 370 905 481 l 905 332 q 846 164 905 223 q 678 105 787 105 l 542 105 q 315 332 315 105 l 315 696 q 370 842 315 787 q 518 898 427 898 l 827 898 l 827 833 l 518 833 q 416 795 454 833 q 380 696 380 760 l 380 553 m 380 332 q 542 170 380 170 l 678 170 q 800 210 760 170 q 840 332 840 250 l 840 370 q 796 504 840 457 q 678 551 753 551 l 542 551 q 424 504 467 551 q 380 373 381 458 l 380 332 z "},"⑦":{"ha":1221,"x_min":23,"x_max":1198,"o":"m 610 1088 q 1025 917 853 1088 q 1197 501 1197 745 q 1025 86 1197 258 q 610 -85 853 -85 q 195 86 368 -85 q 23 501 23 258 q 195 917 23 745 q 610 1088 368 1088 m 610 1040 q 230 883 388 1040 q 71 501 71 725 q 230 120 71 278 q 610 -37 388 -37 q 991 120 833 -37 q 1149 501 1149 278 q 991 883 1149 725 q 610 1040 833 1040 m 808 105 l 743 105 l 743 833 l 277 833 l 277 898 l 808 898 l 808 105 z "},"⑧":{"ha":1221,"x_min":23,"x_max":1198,"o":"m 610 1088 q 1025 917 853 1088 q 1197 501 1197 745 q 1025 86 1197 258 q 610 -85 853 -85 q 195 86 368 -85 q 23 501 23 258 q 195 917 23 745 q 610 1088 368 1088 m 610 1040 q 230 883 388 1040 q 71 501 71 725 q 230 120 71 278 q 610 -37 388 -37 q 991 120 833 -37 q 1149 501 1149 278 q 991 883 1149 725 q 610 1040 833 1040 m 683 898 q 830 842 774 898 q 885 696 885 787 q 830 549 885 605 l 830 549 q 806 529 819 538 q 846 499 828 517 q 905 332 905 440 q 678 105 905 105 l 542 105 q 374 164 433 105 q 315 332 315 223 q 374 499 315 440 q 414 529 392 517 q 390 549 401 538 q 335 696 335 604 q 390 842 335 787 q 537 898 446 898 l 683 898 m 784 795 q 683 833 747 833 l 537 833 q 436 795 473 833 q 400 696 400 760 q 436 595 400 631 q 537 558 473 558 l 683 558 q 784 595 747 558 q 820 696 820 631 q 784 795 820 760 m 542 493 q 420 453 460 493 q 380 332 380 413 q 420 210 380 250 q 542 170 460 170 l 678 170 q 840 332 840 170 q 800 453 840 413 q 678 493 760 493 l 542 493 z "},"⑨":{"ha":1221,"x_min":23,"x_max":1198,"o":"m 610 1088 q 1025 917 853 1088 q 1197 501 1197 745 q 1025 86 1197 258 q 610 -85 853 -85 q 195 86 368 -85 q 23 501 23 258 q 195 917 23 745 q 610 1088 368 1088 m 610 1040 q 230 883 388 1040 q 71 501 71 725 q 230 120 71 278 q 610 -37 388 -37 q 991 120 833 -37 q 1149 501 1149 278 q 991 883 1149 725 q 610 1040 833 1040 m 840 450 q 678 387 778 387 l 542 387 q 376 455 438 387 q 315 633 315 521 l 315 671 q 374 839 315 780 q 542 898 433 898 l 678 898 q 905 671 905 898 l 905 307 q 850 161 905 216 q 702 105 793 105 l 369 105 l 369 170 l 702 170 q 804 208 766 170 q 840 307 840 243 l 840 450 m 840 671 q 678 833 840 833 l 542 833 q 420 793 460 833 q 380 671 380 753 l 380 633 q 424 498 380 546 q 542 452 467 452 l 678 452 q 796 498 753 452 q 840 629 839 545 l 840 671 z "},"⊕":{"ha":1221,"x_min":23,"x_max":1198,"o":"m 610 1088 q 1025 917 853 1088 q 1197 501 1197 745 q 1025 86 1197 258 q 610 -85 853 -85 q 195 86 368 -85 q 23 501 23 258 q 195 917 23 745 q 610 1088 368 1088 m 610 1040 q 230 883 388 1040 q 71 501 71 725 q 230 120 71 278 q 610 -37 388 -37 q 991 120 833 -37 q 1149 501 1149 278 q 991 883 1149 725 q 610 1040 833 1040 m 283 534 l 578 534 l 578 829 l 643 829 l 643 534 l 937 534 l 937 469 l 643 469 l 643 174 l 578 174 l 578 469 l 283 469 l 283 534 z "},"⊖":{"ha":1221,"x_min":23,"x_max":1198,"o":"m 610 1088 q 1025 917 853 1088 q 1197 501 1197 745 q 1025 86 1197 258 q 610 -85 853 -85 q 195 86 368 -85 q 23 501 23 258 q 195 917 23 745 q 610 1088 368 1088 m 610 1040 q 230 883 388 1040 q 71 501 71 725 q 230 120 71 278 q 610 -37 388 -37 q 991 120 833 -37 q 1149 501 1149 278 q 991 883 1149 725 q 610 1040 833 1040 m 384 534 l 837 534 l 837 469 l 384 469 l 384 534 z "},"⊗":{"ha":1221,"x_min":23,"x_max":1198,"o":"m 610 1088 q 1025 917 853 1088 q 1197 501 1197 745 q 1025 86 1197 258 q 610 -85 853 -85 q 195 86 368 -85 q 23 501 23 258 q 195 917 23 745 q 610 1088 368 1088 m 610 1040 q 230 883 388 1040 q 71 501 71 725 q 230 120 71 278 q 610 -37 388 -37 q 991 120 833 -37 q 1149 501 1149 278 q 991 883 1149 725 q 610 1040 833 1040 m 355 294 l 564 502 l 356 710 l 402 756 l 610 548 l 818 756 l 864 710 l 656 502 l 865 294 l 819 248 l 610 456 l 401 248 l 355 294 z "},"⊘":{"ha":1337,"x_min":81,"x_max":1255,"o":"m 922 979 q 669 1040 808 1040 q 288 883 446 1040 q 130 501 130 725 q 288 121 130 278 q 355 62 320 88 l 922 979 m 404 31 q 669 -37 522 -37 q 1049 120 892 -37 q 1207 501 1207 278 q 1050 883 1207 725 q 971 949 1012 920 l 404 31 m 1083 917 q 1169 831 1083 917 q 1255 501 1255 745 q 1083 86 1255 258 q 669 -85 911 -85 q 254 86 426 -85 q 81 501 81 258 q 254 917 81 745 q 669 1088 426 1088 q 1083 917 911 1088 z "},"⊙":{"ha":1337,"x_min":81,"x_max":1255,"o":"m 669 1088 q 1083 917 911 1088 q 1255 501 1255 745 q 1083 86 1255 258 q 669 -85 911 -85 q 254 86 426 -85 q 81 501 81 258 q 254 917 81 745 q 669 1088 426 1088 m 669 1040 q 288 883 446 1040 q 130 501 130 725 q 288 120 130 278 q 669 -37 446 -37 q 1049 120 892 -37 q 1207 501 1207 278 q 1049 883 1207 725 q 669 1040 892 1040 m 635 535 l 702 535 l 702 469 l 635 469 l 635 535 z "},"⊛":{"ha":1221,"x_min":23,"x_max":1198,"o":"m 610 1088 q 1025 917 853 1088 q 1197 501 1197 745 q 1025 86 1197 258 q 610 -85 853 -85 q 195 86 368 -85 q 23 501 23 258 q 195 917 23 745 q 610 1088 368 1088 m 610 1040 q 230 883 388 1040 q 71 501 71 725 q 230 120 71 278 q 610 -37 388 -37 q 991 120 833 -37 q 1149 501 1149 278 q 991 883 1149 725 q 610 1040 833 1040 m 578 530 l 578 755 l 643 755 l 643 530 l 857 600 l 878 538 l 663 468 l 795 286 l 743 248 l 610 430 l 478 248 l 425 286 l 557 468 l 343 538 l 363 600 l 578 530 z "},"⊜":{"ha":1221,"x_min":23,"x_max":1198,"o":"m 610 1088 q 1025 917 853 1088 q 1197 501 1197 745 q 1025 86 1197 258 q 610 -85 853 -85 q 195 86 368 -85 q 23 501 23 258 q 195 917 23 745 q 610 1088 368 1088 m 610 1040 q 230 883 388 1040 q 71 501 71 725 q 230 120 71 278 q 610 -37 388 -37 q 991 120 833 -37 q 1149 501 1149 278 q 991 883 1149 725 q 610 1040 833 1040 m 333 670 l 887 670 l 887 605 l 333 605 l 333 670 m 333 399 l 887 399 l 887 334 l 333 334 l 333 399 z "},"⊝":{"ha":1221,"x_min":23,"x_max":1197,"o":"m 610 1088 q 1025 917 853 1088 q 1197 501 1197 745 q 1025 86 1197 258 q 610 -85 853 -85 q 195 86 368 -85 q 23 501 23 258 q 195 917 23 745 q 610 1088 368 1088 m 610 1040 q 230 883 388 1040 q 71 501 71 725 q 230 120 71 278 q 610 -37 388 -37 q 991 120 833 -37 q 1149 501 1149 278 q 991 883 1149 725 q 610 1040 833 1040 m 414 534 l 779 534 l 779 469 l 414 469 l 414 534 z "},"⓪":{"ha":1221,"x_min":23,"x_max":1198,"o":"m 610 1088 q 1025 917 853 1088 q 1197 501 1197 745 q 1025 86 1197 258 q 610 -85 853 -85 q 195 86 368 -85 q 23 501 23 258 q 195 917 23 745 q 610 1088 368 1088 m 610 1040 q 230 883 388 1040 q 71 501 71 725 q 230 120 71 278 q 610 -37 388 -37 q 991 120 833 -37 q 1149 501 1149 278 q 991 883 1149 725 q 610 1040 833 1040 m 610 898 q 873 770 789 898 q 938 504 937 672 l 938 500 q 873 233 938 333 q 612 105 791 106 l 609 105 q 347 233 431 105 q 283 500 283 332 l 283 502 q 366 794 283 693 q 610 898 450 898 m 819 734 q 610 833 754 833 q 416 753 481 833 q 348 502 349 670 l 348 500 q 401 269 348 351 q 609 170 466 170 l 612 170 q 819 269 755 170 q 873 500 873 352 l 873 503 q 819 734 872 652 z "},"":{"ha":783,"x_min":68,"x_max":715,"o":"m 133 374 l 650 374 l 650 469 q 581 660 650 591 q 391 728 513 728 q 203 660 271 728 q 133 469 133 590 l 133 374 m 650 309 l 133 309 l 133 0 l 68 0 l 68 469 q 157 706 68 617 q 391 793 243 793 q 627 706 540 793 q 715 469 715 618 l 715 0 l 650 0 l 650 309 z "},"":{"ha":716,"x_min":68,"x_max":667,"o":"m 568 424 q 608 394 591 412 q 667 227 667 335 q 623 73 667 130 q 440 0 566 0 l 68 0 l 68 793 l 445 793 q 593 736 536 793 q 648 591 648 682 q 593 444 648 499 q 568 424 581 433 m 134 388 l 134 65 l 440 65 q 572 120 532 65 q 602 227 602 159 q 562 348 602 308 q 440 388 522 388 l 134 388 m 134 728 l 134 453 l 445 453 q 547 490 509 453 q 583 591 583 526 q 547 690 583 654 q 445 728 509 728 l 134 728 z "},"":{"ha":708,"x_min":47,"x_max":661,"o":"m 661 724 l 601 724 q 265 683 357 724 q 113 395 113 614 q 265 106 113 175 q 601 66 357 65 l 661 66 l 661 1 l 601 1 q 220 50 324 0 q 47 395 47 132 q 220 740 47 658 q 601 789 324 789 l 661 789 l 661 724 z "},"":{"ha":768,"x_min":68,"x_max":726,"o":"m 133 65 l 391 65 q 549 121 483 65 q 638 258 609 172 q 660 396 660 323 q 638 535 660 470 q 549 672 609 621 q 391 728 483 728 l 133 728 l 133 65 m 68 0 l 68 793 l 391 793 q 589 724 507 793 q 700 555 664 662 q 726 396 726 479 q 700 237 726 313 q 589 68 664 131 q 391 0 507 0 l 68 0 z "},"":{"ha":637,"x_min":68,"x_max":594,"o":"m 570 453 l 570 388 l 133 388 l 133 65 l 589 65 l 589 0 l 68 0 l 68 793 l 594 793 l 594 728 l 133 728 l 133 453 l 570 453 z "},"":{"ha":530,"x_min":68,"x_max":506,"o":"m 481 453 l 481 388 l 133 388 l 133 0 l 68 0 l 68 793 l 506 793 l 506 728 l 133 728 l 133 453 l 481 453 z "},"":{"ha":766,"x_min":68,"x_max":715,"o":"m 359 363 l 359 429 l 715 429 l 715 323 q 627 87 715 175 q 392 0 541 0 q 157 87 243 0 q 68 323 68 175 l 68 469 q 157 706 68 617 q 392 793 244 793 l 608 793 l 608 728 l 392 728 q 203 660 271 728 q 134 469 134 590 l 134 323 q 203 133 134 202 q 392 65 270 65 q 581 133 513 65 q 650 323 650 202 l 650 363 l 359 363 z "},"":{"ha":662,"x_min":68,"x_max":594,"o":"m 594 0 l 529 0 l 529 388 l 134 388 l 134 0 l 68 0 l 68 793 l 134 793 l 134 453 l 529 453 l 529 793 l 594 793 l 594 0 z "},"":{"ha":229,"x_min":81,"x_max":147,"o":"m 147 0 l 81 0 l 81 793 l 147 793 l 147 0 z "},"":{"ha":401,"x_min":14,"x_max":334,"o":"m 14 0 l 14 65 l 60 65 q 212 120 157 65 q 269 275 269 177 l 269 793 l 334 793 l 334 275 q 258 75 334 150 q 60 0 184 0 l 14 0 z "},"":{"ha":716,"x_min":68,"x_max":657,"o":"m 592 793 l 657 793 l 657 760 q 548 485 657 588 q 441 417 503 442 q 548 349 503 392 q 657 73 657 245 l 657 0 l 592 0 l 592 73 q 503 302 592 218 q 262 385 416 384 l 134 385 l 134 0 l 68 0 l 68 793 l 134 793 l 134 450 l 262 450 q 503 532 416 450 q 592 760 592 616 l 592 793 z "},"":{"ha":534,"x_min":68,"x_max":526,"o":"m 526 65 l 526 0 l 68 0 l 68 793 l 133 793 l 133 65 l 526 65 z "},"":{"ha":856,"x_min":47,"x_max":808,"o":"m 47 0 l 89 793 l 140 793 l 428 235 l 716 793 l 767 793 l 808 0 l 743 0 l 710 639 l 428 92 l 146 639 l 113 0 l 47 0 z "},"":{"ha":740,"x_min":68,"x_max":672,"o":"m 134 0 l 68 0 l 68 793 l 117 793 l 607 131 l 607 793 l 672 793 l 672 0 l 623 0 l 134 661 l 134 0 z "},"":{"ha":783,"x_min":68,"x_max":715,"o":"m 391 793 q 627 706 541 793 q 715 469 715 618 l 715 323 q 627 87 715 175 q 391 0 541 0 q 156 87 243 0 q 68 323 68 175 l 68 469 q 157 706 68 617 q 391 793 243 793 m 581 660 q 391 728 513 728 q 203 660 271 728 q 133 469 133 590 l 133 323 q 203 133 133 202 q 391 65 270 65 q 581 133 513 65 q 650 323 650 202 l 650 469 q 581 660 650 591 z "},"":{"ha":684,"x_min":68,"x_max":667,"o":"m 133 339 l 133 0 l 68 0 l 68 793 l 440 793 q 608 734 549 793 q 667 566 667 675 q 608 399 667 458 q 440 339 549 339 l 133 339 m 133 728 l 133 405 l 440 405 q 562 445 522 405 q 602 566 602 484 q 562 688 602 648 q 440 728 522 728 l 133 728 z "},"":{"ha":783,"x_min":68,"x_max":715,"o":"m 359 193 l 425 193 l 425 68 q 581 134 523 76 q 650 325 650 203 l 650 471 q 581 661 650 592 q 391 729 513 729 q 203 661 271 729 q 133 471 133 591 l 133 325 q 202 134 133 203 q 359 68 260 76 l 359 193 m 425 -155 l 359 -155 l 359 2 q 156 88 233 12 q 68 325 68 176 l 68 471 q 157 707 68 618 q 391 794 243 794 q 627 707 540 794 q 715 471 715 619 l 715 325 q 627 88 715 176 q 425 2 550 12 l 425 -155 z "},"":{"ha":712,"x_min":68,"x_max":657,"o":"m 657 0 l 592 0 l 592 73 q 503 302 592 218 q 261 385 416 385 l 134 385 l 134 0 l 68 0 l 68 793 l 446 793 q 593 736 536 793 q 648 589 648 680 q 593 441 648 497 q 495 389 553 402 q 548 349 524 372 q 657 73 657 245 l 657 0 m 134 728 l 134 450 l 446 450 q 547 487 509 450 q 583 589 583 524 q 547 690 583 654 q 446 728 509 728 l 134 728 z "},"":{"ha":694,"x_min":47,"x_max":646,"o":"m 616 793 l 616 728 l 347 728 q 171 685 234 728 q 113 578 113 645 q 187 463 113 497 q 351 429 232 443 q 554 382 498 411 q 646 214 646 334 q 559 54 646 113 q 347 0 479 0 l 47 0 l 47 65 l 347 65 q 523 108 460 65 q 581 214 581 148 q 507 330 581 295 q 343 364 462 350 q 140 410 195 382 q 47 578 47 459 q 134 739 47 679 q 347 793 214 793 l 616 793 z "},"":{"ha":646,"x_min":7,"x_max":640,"o":"m 640 793 l 640 728 l 356 728 l 356 0 l 291 0 l 291 728 l 7 728 l 7 793 l 640 793 z "},"":{"ha":783,"x_min":68,"x_max":715,"o":"m 650 793 l 715 793 l 715 323 q 627 87 715 175 q 391 0 540 0 q 156 87 243 0 q 68 323 68 175 l 68 793 l 133 793 l 133 323 q 202 133 133 202 q 391 65 270 65 q 581 133 513 65 q 650 323 650 202 l 650 793 z "},"":{"ha":723,"x_min":7,"x_max":716,"o":"m 77 793 l 361 117 l 646 793 l 716 793 q 383 0 611 543 l 340 0 l 7 793 l 77 793 z "},"":{"ha":1222,"x_min":68,"x_max":1154,"o":"m 644 327 q 705 132 644 203 q 866 65 764 65 q 1027 132 969 65 q 1089 327 1089 203 l 1089 793 l 1154 793 l 1154 327 q 1076 90 1154 180 q 866 0 998 0 q 656 90 734 0 q 611 161 629 121 q 566 90 593 121 q 356 0 488 0 q 146 90 223 0 q 68 327 68 179 l 68 793 l 133 793 l 133 327 q 195 132 133 203 q 356 65 253 65 q 517 132 458 65 q 578 327 578 203 l 578 793 l 644 793 l 644 327 z "},"":{"ha":790,"x_min":41,"x_max":749,"o":"m 749 793 l 749 728 l 716 728 q 505 640 583 728 q 427 397 427 552 q 505 153 427 241 q 716 65 583 65 l 749 65 l 749 0 l 716 0 q 456 111 554 0 q 395 211 418 154 q 334 111 372 154 q 73 0 236 0 l 41 0 l 41 65 l 73 65 q 285 153 207 65 q 362 397 362 241 q 285 640 362 552 q 73 728 207 728 l 41 728 l 41 793 l 73 793 q 334 682 236 793 q 395 582 372 639 q 456 682 418 639 q 716 793 554 793 l 749 793 z "},"":{"ha":618,"x_min":34,"x_max":585,"o":"m 342 0 l 277 0 l 277 281 q 110 354 174 290 q 34 555 34 429 l 34 793 l 99 793 l 99 555 q 156 400 99 456 q 309 345 211 345 q 463 400 407 345 q 519 555 519 456 l 519 793 l 585 793 l 585 555 q 509 354 585 429 q 342 281 445 290 l 342 0 z "},"":{"ha":730,"x_min":47,"x_max":683,"o":"m 47 725 l 47 790 l 683 790 l 683 747 l 147 65 l 683 65 l 683 0 l 47 0 l 47 44 l 583 725 l 47 725 z "},"₺":{"ha":904,"x_min":81,"x_max":823,"o":"m 323 577 l 323 707 l 97 650 l 81 713 l 323 774 l 323 964 l 389 964 l 389 791 l 621 849 l 637 786 l 389 724 l 389 593 l 621 652 l 637 589 l 389 526 l 389 70 q 601 141 511 78 q 758 463 746 243 l 823 460 q 580 53 807 161 q 355 5 469 0 l 323 6 l 323 510 l 97 453 l 81 516 l 323 577 z "},"Ā":{"ha":880,"x_min":7,"x_max":873,"o":"m 673 399 l 523 852 q 488 907 511 888 q 440 925 467 925 q 393 907 414 925 q 357 852 369 888 l 75 0 l 7 0 l 296 872 q 351 957 313 926 q 440 990 391 990 q 530 957 490 990 q 585 872 567 926 l 873 0 l 805 0 l 694 334 l 248 334 l 269 399 l 673 399 m 265 1179 l 616 1179 l 616 1114 l 265 1114 l 265 1179 z "},"ā":{"ha":817,"x_min":54,"x_max":736,"o":"m 616 161 l 616 68 q 395 0 530 0 q 148 92 240 0 q 54 340 54 185 q 148 590 54 496 q 395 682 240 682 q 642 590 551 682 q 736 340 736 496 l 736 0 l 671 0 l 671 340 q 596 543 671 469 q 395 616 524 616 q 194 543 267 616 q 119 340 119 469 q 194 138 119 212 q 395 65 267 65 q 596 138 524 65 q 616 161 607 149 m 220 870 l 570 870 l 570 805 l 220 805 l 220 870 z "},"Ă":{"ha":880,"x_min":7,"x_max":873,"o":"m 673 399 l 523 852 q 488 907 511 888 q 440 925 467 925 q 393 907 414 925 q 357 852 369 888 l 75 0 l 7 0 l 296 872 q 351 957 313 926 q 440 990 391 990 q 530 957 490 990 q 585 872 567 926 l 873 0 l 805 0 l 694 334 l 248 334 l 269 399 l 673 399 m 305 1217 q 347 1172 311 1196 q 440 1145 387 1145 q 533 1172 494 1145 q 575 1217 570 1196 l 636 1200 q 568 1119 624 1157 q 440 1082 513 1082 q 313 1119 367 1082 q 244 1200 256 1157 l 305 1217 z "},"ă":{"ha":817,"x_min":54,"x_max":736,"o":"m 616 161 l 616 68 q 395 0 530 0 q 148 92 240 0 q 54 340 54 185 q 148 590 54 496 q 395 682 240 682 q 642 590 551 682 q 736 340 736 496 l 736 0 l 671 0 l 671 340 q 596 543 671 469 q 395 616 524 616 q 194 543 267 616 q 119 340 119 469 q 194 138 119 212 q 395 65 267 65 q 596 138 524 65 q 616 161 607 149 m 260 909 q 302 863 266 888 q 395 837 342 837 q 488 863 449 837 q 530 909 525 888 l 591 892 q 523 810 579 848 q 395 774 468 774 q 268 810 322 774 q 199 892 212 848 l 260 909 z "},"Ą":{"ha":880,"x_min":7,"x_max":951,"o":"m 812 0 l 805 0 l 694 334 l 248 334 l 269 399 l 673 399 l 523 852 q 488 907 511 888 q 440 925 467 925 q 393 907 414 925 q 357 852 369 888 l 75 0 l 7 0 l 296 872 q 351 957 313 926 q 440 990 391 990 q 530 957 490 990 q 585 872 567 926 l 873 0 l 859 0 q 829 -54 839 -25 q 823 -97 823 -77 q 834 -138 823 -122 q 893 -172 859 -172 q 924 -166 907 -172 l 951 -210 q 877 -231 924 -231 q 798 -192 829 -229 q 765 -111 765 -155 q 766 -92 765 -102 q 812 0 773 -42 z "},"ą":{"ha":817,"x_min":54,"x_max":819,"o":"m 680 0 l 671 0 l 671 340 q 596 543 671 469 q 395 616 524 616 q 194 543 267 616 q 119 340 119 469 q 194 138 119 212 q 395 65 267 65 q 596 138 524 65 q 616 161 607 149 l 616 68 q 395 0 530 0 q 148 92 240 0 q 54 340 54 185 q 148 590 54 496 q 395 682 240 682 q 642 590 551 682 q 736 340 736 496 l 736 0 l 727 0 q 698 -54 707 -25 q 692 -97 692 -77 q 703 -138 692 -122 q 762 -172 727 -172 q 792 -166 776 -172 l 819 -210 q 745 -231 793 -231 q 666 -192 697 -229 q 633 -111 633 -155 q 635 -92 633 -102 q 680 0 642 -42 z "},"Ć":{"ha":805,"x_min":81,"x_max":770,"o":"m 770 990 l 770 925 l 702 926 q 309 873 410 926 q 146 495 146 787 q 309 117 146 204 q 702 65 410 64 l 770 65 l 770 0 l 702 0 q 262 60 375 -1 q 81 495 81 160 q 262 930 81 830 q 702 990 375 991 l 770 990 m 752 1294 l 536 1071 l 477 1071 l 656 1294 l 752 1294 z "},"ć":{"ha":667,"x_min":81,"x_max":631,"o":"m 631 617 l 575 617 q 283 583 364 618 q 146 341 146 525 q 283 100 146 157 q 575 66 364 65 l 631 66 l 631 1 l 575 1 q 239 43 332 0 q 81 341 81 114 q 239 640 81 568 q 575 682 332 682 l 631 682 l 631 617 m 610 985 l 395 762 l 335 762 l 514 985 l 610 985 z "},"Ĉ":{"ha":805,"x_min":81,"x_max":770,"o":"m 770 990 l 770 925 l 702 926 q 309 873 410 926 q 146 495 146 787 q 309 117 146 204 q 702 65 410 64 l 770 65 l 770 0 l 702 0 q 262 60 375 -1 q 81 495 81 160 q 262 930 81 830 q 702 990 375 991 l 770 990 m 587 1287 l 766 1064 l 706 1064 l 538 1238 l 371 1064 l 311 1064 l 490 1287 l 587 1287 z "},"ĉ":{"ha":667,"x_min":81,"x_max":652,"o":"m 631 617 l 575 617 q 283 583 364 618 q 146 341 146 525 q 283 100 146 157 q 575 66 364 65 l 631 66 l 631 1 l 575 1 q 239 43 332 0 q 81 341 81 114 q 239 640 81 568 q 575 682 332 682 l 631 682 l 631 617 m 473 985 l 652 762 l 593 762 l 425 936 l 258 762 l 198 762 l 377 985 l 473 985 z "},"Ċ":{"ha":805,"x_min":81,"x_max":770,"o":"m 770 990 l 770 925 l 702 926 q 309 873 410 926 q 146 495 146 787 q 309 117 146 204 q 702 65 410 64 l 770 65 l 770 0 l 702 0 q 262 60 375 -1 q 81 495 81 160 q 262 930 81 830 q 702 990 375 991 l 770 990 m 572 1125 l 507 1125 l 507 1190 l 572 1190 l 572 1125 z "},"ċ":{"ha":667,"x_min":81,"x_max":631,"o":"m 631 617 l 575 617 q 283 583 364 618 q 146 341 146 525 q 283 100 146 157 q 575 66 364 65 l 631 66 l 631 1 l 575 1 q 239 43 332 0 q 81 341 81 114 q 239 640 81 568 q 575 682 332 682 l 631 682 l 631 617 m 490 817 l 425 817 l 425 882 l 490 882 l 490 817 z "},"Č":{"ha":805,"x_min":81,"x_max":814,"o":"m 770 990 l 770 925 l 702 926 q 309 873 410 926 q 146 495 146 787 q 309 117 146 204 q 702 65 410 64 l 770 65 l 770 0 l 702 0 q 262 60 375 -1 q 81 495 81 160 q 262 930 81 830 q 702 990 375 991 l 770 990 m 539 1057 l 360 1280 l 420 1280 l 587 1107 l 755 1280 l 814 1280 l 635 1057 l 539 1057 z "},"č":{"ha":667,"x_min":81,"x_max":704,"o":"m 631 617 l 575 617 q 283 583 364 618 q 146 341 146 525 q 283 100 146 157 q 575 66 364 65 l 631 66 l 631 1 l 575 1 q 239 43 332 0 q 81 341 81 114 q 239 640 81 568 q 575 682 332 682 l 631 682 l 631 617 m 429 769 l 250 992 l 309 992 l 477 819 l 644 992 l 704 992 l 525 769 l 429 769 z "},"Ď":{"ha":901,"x_min":81,"x_max":863,"o":"m 81 0 l 81 834 q 127 944 81 899 q 237 990 173 990 l 447 990 q 693 904 590 990 q 831 694 786 827 q 863 495 863 600 q 831 295 863 390 q 693 85 786 163 q 447 0 590 0 l 207 0 l 207 65 l 447 65 q 653 138 566 65 q 769 316 731 203 q 798 495 798 400 q 769 673 798 589 q 653 852 731 786 q 447 924 566 924 l 237 924 q 173 898 200 924 q 146 834 146 871 l 146 0 l 81 0 m 370 1076 l 191 1299 l 250 1299 l 418 1126 l 585 1299 l 645 1299 l 466 1076 l 370 1076 z "},"ď":{"ha":950,"x_min":81,"x_max":923,"o":"m 644 521 q 623 544 634 533 q 422 616 551 616 q 221 544 294 616 q 146 341 146 469 q 221 138 146 212 q 422 65 294 65 q 623 138 551 65 q 698 341 698 212 l 698 990 l 763 990 l 763 341 q 669 92 763 186 q 422 0 578 0 q 175 92 267 0 q 81 341 81 186 q 175 590 81 496 q 422 682 267 682 q 644 613 557 682 l 644 521 m 923 903 q 893 784 919 849 l 855 784 q 880 911 880 846 l 844 911 l 844 990 l 923 990 l 923 903 z "},"Đ":{"ha":978,"x_min":7,"x_max":924,"o":"m 142 528 l 142 834 q 188 944 142 899 q 298 990 234 990 l 508 990 q 754 904 651 990 q 892 694 847 827 q 924 495 924 600 q 892 295 924 390 q 754 85 847 163 q 508 0 651 0 l 298 0 q 188 45 234 0 q 142 156 142 92 l 142 463 l 7 463 l 7 528 l 142 528 m 208 528 l 547 528 l 547 463 l 208 463 l 208 156 q 234 92 208 118 q 298 65 261 65 l 508 65 q 714 138 627 65 q 830 316 792 203 q 859 495 859 400 q 830 673 859 589 q 714 852 792 786 q 508 924 627 924 l 298 924 q 234 898 261 924 q 208 834 208 871 l 208 528 z "},"đ":{"ha":882,"x_min":54,"x_max":867,"o":"m 194 543 q 119 340 119 469 q 194 138 119 212 q 395 65 267 65 q 596 138 524 65 q 671 338 670 212 l 671 343 q 596 543 670 470 q 395 616 524 616 q 194 543 267 616 m 736 816 l 736 337 q 642 92 735 184 q 395 0 551 0 q 148 92 240 0 q 54 340 54 185 q 148 590 54 496 q 395 682 240 682 q 642 590 551 682 q 671 557 658 574 l 671 816 l 380 816 l 380 881 l 671 881 l 671 990 l 736 990 l 736 881 l 867 881 l 867 816 l 736 816 z "},"Ē":{"ha":762,"x_min":81,"x_max":720,"o":"m 700 558 l 700 493 l 146 493 l 146 156 q 173 92 146 118 q 237 65 200 65 l 714 65 l 714 0 l 237 0 q 127 45 173 0 q 81 156 81 92 l 81 834 q 127 944 81 899 q 237 990 173 990 l 720 990 l 720 924 l 237 924 q 173 898 200 924 q 146 834 146 871 l 146 558 l 700 558 m 226 1179 l 576 1179 l 576 1114 l 226 1114 l 226 1179 z "},"ē":{"ha":788,"x_min":54,"x_max":734,"o":"m 656 443 q 574 564 632 519 q 395 616 504 616 q 194 543 267 616 q 119 340 119 469 q 138 227 119 286 q 194 138 157 174 q 395 65 267 65 l 660 65 l 660 0 l 395 0 q 148 92 240 0 q 54 340 54 185 q 148 590 54 496 q 395 682 240 682 q 613 615 526 682 q 727 427 702 547 l 734 397 l 188 241 l 172 303 l 656 443 m 219 870 l 570 870 l 570 805 l 219 805 l 219 870 z "},"Ĕ":{"ha":762,"x_min":81,"x_max":720,"o":"m 700 558 l 700 493 l 146 493 l 146 156 q 173 92 146 118 q 237 65 200 65 l 714 65 l 714 0 l 237 0 q 127 45 173 0 q 81 156 81 92 l 81 834 q 127 944 81 899 q 237 990 173 990 l 720 990 l 720 924 l 237 924 q 173 898 200 924 q 146 834 146 871 l 146 558 l 700 558 m 266 1217 q 308 1172 271 1196 q 401 1145 347 1145 q 494 1172 454 1145 q 536 1217 530 1196 l 597 1200 q 528 1119 585 1157 q 401 1082 473 1082 q 273 1119 328 1082 q 205 1200 217 1157 l 266 1217 z "},"ĕ":{"ha":788,"x_min":54,"x_max":734,"o":"m 656 443 q 574 564 632 519 q 395 616 504 616 q 194 543 267 616 q 119 340 119 469 q 138 227 119 286 q 194 138 157 174 q 395 65 267 65 l 660 65 l 660 0 l 395 0 q 148 92 240 0 q 54 340 54 185 q 148 590 54 496 q 395 682 240 682 q 613 615 526 682 q 727 427 702 547 l 734 397 l 188 241 l 172 303 l 656 443 m 259 909 q 301 863 264 888 q 394 837 340 837 q 487 863 448 837 q 529 909 524 888 l 590 892 q 522 810 578 848 q 394 774 467 774 q 267 810 321 774 q 198 892 210 848 l 259 909 z "},"Ė":{"ha":762,"x_min":81,"x_max":720,"o":"m 700 558 l 700 493 l 146 493 l 146 156 q 173 92 146 118 q 237 65 200 65 l 714 65 l 714 0 l 237 0 q 127 45 173 0 q 81 156 81 92 l 81 834 q 127 944 81 899 q 237 990 173 990 l 720 990 l 720 924 l 237 924 q 173 898 200 924 q 146 834 146 871 l 146 558 l 700 558 m 433 1125 l 368 1125 l 368 1190 l 433 1190 l 433 1125 z "},"ė":{"ha":788,"x_min":54,"x_max":734,"o":"m 656 443 q 574 564 632 519 q 395 616 504 616 q 194 543 267 616 q 119 340 119 469 q 138 227 119 286 q 194 138 157 174 q 395 65 267 65 l 660 65 l 660 0 l 395 0 q 148 92 240 0 q 54 340 54 185 q 148 590 54 496 q 395 682 240 682 q 613 615 526 682 q 727 427 702 547 l 734 397 l 188 241 l 172 303 l 656 443 m 427 817 l 361 817 l 361 882 l 427 882 l 427 817 z "},"Ę":{"ha":762,"x_min":81,"x_max":720,"o":"m 700 558 l 700 493 l 146 493 l 146 156 q 173 92 146 118 q 237 65 200 65 l 714 65 l 714 0 l 237 0 q 127 45 173 0 q 81 156 81 92 l 81 834 q 127 944 81 899 q 237 990 173 990 l 720 990 l 720 924 l 237 924 q 173 898 200 924 q 146 834 146 871 l 146 558 l 700 558 m 629 1 q 599 -54 608 -24 q 593 -97 593 -77 q 604 -138 593 -122 q 663 -172 628 -172 q 693 -166 677 -172 l 720 -210 q 646 -231 694 -231 q 567 -192 598 -229 q 534 -111 534 -155 q 536 -92 534 -102 q 582 1 543 -41 l 629 1 z "},"ę":{"ha":774,"x_min":54,"x_max":734,"o":"m 553 0 l 395 0 q 148 92 240 0 q 54 340 54 185 q 148 590 54 496 q 395 682 240 682 q 613 615 526 682 q 727 427 702 547 l 734 397 l 188 241 l 172 303 l 656 443 q 574 564 632 519 q 395 616 504 616 q 194 543 267 616 q 119 340 119 469 q 138 227 119 286 q 194 138 157 174 q 395 65 267 65 l 660 65 l 660 0 l 605 0 q 599 -16 602 -7 q 593 -59 593 -39 q 604 -100 593 -84 q 663 -134 628 -134 q 693 -128 677 -134 l 720 -172 q 646 -193 694 -193 q 567 -154 598 -191 q 534 -73 534 -117 q 536 -54 534 -64 q 553 0 540 -26 z "},"Ě":{"ha":762,"x_min":81,"x_max":720,"o":"m 700 558 l 700 493 l 146 493 l 146 156 q 173 92 146 118 q 237 65 200 65 l 714 65 l 714 0 l 237 0 q 127 45 173 0 q 81 156 81 92 l 81 834 q 127 944 81 899 q 237 990 173 990 l 720 990 l 720 924 l 237 924 q 173 898 200 924 q 146 834 146 871 l 146 558 l 700 558 m 353 1044 l 174 1267 l 233 1267 l 401 1093 l 568 1267 l 628 1267 l 449 1044 l 353 1044 z "},"ě":{"ha":788,"x_min":54,"x_max":734,"o":"m 656 443 q 574 564 632 519 q 395 616 504 616 q 194 543 267 616 q 119 340 119 469 q 138 227 119 286 q 194 138 157 174 q 395 65 267 65 l 660 65 l 660 0 l 395 0 q 148 92 240 0 q 54 340 54 185 q 148 590 54 496 q 395 682 240 682 q 613 615 526 682 q 727 427 702 547 l 734 397 l 188 241 l 172 303 l 656 443 m 346 735 l 167 958 l 227 958 l 394 785 l 562 958 l 621 958 l 442 735 l 346 735 z "},"Ĝ":{"ha":927,"x_min":68,"x_max":873,"o":"m 438 462 l 438 528 l 873 528 l 873 402 q 763 107 873 217 q 471 0 656 0 q 178 107 286 0 q 68 402 68 217 l 68 587 q 178 882 68 772 q 471 990 286 990 l 737 990 l 737 924 l 471 924 q 224 836 313 924 q 133 587 133 745 l 133 402 q 224 153 133 244 q 471 65 312 65 q 717 153 629 65 q 808 402 808 244 l 808 462 l 438 462 m 519 1274 l 698 1050 l 638 1050 l 471 1224 l 303 1050 l 243 1050 l 422 1274 l 519 1274 z "},"ĝ":{"ha":817,"x_min":54,"x_max":736,"o":"m 623 169 l 623 73 q 395 0 534 0 q 148 92 240 0 q 54 340 54 185 q 148 590 54 496 q 395 682 240 682 q 642 590 551 682 q 736 340 736 496 l 736 33 q 643 -216 736 -123 q 396 -309 551 -308 l 202 -309 l 202 -243 l 396 -243 q 597 -170 524 -243 q 671 33 671 -96 l 671 340 q 596 543 671 469 q 395 616 524 616 q 194 543 267 616 q 119 340 119 469 q 194 138 119 212 q 395 65 267 65 q 596 138 524 65 q 623 169 611 153 m 444 965 l 623 742 l 563 742 l 395 916 l 228 742 l 168 742 l 347 965 l 444 965 z "},"Ğ":{"ha":927,"x_min":68,"x_max":873,"o":"m 438 462 l 438 528 l 873 528 l 873 402 q 763 107 873 217 q 471 0 656 0 q 178 107 286 0 q 68 402 68 217 l 68 587 q 178 882 68 772 q 471 990 286 990 l 737 990 l 737 924 l 471 924 q 224 836 313 924 q 133 587 133 745 l 133 402 q 224 153 133 244 q 471 65 312 65 q 717 153 629 65 q 808 402 808 244 l 808 462 l 438 462 m 383 1217 q 425 1172 389 1196 q 518 1145 465 1145 q 611 1172 572 1145 q 653 1217 648 1196 l 714 1200 q 646 1119 702 1157 q 518 1082 591 1082 q 391 1119 445 1082 q 322 1200 334 1157 l 383 1217 z "},"ğ":{"ha":817,"x_min":54,"x_max":736,"o":"m 623 169 l 623 73 q 395 0 534 0 q 148 92 240 0 q 54 340 54 185 q 148 590 54 496 q 395 682 240 682 q 642 590 551 682 q 736 340 736 496 l 736 33 q 643 -216 736 -123 q 396 -309 551 -308 l 202 -309 l 202 -243 l 396 -243 q 597 -170 524 -243 q 671 33 671 -96 l 671 340 q 596 543 671 469 q 395 616 524 616 q 194 543 267 616 q 119 340 119 469 q 194 138 119 212 q 395 65 267 65 q 596 138 524 65 q 623 169 611 153 m 260 909 q 302 863 266 888 q 395 837 342 837 q 488 863 449 837 q 530 909 525 888 l 591 892 q 523 810 579 848 q 395 774 468 774 q 268 810 322 774 q 199 892 212 848 l 260 909 z "},"Ġ":{"ha":927,"x_min":68,"x_max":873,"o":"m 438 462 l 438 528 l 873 528 l 873 402 q 763 107 873 217 q 471 0 656 0 q 178 107 286 0 q 68 402 68 217 l 68 587 q 178 882 68 772 q 471 990 286 990 l 737 990 l 737 924 l 471 924 q 224 836 313 924 q 133 587 133 745 l 133 402 q 224 153 133 244 q 471 65 312 65 q 717 153 629 65 q 808 402 808 244 l 808 462 l 438 462 m 503 1125 l 438 1125 l 438 1190 l 503 1190 l 503 1125 z "},"ġ":{"ha":817,"x_min":54,"x_max":736,"o":"m 623 169 l 623 73 q 395 0 534 0 q 148 92 240 0 q 54 340 54 185 q 148 590 54 496 q 395 682 240 682 q 642 590 551 682 q 736 340 736 496 l 736 33 q 643 -216 736 -123 q 396 -309 551 -308 l 202 -309 l 202 -243 l 396 -243 q 597 -170 524 -243 q 671 33 671 -96 l 671 340 q 596 543 671 469 q 395 616 524 616 q 194 543 267 616 q 119 340 119 469 q 194 138 119 212 q 395 65 267 65 q 596 138 524 65 q 623 169 611 153 m 428 817 l 363 817 l 363 882 l 428 882 l 428 817 z "},"Ģ":{"ha":927,"x_min":68,"x_max":873,"o":"m 438 462 l 438 528 l 873 528 l 873 402 q 763 107 873 217 q 471 0 656 0 q 178 107 286 0 q 68 402 68 217 l 68 587 q 178 882 68 772 q 471 990 286 990 l 737 990 l 737 924 l 471 924 q 224 836 313 924 q 133 587 133 745 l 133 402 q 224 153 133 244 q 471 65 312 65 q 717 153 629 65 q 808 402 808 244 l 808 462 l 438 462 m 576 -173 q 547 -292 572 -227 l 509 -292 q 533 -164 533 -230 l 498 -164 l 498 -85 l 576 -85 l 576 -173 m 501 -184 q 471 -303 497 -238 l 433 -303 q 458 -176 458 -241 l 422 -176 l 422 -97 l 501 -97 l 501 -184 z "},"ģ":{"ha":817,"x_min":54,"x_max":736,"o":"m 623 169 l 623 73 q 395 0 534 0 q 148 92 240 0 q 54 340 54 185 q 148 590 54 496 q 395 682 240 682 q 642 590 551 682 q 736 340 736 496 l 736 33 q 643 -216 736 -123 q 396 -309 551 -308 l 202 -309 l 202 -243 l 396 -243 q 597 -170 524 -243 q 671 33 671 -96 l 671 340 q 596 543 671 469 q 395 616 524 616 q 194 543 267 616 q 119 340 119 469 q 194 138 119 212 q 395 65 267 65 q 596 138 524 65 q 623 169 611 153 m 360 871 q 390 990 364 925 l 428 990 q 404 863 404 928 l 439 863 l 439 784 l 360 784 l 360 871 z "},"Ĥ":{"ha":814,"x_min":81,"x_max":732,"o":"m 732 0 l 667 0 l 667 493 l 146 493 l 146 0 l 81 0 l 81 990 l 146 990 l 146 558 l 667 558 l 667 990 l 732 990 l 732 0 m 455 1274 l 634 1050 l 574 1050 l 407 1224 l 239 1050 l 180 1050 l 359 1274 l 455 1274 z "},"ĥ":{"ha":844,"x_min":81,"x_max":763,"o":"m 81 990 l 146 990 l 146 557 q 175 590 159 574 q 422 682 267 682 q 669 590 578 682 q 763 340 763 496 l 763 0 l 698 0 l 698 340 q 623 543 698 469 q 422 616 551 616 q 221 543 294 616 q 146 343 147 470 l 146 0 l 81 0 l 81 990 m 471 1250 l 650 1027 l 590 1027 l 422 1200 l 255 1027 l 195 1027 l 374 1250 l 471 1250 z "},"Ħ":{"ha":872,"x_min":7,"x_max":865,"o":"m 762 789 l 762 0 l 696 0 l 696 493 l 176 493 l 176 0 l 111 0 l 111 789 l 7 789 l 7 854 l 111 854 l 111 990 l 176 990 l 176 854 l 696 854 l 696 990 l 762 990 l 762 854 l 865 854 l 865 789 l 762 789 m 176 789 l 176 558 l 696 558 l 696 789 l 176 789 z "},"ħ":{"ha":858,"x_min":7,"x_max":790,"o":"m 109 990 l 174 990 l 174 557 q 202 590 186 574 q 450 682 294 682 q 696 590 605 682 q 790 340 790 496 l 790 0 l 725 0 l 725 340 q 650 543 725 469 q 450 616 578 616 q 248 543 321 616 q 174 343 174 470 l 174 0 l 109 0 l 109 990 m 7 894 l 494 894 l 494 829 l 7 829 l 7 894 z "},"Ĩ":{"ha":269,"x_min":-74,"x_max":342,"o":"m 167 0 l 102 0 l 102 990 l 167 990 l 167 0 m -9 1099 l -74 1113 l -67 1145 q -30 1211 -60 1183 q 39 1238 1 1238 q 147 1200 77 1238 q 227 1167 204 1167 q 255 1177 243 1167 q 271 1206 267 1186 l 277 1239 l 342 1225 l 336 1194 q 298 1126 327 1152 q 226 1101 268 1101 q 115 1141 186 1101 q 39 1172 60 1172 q 16 1162 28 1172 q -3 1133 1 1150 l -9 1099 z "},"ĩ":{"ha":241,"x_min":-87,"x_max":329,"o":"m 153 0 l 88 0 l 88 682 l 153 682 l 153 0 m -22 791 l -87 804 l -81 837 q -43 902 -73 875 q 25 930 -13 930 q 134 891 64 930 q 213 859 191 859 q 241 869 230 859 q 257 897 253 878 l 263 930 l 328 917 l 322 885 q 284 818 313 843 q 212 793 254 793 q 101 833 172 793 q 25 863 46 863 q 2 854 14 863 q -16 824 -12 842 l -22 791 z "},"Ī":{"ha":269,"x_min":-41,"x_max":310,"o":"m 167 0 l 102 0 l 102 990 l 167 990 l 167 0 m -41 1179 l 310 1179 l 310 1114 l -41 1114 l -41 1179 z "},"ī":{"ha":241,"x_min":-54,"x_max":296,"o":"m 153 0 l 88 0 l 88 682 l 153 682 l 153 0 m -54 870 l 296 870 l 296 805 l -54 805 l -54 870 z "},"Ĭ":{"ha":269,"x_min":-62,"x_max":330,"o":"m 167 0 l 102 0 l 102 990 l 167 990 l 167 0 m -1 1217 q 41 1172 5 1196 q 134 1145 81 1145 q 227 1172 188 1145 q 269 1217 264 1196 l 330 1200 q 262 1119 318 1157 q 134 1082 207 1082 q 7 1119 61 1082 q -62 1200 -50 1157 l -1 1217 z "},"ĭ":{"ha":241,"x_min":-75,"x_max":317,"o":"m 153 0 l 88 0 l 88 682 l 153 682 l 153 0 m -14 909 q 28 863 -9 888 q 121 837 67 837 q 214 863 174 837 q 256 909 250 888 l 317 892 q 248 810 304 848 q 121 774 193 774 q -7 810 47 774 q -75 892 -63 848 l -14 909 z "},"Į":{"ha":269,"x_min":63,"x_max":249,"o":"m 165 0 l 100 0 l 100 990 l 165 990 l 165 0 m 157 1 q 127 -54 137 -24 q 121 -97 121 -77 q 132 -138 121 -122 q 191 -172 157 -172 q 222 -166 205 -172 l 249 -210 q 175 -231 222 -231 q 96 -192 127 -229 q 63 -111 63 -155 q 64 -92 63 -102 q 111 1 71 -41 l 157 1 z "},"į":{"ha":241,"x_min":52,"x_max":237,"o":"m 152 0 l 87 0 l 87 682 l 152 682 l 152 0 m 152 925 l 87 925 l 87 990 l 152 990 l 152 925 m 146 1 q 116 -54 125 -24 q 110 -97 110 -77 q 121 -138 110 -122 q 180 -172 145 -172 q 210 -166 194 -172 l 237 -210 q 163 -231 211 -231 q 84 -192 115 -229 q 52 -111 52 -155 q 53 -92 52 -102 q 99 1 60 -41 l 146 1 z "},"İ":{"ha":269,"x_min":102,"x_max":167,"o":"m 167 0 l 102 0 l 102 990 l 167 990 l 167 0 m 167 1125 l 102 1125 l 102 1190 l 167 1190 l 167 1125 z "},"Ĳ":{"ha":758,"x_min":102,"x_max":676,"o":"m 167 0 l 102 0 l 102 990 l 167 990 l 167 0 m 275 0 l 275 65 l 336 65 q 536 138 464 65 q 611 340 611 212 l 611 990 l 676 990 l 676 340 q 583 92 676 186 q 336 0 491 0 l 275 0 z "},"ĳ":{"ha":564,"x_min":88,"x_max":435,"o":"m 153 0 l 88 0 l 88 682 l 153 682 l 153 0 m 153 925 l 88 925 l 88 990 l 153 990 l 153 925 m 96 -235 q 296 -162 223 -235 q 370 41 370 -87 l 370 682 l 435 682 l 435 41 q 342 -208 435 -114 q 96 -300 250 -300 l 96 -235 m 435 925 l 370 925 l 370 990 l 435 990 l 435 925 z "},"Ĵ":{"ha":489,"x_min":-115,"x_max":475,"o":"m -115 0 l -115 65 l -54 65 q 146 138 73 65 q 220 340 220 212 l 220 990 l 286 990 l 286 340 q 192 92 286 186 q -54 0 100 0 l -115 0 m 296 1274 l 475 1050 l 416 1050 l 248 1224 l 81 1050 l 21 1050 l 200 1274 l 296 1274 z "},"ĵ":{"ha":323,"x_min":-146,"x_max":380,"o":"m -146 -235 q 54 -162 -18 -235 q 128 41 128 -87 l 128 682 l 194 682 l 194 41 q 100 -208 194 -114 q -146 -300 9 -300 l -146 -235 m 201 965 l 380 742 l 321 742 l 153 916 l -14 742 l -74 742 l 105 965 l 201 965 z "},"Ķ":{"ha":713,"x_min":81,"x_max":713,"o":"m 618 0 l 222 372 q 180 425 195 398 q 162 495 162 458 q 180 564 162 531 q 222 617 195 591 l 617 990 l 712 990 l 267 570 q 237 534 247 551 q 228 495 228 515 q 237 456 228 474 q 267 420 247 439 l 713 0 l 618 0 m 146 0 l 81 0 l 81 990 l 146 990 l 146 0 m 437 -173 q 407 -292 433 -227 l 369 -292 q 393 -164 393 -230 l 358 -164 l 358 -85 l 437 -85 l 437 -173 z "},"ķ":{"ha":603,"x_min":81,"x_max":600,"o":"m 498 0 l 194 251 q 176 268 184 258 q 150 340 150 300 q 176 413 150 381 q 194 431 184 422 l 497 682 l 599 682 l 235 380 q 227 372 231 376 q 215 340 215 357 q 227 309 215 323 q 235 301 231 305 l 600 0 l 498 0 m 146 0 l 81 0 l 81 990 l 146 990 l 146 0 m 380 -173 q 350 -292 376 -227 l 312 -292 q 336 -164 336 -230 l 301 -164 l 301 -85 l 380 -85 l 380 -173 z "},"ĸ":{"ha":603,"x_min":81,"x_max":600,"o":"m 498 0 l 194 251 q 176 268 184 258 q 150 340 150 300 q 176 413 150 381 q 194 431 184 422 l 497 682 l 599 682 l 235 380 q 227 372 231 376 q 215 340 215 357 q 227 309 215 323 q 235 301 231 305 l 600 0 l 498 0 m 146 0 l 81 0 l 81 682 l 146 682 l 146 0 z "},"Ĺ":{"ha":745,"x_min":81,"x_max":665,"o":"m 665 65 l 665 0 l 237 0 q 127 45 173 0 q 81 156 81 92 l 81 990 l 146 990 l 146 156 q 173 92 146 118 q 237 65 200 65 l 665 65 m 591 1294 l 375 1071 l 315 1071 l 494 1294 l 591 1294 z "},"ĺ":{"ha":269,"x_min":-3,"x_max":272,"o":"m 167 0 l 102 0 l 102 990 l 167 990 l 167 0 m 272 1250 l 56 1027 l -3 1027 l 176 1250 l 272 1250 z "},"Ļ":{"ha":745,"x_min":81,"x_max":665,"o":"m 665 65 l 665 0 l 237 0 q 127 45 173 0 q 81 156 81 92 l 81 990 l 146 990 l 146 156 q 173 92 146 118 q 237 65 200 65 l 665 65 m 446 -173 q 416 -292 442 -227 l 378 -292 q 403 -164 403 -230 l 368 -164 l 368 -85 l 446 -85 l 446 -173 z "},"ļ":{"ha":269,"x_min":95,"x_max":174,"o":"m 167 0 l 102 0 l 102 990 l 167 990 l 167 0 m 174 -173 q 144 -292 170 -227 l 106 -292 q 130 -164 130 -230 l 95 -164 l 95 -85 l 174 -85 l 174 -173 z "},"Ľ":{"ha":745,"x_min":81,"x_max":665,"o":"m 665 65 l 665 0 l 237 0 q 127 45 173 0 q 81 156 81 92 l 81 990 l 146 990 l 146 156 q 173 92 146 118 q 237 65 200 65 l 665 65 m 610 903 q 580 784 606 849 l 542 784 q 566 911 566 846 l 531 911 l 531 990 l 610 990 l 610 903 z "},"ľ":{"ha":345,"x_min":102,"x_max":340,"o":"m 167 0 l 102 0 l 102 990 l 167 990 l 167 0 m 340 903 q 310 784 336 849 l 272 784 q 296 911 296 846 l 261 911 l 261 990 l 340 990 l 340 903 z "},"Ŀ":{"ha":745,"x_min":81,"x_max":665,"o":"m 665 65 l 665 0 l 237 0 q 127 45 173 0 q 81 156 81 92 l 81 990 l 146 990 l 146 156 q 173 92 146 118 q 237 65 200 65 l 665 65 m 510 549 l 577 549 l 577 482 l 510 482 l 510 549 z "},"ŀ":{"ha":336,"x_min":102,"x_max":329,"o":"m 167 0 l 102 0 l 102 990 l 167 990 l 167 0 m 262 528 l 329 528 l 329 462 l 262 462 l 262 528 z "},"Ł":{"ha":884,"x_min":81,"x_max":802,"o":"m 488 645 l 275 471 l 275 65 l 802 65 l 802 0 l 210 0 l 210 417 l 81 312 l 81 396 l 210 501 l 210 995 l 275 995 l 275 555 l 488 729 l 488 645 z "},"ł":{"ha":572,"x_min":81,"x_max":491,"o":"m 491 654 q 311 507 422 597 l 311 0 l 246 0 l 246 454 q 81 319 151 375 l 81 403 l 246 538 l 246 995 l 311 995 l 311 591 l 471 722 l 491 739 l 491 654 z "},"Ń":{"ha":912,"x_min":81,"x_max":831,"o":"m 146 0 l 81 0 l 81 833 q 119 944 81 901 q 222 990 159 990 q 324 959 286 990 q 389 842 365 925 l 586 166 q 625 85 603 108 q 686 65 646 65 q 745 86 726 65 q 766 157 766 109 l 766 990 l 831 990 l 831 157 q 793 43 831 83 q 686 0 755 0 q 579 39 620 0 q 524 148 545 73 l 327 824 q 282 909 308 887 q 222 924 263 924 q 169 901 189 924 q 146 833 146 876 l 146 0 m 640 1294 l 424 1071 l 364 1071 l 543 1294 l 640 1294 z "},"ń":{"ha":844,"x_min":81,"x_max":763,"o":"m 763 0 l 698 0 l 698 340 q 623 543 698 469 q 422 616 551 616 q 221 543 294 616 q 146 340 146 469 l 146 0 l 81 0 l 81 340 q 175 590 81 496 q 422 682 267 682 q 669 590 578 682 q 763 340 763 496 l 763 0 m 606 985 l 390 762 l 330 762 l 509 985 l 606 985 z "},"Ņ":{"ha":912,"x_min":81,"x_max":831,"o":"m 146 0 l 81 0 l 81 833 q 119 944 81 901 q 222 990 159 990 q 324 959 286 990 q 389 842 365 925 l 586 166 q 625 85 603 108 q 686 65 646 65 q 745 86 726 65 q 766 157 766 109 l 766 990 l 831 990 l 831 157 q 793 43 831 83 q 686 0 755 0 q 579 39 620 0 q 524 148 545 73 l 327 824 q 282 909 308 887 q 222 924 263 924 q 169 901 189 924 q 146 833 146 876 l 146 0 m 496 -173 q 466 -292 492 -227 l 428 -292 q 452 -164 452 -230 l 417 -164 l 417 -85 l 496 -85 l 496 -173 z "},"ņ":{"ha":844,"x_min":81,"x_max":763,"o":"m 763 0 l 698 0 l 698 340 q 623 543 698 469 q 422 616 551 616 q 221 543 294 616 q 146 340 146 469 l 146 0 l 81 0 l 81 340 q 175 590 81 496 q 422 682 267 682 q 669 590 578 682 q 763 340 763 496 l 763 0 m 462 -173 q 432 -292 458 -227 l 394 -292 q 418 -164 418 -230 l 383 -164 l 383 -85 l 462 -85 l 462 -173 z "},"Ň":{"ha":912,"x_min":81,"x_max":831,"o":"m 146 0 l 81 0 l 81 833 q 119 944 81 901 q 222 990 159 990 q 324 959 286 990 q 389 842 365 925 l 586 166 q 625 85 603 108 q 686 65 646 65 q 745 86 726 65 q 766 157 766 109 l 766 990 l 831 990 l 831 157 q 793 43 831 83 q 686 0 755 0 q 579 39 620 0 q 524 148 545 73 l 327 824 q 282 909 308 887 q 222 924 263 924 q 169 901 189 924 q 146 833 146 876 l 146 0 m 408 1044 l 229 1267 l 289 1267 l 456 1093 l 624 1267 l 684 1267 l 505 1044 l 408 1044 z "},"ň":{"ha":844,"x_min":81,"x_max":763,"o":"m 763 0 l 698 0 l 698 340 q 623 543 698 469 q 422 616 551 616 q 221 543 294 616 q 146 340 146 469 l 146 0 l 81 0 l 81 340 q 175 590 81 496 q 422 682 267 682 q 669 590 578 682 q 763 340 763 496 l 763 0 m 374 735 l 195 958 l 255 958 l 422 785 l 590 958 l 650 958 l 471 735 l 374 735 z "},"ŉ":{"ha":884,"x_min":27,"x_max":783,"o":"m 783 0 l 718 0 l 718 340 q 644 543 718 469 q 443 616 571 616 q 241 543 314 616 q 167 340 167 469 l 167 0 l 102 0 l 102 340 q 195 590 102 496 q 443 682 288 682 q 690 590 598 682 q 783 340 783 496 l 783 0 m 106 712 q 76 593 102 659 l 38 593 q 62 721 62 655 l 27 721 l 27 800 l 106 800 l 106 712 z "},"Ŋ":{"ha":844,"x_min":99,"x_max":764,"o":"m 99 990 l 164 990 l 164 865 q 188 895 175 880 q 431 990 276 990 q 675 895 587 990 q 764 632 764 798 l 764 307 q 699 56 764 140 q 389 -5 604 -68 l 406 57 q 647 96 578 7 q 698 307 698 161 l 698 632 q 627 850 698 772 q 431 925 558 925 q 236 850 304 925 q 164 632 164 772 l 164 1 l 99 1 l 99 990 z "},"ŋ":{"ha":785,"x_min":102,"x_max":666,"o":"m 102 682 l 167 682 l 167 607 q 176 615 171 611 q 384 682 248 682 q 593 615 520 682 q 666 418 666 547 l 666 -67 q 621 -239 666 -177 q 408 -309 555 -328 l 375 -304 l 384 -240 l 416 -245 q 568 -200 525 -259 q 601 -67 601 -156 l 601 418 q 549 568 601 519 q 384 616 495 616 q 220 568 273 616 q 167 421 168 519 l 167 -7 l 102 -7 l 102 682 z "},"Ō":{"ha":968,"x_min":81,"x_max":886,"o":"m 484 990 q 777 882 669 990 q 886 587 886 772 l 886 402 q 777 107 886 217 q 484 0 669 0 q 191 107 299 0 q 81 402 81 217 l 81 587 q 192 882 81 772 q 484 990 300 990 m 730 836 q 484 924 642 924 q 238 836 327 924 q 146 587 146 745 l 146 402 q 237 153 146 244 q 484 65 326 65 q 730 153 642 65 q 821 402 821 244 l 821 587 q 730 836 821 745 m 309 1179 l 659 1179 l 659 1114 l 309 1114 l 309 1179 z "},"ō":{"ha":790,"x_min":54,"x_max":736,"o":"m 395 616 q 194 543 267 616 q 119 340 119 469 q 194 138 119 212 q 395 65 267 65 q 596 138 524 65 q 671 340 671 212 q 596 543 671 469 q 395 616 524 616 m 148 590 q 395 682 240 682 q 642 590 551 682 q 736 340 736 496 q 642 92 736 185 q 395 0 551 0 q 148 92 240 0 q 54 340 54 185 q 148 590 54 496 m 220 870 l 570 870 l 570 805 l 220 805 l 220 870 z "},"Ŏ":{"ha":968,"x_min":81,"x_max":886,"o":"m 484 990 q 777 882 669 990 q 886 587 886 772 l 886 402 q 777 107 886 217 q 484 0 669 0 q 191 107 299 0 q 81 402 81 217 l 81 587 q 192 882 81 772 q 484 990 300 990 m 730 836 q 484 924 642 924 q 238 836 327 924 q 146 587 146 745 l 146 402 q 237 153 146 244 q 484 65 326 65 q 730 153 642 65 q 821 402 821 244 l 821 587 q 730 836 821 745 m 349 1217 q 391 1172 355 1196 q 484 1145 431 1145 q 577 1172 538 1145 q 619 1217 614 1196 l 680 1200 q 612 1119 668 1157 q 484 1082 557 1082 q 357 1119 411 1082 q 288 1200 300 1157 l 349 1217 z "},"ŏ":{"ha":790,"x_min":54,"x_max":736,"o":"m 395 616 q 194 543 267 616 q 119 340 119 469 q 194 138 119 212 q 395 65 267 65 q 596 138 524 65 q 671 340 671 212 q 596 543 671 469 q 395 616 524 616 m 148 590 q 395 682 240 682 q 642 590 551 682 q 736 340 736 496 q 642 92 736 185 q 395 0 551 0 q 148 92 240 0 q 54 340 54 185 q 148 590 54 496 m 260 909 q 302 863 266 888 q 395 837 342 837 q 488 863 449 837 q 530 909 525 888 l 591 892 q 523 810 579 848 q 395 774 468 774 q 268 810 322 774 q 199 892 212 848 l 260 909 z "},"Ő":{"ha":968,"x_min":81,"x_max":886,"o":"m 484 990 q 777 882 669 990 q 886 587 886 772 l 886 402 q 777 107 886 217 q 484 0 669 0 q 191 107 299 0 q 81 402 81 217 l 81 587 q 192 882 81 772 q 484 990 300 990 m 730 836 q 484 924 642 924 q 238 836 327 924 q 146 587 146 745 l 146 402 q 237 153 146 244 q 484 65 326 65 q 730 153 642 65 q 821 402 821 244 l 821 587 q 730 836 821 745 m 473 1294 l 258 1071 l 198 1071 l 377 1294 l 473 1294 m 770 1294 l 555 1071 l 495 1071 l 674 1294 l 770 1294 z "},"ő":{"ha":790,"x_min":54,"x_max":736,"o":"m 395 616 q 194 543 267 616 q 119 340 119 469 q 194 138 119 212 q 395 65 267 65 q 596 138 524 65 q 671 340 671 212 q 596 543 671 469 q 395 616 524 616 m 148 590 q 395 682 240 682 q 642 590 551 682 q 736 340 736 496 q 642 92 736 185 q 395 0 551 0 q 148 92 240 0 q 54 340 54 185 q 148 590 54 496 m 385 985 l 169 762 l 109 762 l 288 985 l 385 985 m 682 985 l 466 762 l 406 762 l 585 985 l 682 985 z "},"Œ":{"ha":1516,"x_min":81,"x_max":1461,"o":"m 484 924 q 238 836 327 924 q 146 587 146 745 l 146 402 q 237 153 146 244 q 484 65 326 65 q 730 153 642 65 q 821 402 821 244 l 821 587 q 730 836 821 745 q 484 924 642 924 m 822 163 q 777 107 802 133 q 484 0 669 0 q 191 107 299 0 q 81 402 81 217 l 81 587 q 192 882 81 772 q 484 990 300 990 q 777 882 669 990 q 822 827 802 857 l 822 834 q 867 944 822 899 q 978 990 913 990 l 1461 990 l 1461 924 l 978 924 q 913 898 941 924 q 887 834 887 871 l 887 558 l 1440 558 l 1440 493 l 887 493 l 887 156 q 913 92 887 118 q 978 65 941 65 l 1455 65 l 1455 0 l 978 0 q 867 45 913 0 q 822 156 822 92 l 822 163 z "},"œ":{"ha":1394,"x_min":54,"x_max":1352,"o":"m 194 543 q 119 340 119 469 q 194 138 119 212 q 395 65 267 65 q 596 138 524 65 q 671 340 671 212 q 596 543 671 469 q 395 616 524 616 q 194 543 267 616 m 741 290 l 1274 443 q 1192 564 1250 519 q 1013 616 1122 616 q 812 543 884 616 q 737 340 737 469 q 741 290 737 315 m 704 180 q 642 92 681 130 q 395 0 551 0 q 148 92 240 0 q 54 340 54 185 q 148 590 54 496 q 395 682 240 682 q 642 590 551 682 q 704 501 681 551 q 766 590 727 551 q 1013 682 858 682 q 1231 615 1144 682 q 1345 427 1320 547 l 1352 397 l 756 227 q 812 138 775 174 q 1013 65 884 65 l 1278 65 l 1278 0 l 1013 0 q 766 92 858 0 q 704 180 727 130 z "},"Ŕ":{"ha":884,"x_min":81,"x_max":876,"o":"m 764 0 l 248 329 q 215 377 223 347 q 218 435 208 406 q 253 480 229 463 q 307 496 277 496 l 546 496 q 707 550 653 496 q 760 711 760 603 q 707 871 760 818 q 546 924 653 924 l 237 924 q 173 898 200 924 q 146 834 146 871 l 146 0 l 81 0 l 81 834 q 127 944 81 899 q 237 990 173 990 l 546 990 q 753 917 680 990 q 825 711 825 845 q 753 504 825 576 q 546 431 680 431 l 307 431 q 290 427 297 431 q 279 412 283 421 q 278 393 275 402 q 286 382 280 386 l 876 0 l 764 0 m 662 1294 l 446 1071 l 387 1071 l 566 1294 l 662 1294 z "},"ŕ":{"ha":479,"x_min":81,"x_max":465,"o":"m 465 616 q 209 536 286 616 q 146 340 146 471 l 146 0 l 81 0 l 81 340 q 162 581 81 497 q 465 682 258 682 l 465 616 m 460 985 l 244 762 l 184 762 l 363 985 l 460 985 z "},"Ŗ":{"ha":884,"x_min":81,"x_max":876,"o":"m 764 0 l 248 329 q 215 377 223 347 q 218 435 208 406 q 253 480 229 463 q 307 496 277 496 l 546 496 q 707 550 653 496 q 760 711 760 603 q 707 871 760 818 q 546 924 653 924 l 237 924 q 173 898 200 924 q 146 834 146 871 l 146 0 l 81 0 l 81 834 q 127 944 81 899 q 237 990 173 990 l 546 990 q 753 917 680 990 q 825 711 825 845 q 753 504 825 576 q 546 431 680 431 l 307 431 q 290 427 297 431 q 279 412 283 421 q 278 393 275 402 q 286 382 280 386 l 876 0 l 764 0 m 518 -173 q 488 -292 514 -227 l 450 -292 q 475 -164 475 -230 l 439 -164 l 439 -85 l 518 -85 l 518 -173 z "},"ŗ":{"ha":479,"x_min":81,"x_max":465,"o":"m 465 616 q 209 536 286 616 q 146 340 146 471 l 146 0 l 81 0 l 81 340 q 162 581 81 497 q 465 682 258 682 l 465 616 m 159 -173 q 130 -292 155 -227 l 92 -292 q 116 -164 116 -230 l 81 -164 l 81 -85 l 159 -85 l 159 -173 z "},"Ř":{"ha":884,"x_min":81,"x_max":876,"o":"m 764 0 l 248 329 q 215 377 223 347 q 218 435 208 406 q 253 480 229 463 q 307 496 277 496 l 546 496 q 707 550 653 496 q 760 711 760 603 q 707 871 760 818 q 546 924 653 924 l 237 924 q 173 898 200 924 q 146 834 146 871 l 146 0 l 81 0 l 81 834 q 127 944 81 899 q 237 990 173 990 l 546 990 q 753 917 680 990 q 825 711 825 845 q 753 504 825 576 q 546 431 680 431 l 307 431 q 290 427 297 431 q 279 412 283 421 q 278 393 275 402 q 286 382 280 386 l 876 0 l 764 0 m 431 1044 l 252 1267 l 311 1267 l 479 1093 l 646 1267 l 706 1267 l 527 1044 l 431 1044 z "},"ř":{"ha":479,"x_min":81,"x_max":556,"o":"m 465 616 q 209 536 286 616 q 146 340 146 471 l 146 0 l 81 0 l 81 340 q 162 581 81 497 q 465 682 258 682 l 465 616 m 281 767 l 102 990 l 161 990 l 329 817 l 496 990 l 556 990 l 377 767 l 281 767 z "},"Ś":{"ha":852,"x_min":54,"x_max":798,"o":"m 758 990 l 758 924 l 426 924 q 198 869 280 924 q 119 726 119 815 q 216 573 119 618 q 430 527 275 546 q 683 469 614 505 q 798 264 798 410 q 691 67 798 140 q 426 0 592 0 l 54 0 l 54 65 l 426 65 q 654 121 572 65 q 732 264 732 174 q 635 417 732 372 q 422 463 577 444 q 170 520 238 484 q 54 726 54 580 q 161 922 54 850 q 426 990 260 990 l 758 990 m 610 1294 l 394 1071 l 334 1071 l 513 1294 l 610 1294 z "},"ś":{"ha":644,"x_min":54,"x_max":590,"o":"m 563 682 l 563 616 l 322 616 q 169 581 223 616 q 119 495 119 548 q 184 401 119 429 q 326 373 222 385 q 507 333 458 358 q 590 186 590 291 q 511 46 590 98 q 322 0 440 0 l 54 0 l 54 65 l 322 65 q 475 101 420 65 q 524 186 524 133 q 460 280 524 252 q 318 309 421 296 q 137 349 186 323 q 54 495 54 391 q 133 635 54 583 q 322 682 204 682 l 563 682 m 506 985 l 290 762 l 231 762 l 410 985 l 506 985 z "},"Ŝ":{"ha":852,"x_min":54,"x_max":798,"o":"m 758 990 l 758 924 l 426 924 q 198 869 280 924 q 119 726 119 815 q 216 573 119 618 q 430 527 275 546 q 683 469 614 505 q 798 264 798 410 q 691 67 798 140 q 426 0 592 0 l 54 0 l 54 65 l 426 65 q 654 121 572 65 q 732 264 732 174 q 635 417 732 372 q 422 463 577 444 q 170 520 238 484 q 54 726 54 580 q 161 922 54 850 q 426 990 260 990 l 758 990 m 474 1274 l 653 1050 l 593 1050 l 426 1224 l 258 1050 l 199 1050 l 378 1274 l 474 1274 z "},"ŝ":{"ha":644,"x_min":54,"x_max":590,"o":"m 563 682 l 563 616 l 322 616 q 169 581 223 616 q 119 495 119 548 q 184 401 119 429 q 326 373 222 385 q 507 333 458 358 q 590 186 590 291 q 511 46 590 98 q 322 0 440 0 l 54 0 l 54 65 l 322 65 q 475 101 420 65 q 524 186 524 133 q 460 280 524 252 q 318 309 421 296 q 137 349 186 323 q 54 495 54 391 q 133 635 54 583 q 322 682 204 682 l 563 682 m 370 965 l 549 742 l 490 742 l 322 916 l 155 742 l 95 742 l 274 965 l 370 965 z "},"Ş":{"ha":852,"x_min":54,"x_max":798,"o":"m 758 990 l 758 924 l 426 924 q 198 869 280 924 q 119 726 119 815 q 216 573 119 618 q 430 527 275 546 q 683 469 614 505 q 798 264 798 410 q 691 67 798 140 q 426 0 592 0 l 54 0 l 54 65 l 426 65 q 654 121 572 65 q 732 264 732 174 q 635 417 732 372 q 422 463 577 444 q 170 520 238 484 q 54 726 54 580 q 161 922 54 850 q 426 990 260 990 l 758 990 m 475 -54 l 353 -294 l 296 -294 l 401 -54 l 475 -54 z "},"ş":{"ha":644,"x_min":54,"x_max":590,"o":"m 563 682 l 563 616 l 322 616 q 169 581 223 616 q 119 495 119 548 q 184 401 119 429 q 326 373 222 385 q 507 333 458 358 q 590 186 590 291 q 511 46 590 98 q 322 0 440 0 l 54 0 l 54 65 l 322 65 q 475 101 420 65 q 524 186 524 133 q 460 280 524 252 q 318 309 421 296 q 137 349 186 323 q 54 495 54 391 q 133 635 54 583 q 322 682 204 682 l 563 682 m 373 -54 l 251 -294 l 194 -294 l 299 -54 l 373 -54 z "},"Š":{"ha":852,"x_min":54,"x_max":798,"o":"m 758 990 l 758 924 l 426 924 q 198 869 280 924 q 119 726 119 815 q 216 573 119 618 q 430 527 275 546 q 683 469 614 505 q 798 264 798 410 q 691 67 798 140 q 426 0 592 0 l 54 0 l 54 65 l 426 65 q 654 121 572 65 q 732 264 732 174 q 635 417 732 372 q 422 463 577 444 q 170 520 238 484 q 54 726 54 580 q 161 922 54 850 q 426 990 260 990 l 758 990 m 378 1044 l 199 1267 l 258 1267 l 426 1093 l 593 1267 l 653 1267 l 474 1044 l 378 1044 z "},"š":{"ha":644,"x_min":54,"x_max":590,"o":"m 563 682 l 563 616 l 322 616 q 169 581 223 616 q 119 495 119 548 q 184 401 119 429 q 326 373 222 385 q 507 333 458 358 q 590 186 590 291 q 511 46 590 98 q 322 0 440 0 l 54 0 l 54 65 l 322 65 q 475 101 420 65 q 524 186 524 133 q 460 280 524 252 q 318 309 421 296 q 137 349 186 323 q 54 495 54 391 q 133 635 54 583 q 322 682 204 682 l 563 682 m 274 735 l 95 958 l 155 958 l 322 785 l 490 958 l 549 958 l 370 735 l 274 735 z "},"Ţ":{"ha":800,"x_min":7,"x_max":793,"o":"m 793 989 l 793 925 l 433 925 l 433 0 l 367 0 l 367 925 l 7 925 l 7 989 l 793 989 m 437 -54 l 315 -294 l 258 -294 l 363 -54 l 437 -54 z "},"ţ":{"ha":488,"x_min":102,"x_max":415,"o":"m 182 616 l 182 340 q 256 138 182 212 q 415 65 328 65 l 415 0 q 210 92 301 0 q 116 340 116 186 l 116 990 l 182 990 l 182 682 l 412 682 l 412 616 l 182 616 m 281 -54 l 159 -294 l 102 -294 l 208 -54 l 281 -54 z "},"Ť":{"ha":800,"x_min":7,"x_max":793,"o":"m 793 989 l 793 925 l 433 925 l 433 0 l 367 0 l 367 925 l 7 925 l 7 989 l 793 989 m 352 1044 l 173 1267 l 233 1267 l 400 1093 l 568 1267 l 627 1267 l 448 1044 l 352 1044 z "},"ť":{"ha":557,"x_min":116,"x_max":536,"o":"m 182 616 l 182 340 q 256 138 182 212 q 415 65 328 65 l 415 0 q 210 92 301 0 q 116 340 116 186 l 116 990 l 182 990 l 182 682 l 412 682 l 412 616 l 182 616 m 536 903 q 506 784 532 849 l 468 784 q 492 911 492 846 l 457 911 l 457 990 l 536 990 l 536 903 z "},"Ŧ":{"ha":800,"x_min":7,"x_max":793,"o":"m 367 528 l 367 925 l 7 925 l 7 989 l 793 989 l 793 925 l 433 925 l 433 528 l 711 528 l 711 463 l 433 463 l 433 0 l 367 0 l 367 463 l 89 463 l 89 528 l 367 528 z "},"ŧ":{"ha":488,"x_min":7,"x_max":481,"o":"m 201 345 l 201 616 l 7 616 l 7 682 l 201 682 l 201 930 l 267 949 l 267 682 l 481 682 l 481 616 l 267 616 l 267 345 l 454 345 l 454 279 l 267 279 l 267 0 l 201 0 l 201 279 l 35 279 l 35 345 l 201 345 z "},"Ũ":{"ha":918,"x_min":81,"x_max":837,"o":"m 772 990 l 837 990 l 837 402 q 734 117 837 228 q 459 0 625 0 q 199 102 307 0 q 81 402 81 215 l 81 990 l 146 990 l 146 402 q 244 149 146 243 q 459 65 332 65 q 686 161 596 65 q 772 402 772 253 l 772 990 m 316 1099 l 251 1113 l 258 1145 q 295 1211 265 1183 q 363 1238 326 1238 q 472 1200 402 1238 q 551 1167 529 1167 q 580 1177 568 1167 q 595 1206 591 1186 l 602 1239 l 667 1225 l 661 1194 q 623 1126 652 1152 q 551 1101 593 1101 q 439 1141 511 1101 q 363 1172 385 1172 q 340 1162 353 1172 q 322 1133 326 1150 l 316 1099 z "},"ũ":{"ha":844,"x_min":95,"x_max":763,"o":"m 698 682 l 763 682 l 763 340 q 669 92 763 185 q 429 0 578 0 q 189 92 281 0 q 95 340 95 185 l 95 682 l 160 682 l 160 340 q 235 138 160 212 q 429 65 307 65 q 623 138 551 65 q 698 340 698 212 l 698 682 m 279 791 l 214 804 l 221 837 q 258 902 229 875 q 327 930 289 930 q 435 891 366 930 q 515 859 492 859 q 543 869 532 859 q 559 897 555 878 l 565 930 l 630 917 l 624 885 q 586 818 615 843 q 514 793 556 793 q 403 833 474 793 q 327 863 348 863 q 304 854 316 863 q 286 824 290 842 l 279 791 z "},"Ū":{"ha":918,"x_min":81,"x_max":837,"o":"m 772 990 l 837 990 l 837 402 q 734 117 837 228 q 459 0 625 0 q 199 102 307 0 q 81 402 81 215 l 81 990 l 146 990 l 146 402 q 244 149 146 243 q 459 65 332 65 q 686 161 596 65 q 772 402 772 253 l 772 990 m 284 1179 l 635 1179 l 635 1114 l 284 1114 l 284 1179 z "},"ū":{"ha":844,"x_min":95,"x_max":763,"o":"m 698 682 l 763 682 l 763 340 q 669 92 763 185 q 429 0 578 0 q 189 92 281 0 q 95 340 95 185 l 95 682 l 160 682 l 160 340 q 235 138 160 212 q 429 65 307 65 q 623 138 551 65 q 698 340 698 212 l 698 682 m 247 870 l 597 870 l 597 805 l 247 805 l 247 870 z "},"Ŭ":{"ha":918,"x_min":81,"x_max":837,"o":"m 772 990 l 837 990 l 837 402 q 734 117 837 228 q 459 0 625 0 q 199 102 307 0 q 81 402 81 215 l 81 990 l 146 990 l 146 402 q 244 149 146 243 q 459 65 332 65 q 686 161 596 65 q 772 402 772 253 l 772 990 m 324 1217 q 366 1172 330 1196 q 459 1145 406 1145 q 552 1172 513 1145 q 594 1217 589 1196 l 655 1200 q 587 1119 643 1157 q 459 1082 532 1082 q 332 1119 386 1082 q 263 1200 275 1157 l 324 1217 z "},"ŭ":{"ha":844,"x_min":95,"x_max":763,"o":"m 698 682 l 763 682 l 763 340 q 669 92 763 185 q 429 0 578 0 q 189 92 281 0 q 95 340 95 185 l 95 682 l 160 682 l 160 340 q 235 138 160 212 q 429 65 307 65 q 623 138 551 65 q 698 340 698 212 l 698 682 m 288 909 q 330 863 293 888 q 422 837 369 837 q 515 863 476 837 q 557 909 552 888 l 618 892 q 550 810 606 848 q 422 774 495 774 q 295 810 349 774 q 227 892 239 848 l 288 909 z "},"Ů":{"ha":918,"x_min":81,"x_max":837,"o":"m 772 990 l 837 990 l 837 402 q 734 117 837 228 q 459 0 625 0 q 199 102 307 0 q 81 402 81 215 l 81 990 l 146 990 l 146 402 q 244 149 146 243 q 459 65 332 65 q 686 161 596 65 q 772 402 772 253 l 772 990 m 460 1253 q 553 1215 514 1253 q 591 1122 591 1176 q 553 1028 591 1067 q 460 990 514 990 q 366 1028 405 990 q 328 1122 328 1067 q 366 1215 328 1176 q 460 1253 405 1253 m 513 1176 q 460 1198 491 1198 q 406 1176 427 1198 q 382 1122 382 1154 q 406 1067 382 1090 q 460 1045 427 1045 q 513 1067 491 1045 q 536 1122 536 1090 q 513 1176 536 1154 z "},"ů":{"ha":844,"x_min":95,"x_max":763,"o":"m 698 682 l 763 682 l 763 340 q 669 92 763 185 q 429 0 578 0 q 189 92 281 0 q 95 340 95 185 l 95 682 l 160 682 l 160 340 q 235 138 160 212 q 429 65 307 65 q 623 138 551 65 q 698 340 698 212 l 698 682 m 422 945 q 515 907 477 945 q 554 813 554 867 q 515 720 554 758 q 422 682 477 682 q 329 720 368 682 q 290 813 290 758 q 329 907 290 867 q 422 945 368 945 m 476 867 q 422 890 454 890 q 368 867 390 890 q 345 813 345 845 q 368 759 345 781 q 422 736 390 736 q 476 759 454 736 q 499 813 499 781 q 476 867 499 845 z "},"Ű":{"ha":918,"x_min":81,"x_max":837,"o":"m 772 990 l 837 990 l 837 402 q 734 117 837 228 q 459 0 625 0 q 199 102 307 0 q 81 402 81 215 l 81 990 l 146 990 l 146 402 q 244 149 146 243 q 459 65 332 65 q 686 161 596 65 q 772 402 772 253 l 772 990 m 448 1294 l 233 1071 l 173 1071 l 352 1294 l 448 1294 m 745 1294 l 530 1071 l 470 1071 l 649 1294 l 745 1294 z "},"ű":{"ha":844,"x_min":95,"x_max":763,"o":"m 698 682 l 763 682 l 763 340 q 669 92 763 185 q 429 0 578 0 q 189 92 281 0 q 95 340 95 185 l 95 682 l 160 682 l 160 340 q 235 138 160 212 q 429 65 307 65 q 623 138 551 65 q 698 340 698 212 l 698 682 m 412 985 l 196 762 l 136 762 l 315 985 l 412 985 m 709 985 l 493 762 l 433 762 l 612 985 l 709 985 z "},"Ų":{"ha":918,"x_min":81,"x_max":837,"o":"m 481 1 q 459 0 470 0 q 199 102 307 0 q 81 402 81 215 l 81 990 l 146 990 l 146 402 q 244 149 146 243 q 459 65 332 65 q 686 161 596 65 q 772 402 772 253 l 772 990 l 837 990 l 837 402 q 734 117 837 228 q 533 6 650 27 q 508 -42 516 -16 q 502 -85 502 -66 q 513 -127 502 -111 q 572 -161 537 -161 q 602 -155 586 -161 l 629 -198 q 555 -220 603 -220 q 476 -180 507 -217 q 444 -99 444 -143 q 445 -81 444 -90 q 481 1 451 -37 z "},"ų":{"ha":844,"x_min":81,"x_max":763,"o":"m 569 26 q 422 0 505 0 q 175 92 267 0 q 81 340 81 185 l 81 682 l 146 682 l 146 340 q 221 138 146 212 q 422 65 294 65 q 623 138 551 65 q 698 340 698 212 l 698 682 l 763 682 l 763 340 q 669 92 763 185 q 646 71 659 81 q 618 19 627 47 q 612 -24 612 -5 q 623 -66 612 -50 q 682 -100 648 -100 q 713 -94 696 -100 l 740 -137 q 666 -159 713 -159 q 587 -119 618 -156 q 554 -38 554 -82 q 555 -20 554 -29 q 569 26 559 4 z "},"Ŵ":{"ha":1156,"x_min":14,"x_max":1143,"o":"m 79 990 l 199 128 q 221 80 203 97 q 262 65 237 65 q 303 81 287 65 q 329 130 323 98 l 458 800 q 502 860 466 838 q 578 880 534 880 q 654 860 621 880 q 698 800 690 838 l 827 130 q 854 81 833 100 q 899 65 872 65 q 936 79 922 65 q 956 128 952 95 l 1077 990 l 1143 990 l 1021 119 q 982 33 1013 64 q 899 0 949 0 q 811 33 848 0 q 763 117 773 66 l 633 787 q 621 804 631 798 q 578 814 604 814 q 536 804 552 814 q 522 787 524 798 l 393 117 q 347 33 382 65 q 262 0 312 0 q 176 33 211 0 q 135 119 142 66 l 14 990 l 79 990 m 627 1274 l 806 1050 l 746 1050 l 578 1224 l 411 1050 l 351 1050 l 530 1274 l 627 1274 z "},"ŵ":{"ha":1162,"x_min":14,"x_max":1148,"o":"m 80 682 l 198 117 q 220 79 203 92 q 267 65 238 65 q 315 79 298 65 q 338 120 330 93 l 447 497 q 496 576 461 547 q 581 608 534 608 q 656 587 625 608 q 715 497 696 559 l 824 120 q 850 78 832 92 q 895 65 867 65 q 941 78 924 65 q 964 117 958 92 l 1082 682 l 1148 682 l 1027 104 q 981 27 1017 54 q 895 0 947 0 q 810 26 845 0 q 762 102 776 53 l 652 479 q 620 533 641 518 q 581 543 606 543 q 538 526 557 543 q 509 479 518 510 l 400 102 q 357 31 387 56 q 267 0 321 0 q 180 27 216 0 q 134 104 144 55 l 14 682 l 80 682 m 629 965 l 808 742 l 749 742 l 581 916 l 414 742 l 354 742 l 533 965 l 629 965 z "},"Ŷ":{"ha":718,"x_min":1,"x_max":717,"o":"m 71 990 l 274 474 q 308 416 290 433 q 360 399 327 399 q 412 417 393 399 q 447 474 431 433 l 647 990 l 717 990 l 507 451 q 456 369 486 395 q 393 337 429 344 l 393 0 l 328 0 l 328 337 q 264 369 292 344 q 213 450 235 396 l 1 990 l 71 990 m 407 1274 l 586 1050 l 526 1050 l 359 1224 l 191 1050 l 132 1050 l 311 1274 l 407 1274 z "},"ŷ":{"ha":844,"x_min":81,"x_max":736,"o":"m 671 338 l 671 682 l 736 682 l 736 33 q 643 -216 736 -123 q 396 -309 551 -308 l 202 -309 l 202 -243 l 396 -243 q 597 -170 524 -243 q 671 33 671 -96 l 671 124 q 642 92 658 107 q 409 0 551 0 q 175 92 267 0 q 81 340 81 185 l 81 682 l 146 682 l 146 340 q 221 138 146 212 q 409 65 294 65 q 596 138 524 65 q 671 338 670 212 m 471 965 l 650 742 l 590 742 l 422 916 l 255 742 l 195 742 l 374 965 l 471 965 z "},"Ÿ":{"ha":718,"x_min":1,"x_max":717,"o":"m 71 990 l 274 474 q 308 416 290 433 q 360 399 327 399 q 412 417 393 399 q 447 474 431 433 l 647 990 l 717 990 l 507 451 q 456 369 486 395 q 393 337 429 344 l 393 0 l 328 0 l 328 337 q 264 369 292 344 q 213 450 235 396 l 1 990 l 71 990 m 288 1125 l 223 1125 l 223 1190 l 288 1190 l 288 1125 m 494 1125 l 429 1125 l 429 1190 l 494 1190 l 494 1125 z "},"Ź":{"ha":836,"x_min":54,"x_max":781,"o":"m 65 922 l 65 987 l 618 987 q 701 963 663 987 q 758 899 739 940 q 775 808 780 854 q 736 730 770 759 l 140 208 q 124 172 126 195 q 134 116 121 144 q 168 78 146 92 q 216 65 189 65 l 781 65 l 781 0 l 216 0 q 134 23 171 0 q 76 87 96 47 q 59 178 54 132 q 98 256 64 227 l 694 779 q 711 814 708 791 q 700 870 713 842 q 667 908 688 895 q 618 922 646 922 l 65 922 m 604 1294 l 388 1071 l 328 1071 l 507 1294 l 604 1294 z "},"ź":{"ha":712,"x_min":34,"x_max":637,"o":"m 53 616 l 53 682 l 507 682 q 559 666 535 682 l 559 666 q 593 623 582 650 q 600 567 604 595 q 570 519 593 537 l 109 112 q 106 83 98 101 q 133 65 114 67 l 637 65 l 637 0 l 133 0 q 80 16 104 0 q 45 58 57 31 q 39 114 34 86 q 68 163 45 144 l 530 569 q 534 598 539 581 q 507 616 529 614 l 53 616 m 541 985 l 326 762 l 266 762 l 445 985 l 541 985 z "},"Ż":{"ha":836,"x_min":54,"x_max":781,"o":"m 65 922 l 65 987 l 618 987 q 701 963 663 987 q 758 899 739 940 q 775 808 780 854 q 736 730 770 759 l 140 208 q 124 172 126 195 q 134 116 121 144 q 168 78 146 92 q 216 65 189 65 l 781 65 l 781 0 l 216 0 q 134 23 171 0 q 76 87 96 47 q 59 178 54 132 q 98 256 64 227 l 694 779 q 711 814 708 791 q 700 870 713 842 q 667 908 688 895 q 618 922 646 922 l 65 922 m 452 1125 l 387 1125 l 387 1190 l 452 1190 l 452 1125 z "},"ż":{"ha":712,"x_min":34,"x_max":637,"o":"m 53 616 l 53 682 l 507 682 q 559 666 535 682 l 559 666 q 593 623 582 650 q 600 567 604 595 q 570 519 593 537 l 109 112 q 106 83 98 101 q 133 65 114 67 l 637 65 l 637 0 l 133 0 q 80 16 104 0 q 45 58 57 31 q 39 114 34 86 q 68 163 45 144 l 530 569 q 534 598 539 581 q 507 616 529 614 l 53 616 m 391 817 l 326 817 l 326 882 l 391 882 l 391 817 z "},"Ž":{"ha":836,"x_min":54,"x_max":781,"o":"m 65 922 l 65 987 l 618 987 q 701 963 663 987 q 758 899 739 940 q 775 808 780 854 q 736 730 770 759 l 140 208 q 124 172 126 195 q 134 116 121 144 q 168 78 146 92 q 216 65 189 65 l 781 65 l 781 0 l 216 0 q 134 23 171 0 q 76 87 96 47 q 59 178 54 132 q 98 256 64 227 l 694 779 q 711 814 708 791 q 700 870 713 842 q 667 908 688 895 q 618 922 646 922 l 65 922 m 372 1044 l 193 1267 l 252 1267 l 420 1093 l 587 1267 l 647 1267 l 468 1044 l 372 1044 z "},"ž":{"ha":712,"x_min":34,"x_max":637,"o":"m 53 616 l 53 682 l 507 682 q 559 666 535 682 l 559 666 q 593 623 582 650 q 600 567 604 595 q 570 519 593 537 l 109 112 q 106 83 98 101 q 133 65 114 67 l 637 65 l 637 0 l 133 0 q 80 16 104 0 q 45 58 57 31 q 39 114 34 86 q 68 163 45 144 l 530 569 q 534 598 539 581 q 507 616 529 614 l 53 616 m 310 735 l 131 958 l 191 958 l 358 785 l 526 958 l 585 958 l 406 735 l 310 735 z "},"ſ":{"ha":517,"x_min":81,"x_max":498,"o":"m 146 616 l 146 0 l 81 0 l 81 649 q 174 897 81 803 q 418 989 264 988 l 498 989 l 498 925 l 418 925 q 220 851 292 924 q 148 682 157 787 l 146 616 z "},"̒":{"ha":241,"x_min":81,"x_max":160,"o":"m 81 871 q 111 990 85 925 l 149 990 q 125 863 125 928 l 160 863 l 160 784 l 81 784 l 81 871 z "},"̓":{"ha":133,"x_min":27,"x_max":106,"o":"m 106 903 q 76 784 102 849 l 38 784 q 62 911 62 846 l 27 911 l 27 990 l 106 990 l 106 903 z "},"̔":{"ha":241,"x_min":81,"x_max":160,"o":"m 81 990 l 160 990 l 160 911 l 125 911 q 149 784 125 846 l 111 784 q 81 903 85 849 l 81 990 z "},"̕":{"ha":133,"x_min":27,"x_max":106,"o":"m 106 903 q 76 784 102 849 l 38 784 q 62 911 62 846 l 27 911 l 27 990 l 106 990 l 106 903 z "},"̦":{"ha":133,"x_min":27,"x_max":106,"o":"m 106 -173 q 76 -292 102 -227 l 38 -292 q 62 -164 62 -230 l 27 -164 l 27 -85 l 106 -85 l 106 -173 z "},"‰":{"ha":1141,"x_min":68,"x_max":1075,"o":"m 597 990 l 102 0 l 176 0 l 672 990 l 597 990 m 214 749 q 156 773 180 749 q 132 832 132 798 q 156 890 132 866 q 214 915 180 915 q 272 890 248 915 q 296 832 296 866 q 272 773 296 798 q 214 749 248 749 m 214 686 q 317 728 275 686 q 360 832 360 771 q 317 935 360 892 q 214 978 275 978 q 111 935 153 978 q 68 832 68 892 q 111 728 68 771 q 214 686 153 686 m 571 82 q 512 106 536 82 q 488 165 488 130 q 512 223 488 199 q 571 248 536 248 q 629 223 605 248 q 653 165 653 199 q 629 106 653 130 q 571 82 605 82 m 571 18 q 674 61 631 18 q 717 165 717 104 q 674 268 717 225 q 571 311 631 311 q 467 268 510 311 q 425 165 425 225 q 467 61 425 104 q 571 18 510 18 m 929 82 q 870 106 895 82 q 846 165 846 130 q 870 223 846 199 q 929 248 895 248 q 987 223 963 248 q 1011 165 1011 199 q 987 106 1011 130 q 929 82 963 82 m 929 18 q 1032 61 989 18 q 1075 165 1075 104 q 1032 268 1075 225 q 929 311 989 311 q 825 268 868 311 q 783 165 783 225 q 825 61 783 104 q 929 18 868 18 z "}}}
